<svg width="14" height="27" viewBox="0 0 14 27" fill="none" xmlns="http://www.w3.org/2000/svg">
<path d="M12.0133 0.00348091C12.4767 0.00260353 12.9257 0.159193 13.2826 0.44607C13.4834 0.607615 13.6494 0.806013 13.771 1.0299C13.8927 1.25379 13.9677 1.49876 13.9916 1.7508C14.0156 2.00284 13.988 2.25699 13.9106 2.49869C13.8332 2.74039 13.7074 2.96489 13.5404 3.15934L4.65557 13.4736L13.2231 23.8071C13.3878 24.004 13.5108 24.2304 13.5851 24.4736C13.6593 24.7167 13.6833 24.9716 13.6556 25.2238C13.628 25.4759 13.5493 25.7203 13.424 25.9428C13.2987 26.1653 13.1293 26.3616 12.9256 26.5204C12.7204 26.6956 12.4801 26.8277 12.2198 26.9085C11.9594 26.9893 11.6847 27.017 11.4128 26.9899C11.1409 26.9628 10.8778 26.8815 10.6398 26.751C10.4019 26.6205 10.1943 26.4438 10.0301 26.2317L0.451157 14.6859C0.159462 14.3416 0 13.9097 0 13.464C0 13.0183 0.159462 12.5864 0.451157 12.2421L10.3672 0.696232C10.5662 0.463358 10.8189 0.279272 11.1049 0.158909C11.3909 0.0385456 11.7021 -0.0147038 12.0133 0.00348091Z" fill="#D7BFA9"/>
</svg>
