<svg width="14" height="27" viewBox="0 0 14 27" fill="none" xmlns="http://www.w3.org/2000/svg">
<path d="M1.9867 26.9965C1.52332 26.9974 1.07425 26.8408 0.717447 26.5539C0.51663 26.3924 0.350631 26.194 0.228957 25.9701C0.107283 25.7462 0.032325 25.5012 0.00837596 25.2492C-0.0155731 24.9972 0.0119579 24.743 0.0893915 24.5013C0.166825 24.2596 0.292638 24.0351 0.459629 23.8407L9.34443 13.5264L0.776945 3.19288C0.612207 2.99604 0.489185 2.76956 0.41495 2.52645C0.340715 2.28333 0.31673 2.02838 0.344374 1.77624C0.372019 1.5241 0.450746 1.27975 0.576033 1.05723C0.701321 0.834709 0.870697 0.638407 1.07443 0.479608C1.27962 0.304427 1.51992 0.172289 1.78024 0.0914897C2.04056 0.01069 2.31529 -0.0170271 2.58717 0.0100765C2.85906 0.0371801 3.12223 0.11852 3.36018 0.248991C3.59813 0.379463 3.80572 0.556248 3.96992 0.768254L13.5488 12.3141C13.8405 12.6584 14 13.0903 14 13.536C14 13.9817 13.8405 14.4136 13.5488 14.7579L3.63277 26.3038C3.43382 26.5366 3.18109 26.7207 2.8951 26.8411C2.6091 26.9615 2.29788 27.0147 1.9867 26.9965Z" fill="#D7BFA9"/>
</svg>
