<svg width="76" height="76" viewBox="0 0 76 76" fill="none" xmlns="http://www.w3.org/2000/svg">
<path d="M60.0006 60C62.1223 60 64.1572 60.8429 65.6575 62.3431C67.1578 63.8434 68.0007 65.8783 68.0007 68C68.0007 70.1217 67.1578 72.1566 65.6575 73.6569C64.1572 75.1571 62.1223 76 60.0006 76C57.8788 76 55.844 75.1571 54.3437 73.6569C52.8434 72.1566 52.0005 70.1217 52.0005 68C52.0005 65.8783 52.8434 63.8434 54.3437 62.3431C55.844 60.8429 57.8788 60 60.0006 60ZM60.0006 64C58.9397 64 57.9223 64.4214 57.1721 65.1716C56.422 65.9217 56.0006 66.9391 56.0006 68C56.0006 69.0609 56.422 70.0783 57.1721 70.8284C57.9223 71.5786 58.9397 72 60.0006 72C61.0615 72 62.0789 71.5786 62.8291 70.8284C63.5792 70.0783 64.0006 69.0609 64.0006 68C64.0006 66.9391 63.5792 65.9217 62.8291 65.1716C62.0789 64.4214 61.0615 64 60.0006 64ZM24.0002 60C26.122 60 28.1568 60.8429 29.6571 62.3431C31.1575 63.8434 32.0003 65.8783 32.0003 68C32.0003 70.1217 31.1575 72.1566 29.6571 73.6569C28.1568 75.1571 26.122 76 24.0002 76C21.8785 76 19.8436 75.1571 18.3433 73.6569C16.843 72.1566 16.0002 70.1217 16.0002 68C16.0002 65.8783 16.843 63.8434 18.3433 62.3431C19.8436 60.8429 21.8785 60 24.0002 60ZM24.0002 64C22.9394 64 21.9219 64.4214 21.1718 65.1716C20.4216 65.9217 20.0002 66.9391 20.0002 68C20.0002 69.0609 20.4216 70.0783 21.1718 70.8284C21.9219 71.5786 22.9394 72 24.0002 72C25.0611 72 26.0785 71.5786 26.8287 70.8284C27.5788 70.0783 28.0003 69.0609 28.0003 68C28.0003 66.9391 27.5788 65.9217 26.8287 65.1716C26.0785 64.4214 25.0611 64 24.0002 64ZM68.0007 12H13.0921L23.2802 36H56.0006C56.6226 36.0009 57.2361 35.856 57.7919 35.5767C58.3476 35.2974 58.8301 34.8916 59.2006 34.392L71.2007 18.392H71.2047C71.6483 17.7974 71.9179 17.0912 71.9832 16.3523C72.0485 15.6133 71.9071 14.8707 71.5746 14.2076C71.2422 13.5444 70.7319 12.9867 70.1008 12.5969C69.4696 12.207 68.7425 12.0004 68.0007 12ZM56.0006 40H23.4642L20.4002 46.24L20.0002 48C20.0002 49.0609 20.4216 50.0783 21.1718 50.8284C21.9219 51.5786 22.9394 52 24.0002 52H68.0007V56H24.0002C22.6073 56.0007 21.2383 55.6376 20.0287 54.9468C18.8192 54.256 17.8109 53.2613 17.1038 52.0612C16.3967 50.8611 16.0151 49.4972 15.997 48.1044C15.9788 46.7116 16.3246 45.3381 17.0002 44.12L19.8802 38.224L5.35205 4H0V0H8.00008L11.3961 8H68.0007C69.5122 8.00014 70.9927 8.42849 72.2708 9.23542C73.5489 10.0423 74.5723 11.1948 75.2223 12.5594C75.8724 13.924 76.1226 15.4448 75.9439 16.9457C75.7652 18.4466 75.165 19.8662 74.2127 21.04L62.5566 36.584C61.8197 37.6392 60.8387 38.5009 59.6973 39.0956C58.5559 39.6903 57.2877 40.0006 56.0006 40Z" fill="#D7BFA9"/>
</svg>
