<svg width="12" height="13" viewBox="0 0 12 13" fill="none" xmlns="http://www.w3.org/2000/svg">
<path d="M3.9082 4.5498H4.55962V10.3998H3.9082V4.5498Z" fill="#292929"/>
<path d="M6.51367 4.5498H7.16509V10.3998H6.51367V4.5498Z" fill="#292929"/>
<path d="M0 1.9502V2.6002H1.30283V11.7002C1.30283 11.9444 1.30283 12.6752 1.30283 13.0002C1.62854 13.0002 1.7095 13.0002 1.95425 13.0002H9.11983C9.36458 13.0002 9.44553 13.0002 9.77124 13.0002C9.77124 12.6752 9.77124 11.9444 9.77124 11.7002V2.6002H11.0741V1.9502H0ZM1.95425 12.3502V2.6002H9.11983V12.3502H1.95425Z" fill="#292929"/>
<path d="M3.9082 0H7.16528V0.650002H3.9082V0Z" fill="#292929"/>
</svg>
