<svg width="110" height="110" viewBox="0 0 110 110" fill="none" xmlns="http://www.w3.org/2000/svg">
<path d="M86.843 86.8421C89.9139 86.8421 92.8591 88.062 95.0306 90.2335C97.2021 92.405 98.422 95.3501 98.422 98.4211C98.422 101.492 97.2021 104.437 95.0306 106.609C92.8591 108.78 89.9139 110 86.843 110C83.772 110 80.8268 108.78 78.6553 106.609C76.4838 104.437 75.2639 101.492 75.2639 98.4211C75.2639 95.3501 76.4838 92.405 78.6553 90.2335C80.8268 88.062 83.772 86.8421 86.843 86.8421ZM86.843 92.6316C85.3075 92.6316 83.8349 93.2415 82.7492 94.3273C81.6634 95.413 81.0534 96.8856 81.0534 98.4211C81.0534 99.9565 81.6634 101.429 82.7492 102.515C83.8349 103.601 85.3075 104.211 86.843 104.211C88.3784 104.211 89.851 103.601 90.9368 102.515C92.0225 101.429 92.6325 99.9565 92.6325 98.4211C92.6325 96.8856 92.0225 95.413 90.9368 94.3273C89.851 93.2415 88.3784 92.6316 86.843 92.6316ZM34.7372 86.8421C37.8081 86.8421 40.7533 88.062 42.9248 90.2335C45.0963 92.405 46.3162 95.3501 46.3162 98.4211C46.3162 101.492 45.0963 104.437 42.9248 106.609C40.7533 108.78 37.8081 110 34.7372 110C31.6662 110 28.721 108.78 26.5496 106.609C24.3781 104.437 23.1581 101.492 23.1581 98.4211C23.1581 95.3501 24.3781 92.405 26.5496 90.2335C28.721 88.062 31.6662 86.8421 34.7372 86.8421ZM34.7372 92.6316C33.2017 92.6316 31.7291 93.2415 30.6434 94.3273C29.5576 95.413 28.9477 96.8856 28.9477 98.4211C28.9477 99.9565 29.5576 101.429 30.6434 102.515C31.7291 103.601 33.2017 104.211 34.7372 104.211C36.2727 104.211 37.7453 103.601 38.831 102.515C39.9168 101.429 40.5267 99.9565 40.5267 98.4211C40.5267 96.8856 39.9168 95.413 38.831 94.3273C37.7453 93.2415 36.2727 92.6316 34.7372 92.6316ZM98.422 17.3684H18.9491L33.6951 52.1053H81.0534C81.9537 52.1066 82.8417 51.8968 83.6461 51.4926C84.4505 51.0884 85.1489 50.5011 85.6851 49.7779L103.054 26.62H103.059C103.702 25.7594 104.092 24.7373 104.186 23.6677C104.281 22.5982 104.076 21.5234 103.595 20.5636C103.114 19.6037 102.375 18.7966 101.462 18.2323C100.548 17.6681 99.4957 17.369 98.422 17.3684ZM81.0534 57.8947H33.9614L29.5266 66.9263L28.9477 69.4737C28.9477 71.0091 29.5576 72.4817 30.6434 73.5675C31.7291 74.6532 33.2017 75.2632 34.7372 75.2632H98.422V81.0526H34.7372C32.7211 81.0536 30.7397 80.5282 28.989 79.5283C27.2383 78.5284 25.779 77.0888 24.7555 75.3518C23.732 73.6148 23.1798 71.6407 23.1535 69.6248C23.1272 67.6088 23.6277 65.621 24.6055 63.8579L28.774 55.3242L7.74639 5.78947H0V0H11.5791L16.4944 11.5789H98.422C100.61 11.5792 102.753 12.1991 104.603 13.3671C106.452 14.535 107.934 16.2031 108.874 18.1781C109.815 20.1531 110.177 22.3543 109.919 24.5267C109.66 26.699 108.791 28.7537 107.413 30.4526L90.5425 52.9505C89.4758 54.4778 88.0561 55.7249 86.404 56.5857C84.7519 57.4465 82.9163 57.8956 81.0534 57.8947Z" fill="#D7BFA9"/>
</svg>
