<svg width="23" height="27" viewBox="0 0 23 27" fill="none" xmlns="http://www.w3.org/2000/svg">
<path d="M8.11719 9.44971H9.47013V21.5997H8.11719V9.44971Z" fill="#292929"/>
<path d="M13.5293 9.44971H14.8822V21.5997H13.5293V9.44971Z" fill="#292929"/>
<path d="M0 4.0498V5.39981H2.70588V24.2999C2.70588 24.8071 2.70588 26.3249 2.70588 26.9999C3.38235 26.9999 3.55049 26.9999 4.05882 26.9999H18.9412C19.4495 26.9999 19.6176 26.9999 20.2941 26.9999C20.2941 26.3249 20.2941 24.8071 20.2941 24.2999V5.39981H23V4.0498H0ZM4.05882 25.6499V5.39981H18.9412V25.6499H4.05882Z" fill="#292929"/>
<path d="M8.11719 0H14.8819V1.35H8.11719V0Z" fill="#292929"/>
</svg>
