<svg width="25" height="25" viewBox="0 0 25 25" fill="none" xmlns="http://www.w3.org/2000/svg">
<circle cx="12.5" cy="12.5" r="12.5" fill="#FF4444"/>
<path d="M11.0469 6H13.9531L13.4688 14.3912H11.5312L11.0469 6ZM12.5 19C12.0729 19 11.7135 18.8409 11.4219 18.5226C11.1406 18.1921 11 17.7943 11 17.3291C11 16.8639 11.1406 16.4783 11.4219 16.1723C11.7031 15.854 12.0625 15.6949 12.5 15.6949C12.9375 15.6949 13.2969 15.854 13.5781 16.1723C13.8594 16.4783 14 16.8639 14 17.3291C14 17.7943 13.8542 18.1921 13.5625 18.5226C13.2812 18.8409 12.9271 19 12.5 19Z" fill="white"/>
</svg>
