<svg width="150" height="35" viewBox="0 0 150 35" fill="none" xmlns="http://www.w3.org/2000/svg">
<path d="M14.3157 16.3543L11.248 10.2555H4.60147L1.57315 16.3543H0L7.98375 0.466309H8.02307L16.0068 16.3543H14.3157ZM10.5008 8.81818L7.90509 3.65167L5.30939 8.81818H10.5008Z" fill="#292929"/>
<path d="M18.9169 2.21436H20.3328V5.01126H23.4398V6.29317H20.3328V13.3631C20.3328 13.5574 20.3328 13.7904 20.3721 14.0235C20.4114 14.2566 20.4901 14.4897 20.6081 14.6839C20.7261 14.8781 20.9227 15.0723 21.198 15.1889C21.4733 15.3054 21.8666 15.3831 22.3779 15.3831C22.5352 15.3831 22.6925 15.3831 22.8498 15.3443C23.0071 15.3054 23.2038 15.2277 23.4398 15.1112V16.432C23.0071 16.5873 22.5352 16.665 22.0239 16.665C21.5913 16.665 21.198 16.6262 20.8047 16.5096C20.4114 16.3931 20.0968 16.1989 19.8215 15.9658C19.5462 15.6939 19.3102 15.3831 19.1529 14.9558C18.9956 14.5674 18.9169 14.0624 18.9169 13.4797V6.33202H17.6978L17.7371 5.05011H18.9563V2.21436H18.9169Z" fill="#292929"/>
<path d="M26.2714 2.21436H27.6873V5.01126H30.7942V6.29317H27.6873V13.3631C27.6873 13.5574 27.6873 13.7904 27.7266 14.0235C27.7659 14.2566 27.8446 14.4897 27.9626 14.6839C28.0806 14.8781 28.2772 15.0723 28.5525 15.1889C28.8278 15.3054 29.2211 15.3831 29.7324 15.3831C29.8897 15.3831 30.047 15.3831 30.2043 15.3443C30.3616 15.3054 30.5583 15.2277 30.7942 15.1112V16.432C30.3616 16.5873 29.8897 16.665 29.3784 16.665C28.9458 16.665 28.5525 16.6262 28.1592 16.5096C27.7659 16.3931 27.4513 16.1989 27.176 15.9658C26.9007 15.6939 26.6647 15.3831 26.5074 14.9558C26.3501 14.5674 26.2714 14.0624 26.2714 13.4797V6.33202H25.0522L25.0916 5.05011H26.3108V2.21436H26.2714Z" fill="#292929"/>
<path d="M39.2107 6.25409C38.896 6.13755 38.5814 6.0987 38.2668 6.0987C37.7948 6.0987 37.3229 6.21524 36.8903 6.44832C36.4576 6.68139 36.0644 6.99216 35.7104 7.41946C35.3564 7.80792 35.0811 8.31292 34.8845 8.85677C34.6879 9.40061 34.5699 9.9833 34.5699 10.6048V16.3929H33.1934V5.04987H34.5305V7.45831H34.6092C34.9238 6.56486 35.4744 5.86563 36.2217 5.36063C37.0083 4.85564 37.9128 4.62256 38.896 4.62256C39.014 4.62256 39.132 4.62256 39.25 4.62256C39.368 4.62256 39.486 4.62256 39.604 4.66141L39.2107 6.25409Z" fill="#292929"/>
<path d="M44.0481 1.16538L42.9862 2.33075L41.9243 1.16538L42.9862 0L44.0481 1.16538ZM42.3176 16.3541V5.01112H43.7334V16.3541H42.3176Z" fill="#292929"/>
<path d="M49.0035 7.18682L49.0821 7.14797C49.3967 6.68182 49.7507 6.25452 50.144 5.94375C50.5373 5.63298 50.9306 5.36106 51.3632 5.20567C51.7958 5.01145 52.1891 4.89491 52.6217 4.81722C53.015 4.73952 53.4083 4.70068 53.7622 4.70068C54.6275 4.70068 55.4141 4.85607 56.122 5.16683C56.8299 5.4776 57.4592 5.9049 57.9704 6.44874C58.4817 6.99259 58.875 7.61412 59.1896 8.31335C59.4649 9.01257 59.6222 9.75064 59.6222 10.5276C59.6222 11.3822 59.4649 12.1979 59.1503 12.936C58.8357 13.6741 58.403 14.3345 57.8524 14.8783C57.3018 15.4221 56.6726 15.8495 55.9253 16.1602C55.1781 16.471 54.3915 16.6264 53.5656 16.6264C52.8184 16.6264 52.0711 16.5098 51.3632 16.2379C50.6553 15.966 50.026 15.5387 49.4754 14.9948C48.9248 14.451 48.4922 13.7518 48.1382 12.8972C47.7843 12.0426 47.627 11.0714 47.627 9.90603V0.233398H49.0428V7.18682H49.0035ZM53.7229 5.98259C53.0937 5.98259 52.4644 6.09913 51.9138 6.33221C51.3632 6.56528 50.8519 6.87605 50.4193 7.30336C49.9867 7.73066 49.6721 8.23566 49.3967 8.81835C49.1608 9.40103 49.0035 10.0226 49.0035 10.7218C49.0035 11.2656 49.1214 11.8095 49.3181 12.3922C49.5147 12.936 49.8294 13.441 50.2227 13.8683C50.6159 14.2956 51.0879 14.6452 51.6385 14.956C52.1891 15.2279 52.8184 15.3833 53.4869 15.3833C54.2342 15.3833 54.9028 15.2279 55.4927 14.956C56.0826 14.6452 56.5546 14.2956 56.9086 13.8295C57.3018 13.3633 57.5771 12.8583 57.7738 12.3145C57.9704 11.7706 58.0491 11.1879 58.0491 10.6441C58.0491 10.0226 57.9311 9.43988 57.7345 8.89604C57.4985 8.35219 57.2232 7.84719 56.8299 7.41989C56.4366 6.99259 55.9647 6.64298 55.4141 6.4099C54.9421 6.09913 54.3522 5.98259 53.7229 5.98259Z" fill="#292929"/>
<path d="M63.5945 5.01107V12.2753C63.5945 12.4695 63.5945 12.7414 63.6338 13.091C63.6732 13.4406 63.7912 13.7902 63.9485 14.101C64.1058 14.4506 64.3811 14.7225 64.735 14.9945C65.089 15.2275 65.6003 15.3829 66.2689 15.3829C67.0948 15.3829 67.7634 15.2275 68.2353 14.8779C68.7073 14.5283 69.0612 14.101 69.3365 13.596C69.5725 13.091 69.7298 12.5083 69.8085 11.8868C69.8871 11.2653 69.9264 10.6826 69.9264 10.1387V5.01107H71.3423V16.3541H69.9264V14.6449H69.8871C69.6118 15.111 69.3365 15.4606 68.9826 15.7325C68.6286 16.0045 68.2746 16.1987 67.96 16.3152C67.606 16.4318 67.2914 16.5483 66.9768 16.5483C66.6621 16.5871 66.3868 16.5872 66.1902 16.5872C66.0722 16.5872 65.9149 16.5871 65.6789 16.5483C65.443 16.5483 65.1677 16.4706 64.8924 16.3929C64.5777 16.3152 64.3024 16.1987 63.9878 16.0045C63.6732 15.8491 63.3979 15.616 63.1226 15.3052C62.8473 14.9945 62.6506 14.6449 62.4933 14.1787C62.336 13.7126 62.2573 13.1687 62.2573 12.5083V4.89453H63.5945V5.01107Z" fill="#292929"/>
<path d="M75.1181 2.21436H76.534V5.01126H79.6409V6.29317H76.534V13.3631C76.534 13.5574 76.534 13.7904 76.5733 14.0235C76.6126 14.2566 76.6913 14.4897 76.8093 14.6839C76.9272 14.8781 77.1239 15.0723 77.3992 15.1889C77.6745 15.3054 78.0678 15.3831 78.579 15.3831C78.7364 15.3831 78.8937 15.3831 79.051 15.3443C79.2083 15.3054 79.405 15.2277 79.6409 15.1112V16.432C79.2083 16.5873 78.7364 16.665 78.2251 16.665C77.7925 16.665 77.3992 16.6262 77.0059 16.5096C76.6126 16.3931 76.298 16.1989 76.0227 15.9658C75.7474 15.6939 75.5114 15.3831 75.3541 14.9558C75.1968 14.5674 75.1181 14.0624 75.1181 13.4797V6.33202H73.8989L73.9383 5.05011H75.1575V2.21436H75.1181Z" fill="#292929"/>
<path d="M87.3098 15.3438C88.0964 15.3438 88.8043 15.1495 89.4729 14.7999C90.1415 14.4115 90.6527 13.9453 91.0854 13.3238H92.6978C92.4619 13.7899 92.1472 14.2561 91.7539 14.6445C91.3607 15.033 90.9674 15.4214 90.4954 15.6934C90.0235 16.0041 89.5515 16.1984 89.0009 16.3537C88.4503 16.5091 87.8997 16.5868 87.3098 16.5868C86.4839 16.5868 85.6973 16.4314 84.9894 16.1207C84.2421 15.8099 83.6129 15.3826 83.0623 14.8388C82.5117 14.2949 82.0791 13.6734 81.7644 12.9353C81.4498 12.1972 81.2925 11.4592 81.2925 10.6434C81.2925 9.82764 81.4498 9.05072 81.7251 8.31265C82.0004 7.57457 82.433 6.95304 82.9443 6.4092C83.4556 5.86536 84.0848 5.43805 84.7928 5.12728C85.5007 4.81652 86.2479 4.66113 87.0738 4.66113C88.0177 4.66113 88.8436 4.81652 89.5515 5.12728C90.2988 5.43805 90.8887 5.86536 91.4 6.4092C91.9113 6.95304 92.3045 7.57457 92.5405 8.31265C92.8158 9.05072 92.9338 9.82764 92.9338 10.6434H82.7083C82.7083 11.2649 82.8263 11.8865 83.0623 12.4692C83.2982 13.0518 83.6522 13.5568 84.0455 13.9453C84.4388 14.3726 84.9501 14.7222 85.5007 14.9553C86.0906 15.2272 86.6805 15.3438 87.3098 15.3438ZM91.3607 9.40033C91.282 8.89534 91.1247 8.46803 90.8887 8.04073C90.6527 7.61342 90.3381 7.26381 89.9841 6.95304C89.6302 6.64227 89.1976 6.4092 88.6863 6.21497C88.175 6.05959 87.6638 5.94305 87.0738 5.94305C86.5625 5.94305 86.0513 6.02074 85.6186 6.21497C85.186 6.37035 84.7534 6.64227 84.3995 6.95304C84.0455 7.26381 83.7309 7.61342 83.4949 8.04073C83.2196 8.46803 83.0229 8.89534 82.905 9.40033H91.3607Z" fill="#292929"/>
<path d="M107.8 7.10843C107.525 6.87535 107.289 6.68112 107.013 6.52574C106.738 6.37035 106.502 6.25381 106.266 6.17612C106.03 6.09843 105.794 6.05959 105.598 6.02074C105.401 5.98189 105.204 5.98189 105.047 5.98189C104.654 5.98189 104.3 6.02074 103.985 6.13728C103.71 6.25382 103.474 6.4092 103.277 6.56458C103.12 6.71996 102.963 6.95304 102.884 7.14727C102.805 7.38034 102.766 7.61342 102.766 7.80765C102.766 8.23495 102.845 8.54572 103.041 8.81764C103.238 9.05072 103.474 9.24495 103.749 9.40033C104.064 9.55572 104.378 9.67225 104.772 9.74994C105.165 9.82763 105.519 9.94417 105.912 10.0607C106.187 10.1384 106.502 10.2549 106.817 10.3715C107.171 10.488 107.485 10.6822 107.761 10.9542C108.036 11.1872 108.272 11.498 108.469 11.8476C108.665 12.1972 108.744 12.6634 108.744 13.2072C108.744 13.7122 108.626 14.1784 108.429 14.6057C108.233 15.033 107.957 15.3826 107.603 15.6545C107.249 15.9653 106.817 16.1595 106.305 16.3149C105.794 16.4703 105.244 16.548 104.654 16.548C104.457 16.548 104.182 16.548 103.906 16.5091C103.631 16.4703 103.316 16.3926 103.002 16.2761C102.687 16.1595 102.333 15.9653 102.019 15.7322C101.665 15.4991 101.35 15.1884 100.996 14.8388L101.901 13.8676C102.019 14.023 102.176 14.1784 102.333 14.3726C102.491 14.528 102.727 14.7222 102.923 14.8388C103.159 14.9941 103.434 15.1107 103.71 15.1884C104.024 15.2661 104.339 15.3049 104.693 15.3049C105.362 15.3049 105.991 15.1107 106.463 14.7611C106.974 14.4115 107.21 13.9065 107.21 13.2461C107.21 12.8576 107.131 12.508 106.935 12.2361C106.777 11.9642 106.541 11.7699 106.227 11.5757C105.952 11.4203 105.598 11.2649 105.244 11.1872C104.85 11.0707 104.496 10.9542 104.103 10.8376C103.828 10.7599 103.552 10.6434 103.238 10.5269C102.923 10.4103 102.609 10.2161 102.294 9.98302C102.019 9.74994 101.743 9.43918 101.547 9.05072C101.35 8.66226 101.232 8.23496 101.232 7.69111C101.232 7.3415 101.311 6.95304 101.468 6.60343C101.625 6.25381 101.822 5.9042 102.137 5.63228C102.451 5.32151 102.805 5.08844 103.277 4.93305C103.71 4.73882 104.26 4.66113 104.89 4.66113C105.44 4.66113 106.03 4.73882 106.659 4.93305C107.289 5.12728 107.879 5.4769 108.508 6.02074L107.8 7.10843Z" fill="#292929"/>
<path d="M111.576 16.3545V0.233398H112.992V6.4099H113.031C113.306 6.02144 113.621 5.74952 113.935 5.51644C114.289 5.28337 114.604 5.12798 114.919 5.01145C115.233 4.89491 115.548 4.81722 115.863 4.77837C116.177 4.73953 116.452 4.73953 116.649 4.73953C117.2 4.73953 117.711 4.81722 118.183 4.9726C118.655 5.12799 119.087 5.36106 119.441 5.71067C119.795 6.02144 120.11 6.4099 120.307 6.9149C120.543 7.38105 120.621 7.92489 120.621 8.54643V16.3933H119.323V9.01258C119.323 8.39104 119.245 7.92489 119.048 7.53643C118.852 7.14797 118.616 6.8372 118.34 6.64297C118.065 6.4099 117.75 6.25452 117.396 6.17682C117.042 6.09913 116.728 6.06028 116.452 6.06028C115.981 6.06028 115.509 6.13798 115.076 6.29336C114.643 6.44875 114.289 6.68182 113.975 6.99259C113.66 7.30336 113.424 7.65297 113.227 8.04143C113.07 8.42989 112.952 8.89604 112.952 9.36219V16.4321H111.576V16.3545Z" fill="#292929"/>
<path d="M123.335 10.6825C123.335 9.8667 123.492 9.08979 123.807 8.35171C124.122 7.61364 124.554 6.9921 125.105 6.44826C125.655 5.90442 126.285 5.47712 127.032 5.16635C127.74 4.85558 128.526 4.7002 129.352 4.7002C130.178 4.7002 130.965 4.85558 131.673 5.16635C132.381 5.47712 133.049 5.90442 133.6 6.44826C134.15 6.9921 134.583 7.61364 134.898 8.35171C135.212 9.08979 135.37 9.8667 135.37 10.6825C135.37 11.4982 135.212 12.2751 134.898 12.9744C134.583 13.6736 134.15 14.334 133.6 14.8778C133.049 15.4217 132.42 15.849 131.673 16.1597C130.925 16.4705 130.178 16.6259 129.352 16.6259C128.526 16.6259 127.74 16.4705 127.032 16.1597C126.285 15.849 125.655 15.4217 125.105 14.8778C124.554 14.334 124.122 13.7124 123.807 12.9744C123.492 12.2751 123.335 11.4982 123.335 10.6825ZM124.79 10.6825C124.79 11.304 124.908 11.9255 125.144 12.5082C125.38 13.0909 125.734 13.5959 126.127 13.9844C126.521 14.4117 127.032 14.7613 127.582 14.9944C128.133 15.2274 128.723 15.3828 129.352 15.3828C129.982 15.3828 130.571 15.2663 131.122 14.9944C131.673 14.7613 132.145 14.4117 132.577 13.9844C132.971 13.5571 133.324 13.0521 133.56 12.5082C133.796 11.9255 133.914 11.3428 133.914 10.7213C133.914 10.0998 133.796 9.47824 133.56 8.89555C133.324 8.31287 133.01 7.80787 132.577 7.41941C132.184 6.9921 131.673 6.64249 131.122 6.40942C130.571 6.17634 129.982 6.02096 129.352 6.02096C128.723 6.02096 128.133 6.1375 127.582 6.40942C127.032 6.64249 126.56 6.9921 126.127 7.41941C125.734 7.84671 125.38 8.35171 125.144 8.89555C124.908 9.40055 124.79 10.0221 124.79 10.6825Z" fill="#292929"/>
<path d="M139.381 5.01096V7.30288H139.46C140.01 6.44827 140.64 5.78789 141.426 5.36058C142.213 4.93328 143.078 4.7002 144.101 4.7002C145.005 4.7002 145.831 4.85558 146.539 5.16635C147.286 5.47712 147.876 5.90442 148.387 6.40942C148.899 6.95326 149.292 7.57479 149.567 8.31287C149.843 9.05094 150 9.82786 150 10.6825C150 11.5759 149.843 12.3528 149.528 13.0909C149.213 13.829 148.82 14.4505 148.269 14.9555C147.758 15.4994 147.129 15.8878 146.421 16.1986C145.713 16.5094 144.966 16.6259 144.14 16.6259C143.747 16.6259 143.314 16.587 142.881 16.5094C142.449 16.4317 142.016 16.2763 141.584 16.1209C141.151 15.9267 140.758 15.6936 140.364 15.3828C139.971 15.0721 139.656 14.7224 139.342 14.2951H139.381V20.5882H137.965V5.01096H139.381ZM143.983 5.98211C143.314 5.98211 142.685 6.09865 142.134 6.37057C141.584 6.64249 141.072 6.9921 140.679 7.41941C140.286 7.84671 139.971 8.35171 139.735 8.9344C139.499 9.51709 139.381 10.0998 139.381 10.7213C139.381 11.3817 139.499 12.0032 139.774 12.5859C140.05 13.1686 140.404 13.6348 140.836 14.0621C141.269 14.4505 141.78 14.8001 142.37 14.9944C142.96 15.2274 143.511 15.344 144.14 15.344C144.769 15.344 145.32 15.2274 145.87 15.0332C146.421 14.8001 146.893 14.4894 147.286 14.1009C147.68 13.7124 147.994 13.2075 148.23 12.6248C148.466 12.0421 148.584 11.4205 148.584 10.7213C148.584 10.0221 148.466 9.3617 148.23 8.77901C147.994 8.19633 147.68 7.69133 147.286 7.26403C146.893 6.83672 146.382 6.52595 145.831 6.29288C145.28 6.09865 144.651 5.98211 143.983 5.98211Z" fill="#292929"/>
<path d="M39.6043 28.3584C39.8403 28.2807 40.1156 28.203 40.4302 28.1253C40.7448 28.0476 41.0988 28.0088 41.4528 28.0088C42.0427 28.0088 42.5146 28.0865 42.8293 28.2807C43.1439 28.4749 43.3799 28.6692 43.5372 28.9022C43.6945 29.1353 43.7732 29.3684 43.8125 29.6015C43.8518 29.8345 43.8518 29.9899 43.8518 30.0676V34.768H43.0652V33.9911H43.0259C42.7899 34.3407 42.5146 34.6126 42.1607 34.7291C41.8067 34.8845 41.4528 34.9234 41.0988 34.9234C40.7842 34.9234 40.4695 34.8845 40.1549 34.768C39.8403 34.6514 39.6043 34.4961 39.3683 34.3018C39.1324 34.1076 38.9751 33.8357 38.8177 33.5249C38.6998 33.2141 38.6211 32.9034 38.6211 32.5149C38.6211 32.1265 38.6998 31.7768 38.8177 31.5049C38.9751 31.1942 39.1324 30.9611 39.3683 30.7669C39.6043 30.5726 39.8796 30.4172 40.1549 30.3007C40.4302 30.1842 40.7448 30.1453 41.0595 30.1453C41.3741 30.1453 41.6887 30.223 42.0427 30.3395C42.3967 30.4561 42.7113 30.6892 42.9473 30.9999H42.9866V29.9899C42.9866 29.6015 42.8293 29.2907 42.554 29.0576C42.2787 28.8246 41.8854 28.708 41.3741 28.708C41.0595 28.708 40.7448 28.7469 40.4302 28.8246C40.1156 28.9022 39.8403 29.0188 39.6043 29.0965L39.211 29.2519L39.6043 28.3584ZM41.1775 30.9222C40.9022 30.9222 40.6662 30.9611 40.4695 31.0388C40.2729 31.1165 40.0763 31.233 39.9583 31.3884C39.801 31.5438 39.7223 31.6992 39.6436 31.8934C39.565 32.0876 39.5257 32.2818 39.5257 32.4761C39.5257 32.6703 39.565 32.8645 39.6436 33.0976C39.7223 33.2918 39.8403 33.4861 39.9583 33.6414C40.1156 33.7968 40.2729 33.9522 40.5089 34.0299C40.7448 34.1464 40.9808 34.1853 41.2955 34.1853C41.5708 34.1853 41.8461 34.1464 42.082 34.0299C42.318 33.9522 42.4753 33.8357 42.6326 33.6803C42.7899 33.5249 42.9079 33.3695 42.9866 33.1753C43.0652 32.9811 43.1046 32.7868 43.1046 32.5538C43.1046 32.3595 43.0652 32.1653 42.9866 31.9711C42.9079 31.7768 42.7899 31.5826 42.6326 31.4272C42.4753 31.2718 42.2787 31.1553 42.0427 31.0388C41.7674 30.9611 41.4921 30.9222 41.1775 30.9222Z" fill="#292929"/>
<path d="M50.7738 29.4455C50.2232 28.9794 49.5939 28.7463 48.886 28.7463C48.532 28.7463 48.1781 28.824 47.8635 28.9405C47.5488 29.0571 47.2735 29.2513 47.0376 29.4844C46.8016 29.7175 46.6049 29.9894 46.4476 30.339C46.2903 30.6886 46.251 31.0382 46.251 31.4655C46.251 31.8151 46.2903 32.1259 46.4083 32.4755C46.5263 32.7863 46.6836 33.0971 46.9196 33.369C47.1555 33.6409 47.4308 33.8351 47.7455 33.9905C48.0994 34.1459 48.4927 34.2236 48.9253 34.2236C49.6333 34.2236 50.2232 33.9905 50.7345 33.5244L51.2457 34.1459C51.0098 34.3401 50.8131 34.4567 50.5771 34.5732C50.3805 34.6897 50.1445 34.7674 49.9479 34.8451C49.7512 34.9228 49.5546 34.9617 49.3973 34.9617C49.2006 34.9617 49.0433 35.0005 48.9253 35.0005C48.3354 35.0005 47.8241 34.884 47.3915 34.6897C46.9589 34.4955 46.5656 34.2236 46.2903 33.874C46.015 33.5632 45.779 33.1748 45.6217 32.7474C45.4644 32.3201 45.3857 31.9317 45.3857 31.5044C45.3857 31.0382 45.4644 30.6109 45.661 30.1836C45.8577 29.7563 46.0937 29.4067 46.4083 29.0959C46.7229 28.7852 47.0769 28.5132 47.5488 28.3579C47.9814 28.1636 48.4534 28.0859 48.9647 28.0859C49.4759 28.0859 49.9479 28.1636 50.3018 28.319C50.6951 28.4744 51.0098 28.6686 51.2851 28.9017L50.7738 29.4455Z" fill="#292929"/>
<path d="M57.8529 29.4455C57.3023 28.9794 56.673 28.7463 55.9651 28.7463C55.6111 28.7463 55.2572 28.824 54.9426 28.9405C54.6279 29.0571 54.3526 29.2513 54.1167 29.4844C53.8807 29.7175 53.684 29.9894 53.5267 30.339C53.3694 30.6886 53.3301 31.0382 53.3301 31.4655C53.3301 31.8151 53.3694 32.1259 53.4874 32.4755C53.6054 32.7863 53.7627 33.0971 53.9987 33.369C54.2346 33.6409 54.5099 33.8351 54.8246 33.9905C55.1785 34.1459 55.5718 34.2236 56.0044 34.2236C56.7124 34.2236 57.3023 33.9905 57.8136 33.5244L58.3248 34.1459C58.0889 34.3401 57.8922 34.4567 57.6562 34.5732C57.4596 34.6897 57.2236 34.7674 57.027 34.8451C56.8303 34.9228 56.6337 34.9617 56.4764 34.9617C56.2797 34.9617 56.1224 35.0005 56.0044 35.0005C55.4145 35.0005 54.9032 34.884 54.4706 34.6897C54.038 34.4955 53.6447 34.2236 53.3694 33.874C53.0941 33.5632 52.8581 33.1748 52.7008 32.7474C52.5435 32.3201 52.4648 31.9317 52.4648 31.5044C52.4648 31.0382 52.5435 30.6109 52.7401 30.1836C52.9368 29.7563 53.1728 29.4067 53.4874 29.0959C53.802 28.7852 54.156 28.5132 54.6279 28.3579C55.0605 28.1636 55.5325 28.0859 56.0438 28.0859C56.555 28.0859 57.027 28.1636 57.3809 28.319C57.7742 28.4744 58.0889 28.6686 58.3642 28.9017L57.8529 29.4455Z" fill="#292929"/>
<path d="M63.0442 34.2234C63.5162 34.2234 63.9094 34.1068 64.3027 33.9126C64.696 33.6795 65.0106 33.4076 65.2466 33.058H66.1905C66.0332 33.3299 65.8759 33.6018 65.6399 33.8349C65.4039 34.068 65.168 34.2622 64.8927 34.4564C64.6174 34.6118 64.3421 34.7672 64.0274 34.8449C63.7128 34.9226 63.3982 35.0003 63.0442 35.0003C62.5723 35.0003 62.1003 34.9226 61.6677 34.7284C61.2351 34.5341 60.8811 34.3011 60.5665 33.9903C60.2519 33.6795 60.0159 33.2911 59.8193 32.8638C59.6226 32.4365 59.5439 32.0092 59.5439 31.5042C59.5439 31.038 59.6226 30.5719 59.7799 30.1446C59.9372 29.7172 60.1732 29.3676 60.4878 29.0569C60.8025 28.7461 61.1564 28.513 61.5497 28.3188C61.943 28.1246 62.4149 28.0469 62.8869 28.0469C63.4375 28.0469 63.9094 28.1246 64.3421 28.3188C64.7747 28.513 65.1286 28.7461 65.4433 29.0569C65.7186 29.3676 65.9545 29.7561 66.1119 30.1446C66.2692 30.5719 66.3478 31.038 66.3478 31.5042H60.3699C60.3699 31.8926 60.4485 32.2422 60.5665 32.553C60.7238 32.9026 60.8811 33.1745 61.1564 33.4076C61.3924 33.6407 61.6677 33.8349 61.9823 33.9903C62.3363 34.1457 62.6902 34.2234 63.0442 34.2234ZM65.4433 30.7272C65.4039 30.4553 65.3253 30.1834 65.168 29.9503C65.0106 29.7172 64.8533 29.4842 64.6567 29.3288C64.46 29.1346 64.1847 29.018 63.9094 28.9015C63.6341 28.7849 63.3195 28.7461 62.9656 28.7461C62.6509 28.7461 62.3756 28.7849 62.1003 28.9015C61.825 29.018 61.589 29.1346 61.3924 29.3288C61.1958 29.523 60.9991 29.7172 60.8418 29.9503C60.6845 30.1834 60.5665 30.4553 60.4878 30.7272H65.4433Z" fill="#292929"/>
<path d="M71.3821 29.3675C71.2247 29.2121 71.0674 29.0956 70.9101 29.0179C70.7528 28.9402 70.5955 28.8625 70.4775 28.8237C70.3202 28.7848 70.2022 28.746 70.0842 28.746C69.9662 28.746 69.8482 28.7071 69.7696 28.7071C69.5336 28.7071 69.337 28.746 69.1403 28.8237C68.983 28.9014 68.8257 28.9791 68.747 29.0568C68.629 29.1733 68.5504 29.2898 68.5111 29.4064C68.4717 29.5229 68.4324 29.6783 68.4324 29.7948C68.4324 30.0279 68.4717 30.2221 68.5897 30.3775C68.7077 30.5329 68.8257 30.6494 69.0223 30.7271C69.1796 30.8048 69.3763 30.8825 69.6123 30.9214C69.8482 30.9602 70.0449 31.0379 70.2808 31.0768C70.4382 31.1156 70.6348 31.1933 70.8315 31.271C71.0281 31.3487 71.2247 31.4652 71.3821 31.6206C71.5394 31.776 71.6967 31.9314 71.8147 32.1644C71.9327 32.3587 71.972 32.6306 71.972 32.9414C71.972 33.2521 71.9327 33.524 71.8147 33.7571C71.6967 33.9902 71.5394 34.2233 71.3427 34.3787C71.1461 34.534 70.8708 34.6894 70.5955 34.7671C70.3202 34.8448 69.9662 34.9225 69.6516 34.9225C69.5336 34.9225 69.3763 34.9225 69.219 34.8836C69.0617 34.8448 68.865 34.806 68.7077 34.7283C68.5111 34.6506 68.3144 34.534 68.1178 34.4175C67.9211 34.301 67.7245 34.1067 67.5278 33.8737L68.0784 33.291C68.1571 33.3687 68.2358 33.4852 68.3537 33.5629C68.4717 33.6794 68.5897 33.7571 68.7077 33.8348C68.8257 33.9125 68.983 33.9902 69.1796 34.029C69.337 34.0679 69.5336 34.1067 69.7302 34.1067C70.1235 34.1067 70.4775 33.9902 70.7921 33.796C71.0674 33.6017 71.2247 33.291 71.2247 32.9025C71.2247 32.6694 71.1854 32.4752 71.0674 32.3198C70.9494 32.1644 70.8315 32.0479 70.6741 31.9314C70.5168 31.8537 70.3202 31.7371 70.0842 31.6983C69.8482 31.6206 69.6516 31.5817 69.4156 31.5041C69.2583 31.4652 69.101 31.3875 68.9043 31.3098C68.7077 31.2321 68.5504 31.1156 68.3537 30.9991C68.1964 30.8437 68.0391 30.6883 67.9211 30.4552C67.8031 30.2221 67.7638 29.9891 67.7638 29.6395C67.7638 29.4452 67.8031 29.2121 67.8818 29.0179C67.9605 28.8237 68.0784 28.6295 68.2751 28.4352C68.4324 28.2798 68.6684 28.1245 68.9437 28.0079C69.219 27.8914 69.5336 27.8525 69.8876 27.8525C70.2022 27.8525 70.5562 27.8914 70.9101 28.0079C71.2641 28.1245 71.618 28.3187 71.972 28.6295L71.3821 29.3675Z" fill="#292929"/>
<path d="M77.0456 29.3675C76.8883 29.2121 76.731 29.0956 76.5737 29.0179C76.4164 28.9402 76.2591 28.8625 76.1411 28.8237C75.9838 28.7848 75.8658 28.746 75.7478 28.746C75.6298 28.746 75.5118 28.7071 75.4331 28.7071C75.1972 28.7071 75.0005 28.746 74.8039 28.8237C74.6466 28.9014 74.4892 28.9791 74.4106 29.0568C74.2926 29.1733 74.214 29.2898 74.1746 29.4064C74.1353 29.5229 74.096 29.6783 74.096 29.7948C74.096 30.0279 74.1353 30.2221 74.2533 30.3775C74.3713 30.5329 74.4893 30.6494 74.6859 30.7271C74.8432 30.8048 75.0399 30.8825 75.2758 30.9214C75.5118 30.9602 75.7084 31.0379 75.9444 31.0768C76.1017 31.1156 76.2984 31.1933 76.495 31.271C76.6917 31.3487 76.8883 31.4652 77.0456 31.6206C77.2029 31.776 77.3603 31.9314 77.4782 32.1644C77.5962 32.3587 77.6356 32.6306 77.6356 32.9414C77.6356 33.2521 77.5962 33.524 77.4782 33.7571C77.3603 33.9902 77.2029 34.2233 77.0063 34.3787C76.8096 34.534 76.5343 34.6894 76.259 34.7671C75.9837 34.8448 75.6298 34.9225 75.3152 34.9225C75.1972 34.9225 75.0399 34.9225 74.8825 34.8836C74.7252 34.8448 74.5286 34.806 74.3713 34.7283C74.1746 34.6506 73.978 34.534 73.7813 34.4175C73.5847 34.301 73.3881 34.1067 73.1914 33.8737L73.742 33.291C73.8207 33.3687 73.8993 33.4852 74.0173 33.5629C74.1353 33.6794 74.2533 33.7571 74.3713 33.8348C74.4893 33.9125 74.6466 33.9902 74.8432 34.029C75.0005 34.0679 75.1972 34.1067 75.3938 34.1067C75.7871 34.1067 76.1411 33.9902 76.4557 33.796C76.731 33.6017 76.8883 33.291 76.8883 32.9025C76.8883 32.6694 76.849 32.4752 76.731 32.3198C76.613 32.1644 76.495 32.0479 76.3377 31.9314C76.1804 31.8537 75.9838 31.7371 75.7478 31.6983C75.5118 31.6206 75.3152 31.5817 75.0792 31.5041C74.9219 31.4652 74.7646 31.3875 74.5679 31.3098C74.3713 31.2321 74.2139 31.1156 74.0173 30.9991C73.86 30.8437 73.7027 30.6883 73.5847 30.4552C73.4667 30.2221 73.4274 29.9891 73.4274 29.6395C73.4274 29.4452 73.4667 29.2121 73.5454 29.0179C73.624 28.8237 73.742 28.6295 73.9387 28.4352C74.096 28.2798 74.3319 28.1245 74.6072 28.0079C74.8825 27.8914 75.1972 27.8525 75.5511 27.8525C75.8658 27.8525 76.2197 27.8914 76.5737 28.0079C76.9276 28.1245 77.2816 28.3187 77.6356 28.6295L77.0456 29.3675Z" fill="#292929"/>
<path d="M78.8149 31.4661C78.8149 30.9999 78.8936 30.5338 79.0902 30.1065C79.2869 29.6792 79.5229 29.3296 79.8375 29.0188C80.1521 28.708 80.5454 28.4749 80.9387 28.2807C81.3713 28.0865 81.8039 28.0088 82.3152 28.0088C82.7871 28.0088 83.2591 28.0865 83.6917 28.2807C84.1243 28.4749 84.4783 28.708 84.7929 29.0188C85.1076 29.3296 85.3829 29.718 85.5402 30.1065C85.7368 30.5338 85.8155 30.9999 85.8155 31.4661C85.8155 31.9322 85.7368 32.3984 85.5402 32.8257C85.3435 33.253 85.1076 33.6026 84.7929 33.9522C84.4783 34.263 84.085 34.5349 83.6917 34.6903C83.2591 34.8845 82.8265 34.9622 82.3152 34.9622C81.8433 34.9622 81.3713 34.8845 80.9387 34.6903C80.5061 34.4961 80.1521 34.263 79.8375 33.9522C79.5229 33.6414 79.2869 33.253 79.0902 32.8257C78.8936 32.3984 78.8149 31.9322 78.8149 31.4661ZM79.6408 31.4661C79.6408 31.8545 79.7195 32.2041 79.8375 32.5149C79.9948 32.8645 80.1521 33.1364 80.4274 33.3695C80.6634 33.6026 80.9387 33.7968 81.2533 33.9522C81.568 34.1076 81.9219 34.1853 82.2759 34.1853C82.6692 34.1853 82.9838 34.1076 83.3378 33.9522C83.6524 33.7968 83.9277 33.6026 84.1637 33.3695C84.3996 33.1364 84.5963 32.8257 84.7143 32.5149C84.8716 32.2041 84.9109 31.8157 84.9109 31.4661C84.9109 31.0776 84.8322 30.728 84.7143 30.4172C84.5569 30.0676 84.3996 29.7957 84.1637 29.5626C83.9277 29.3295 83.6524 29.1353 83.2984 28.9799C82.9838 28.8246 82.6298 28.7469 82.2759 28.7469C81.9219 28.7469 81.568 28.8246 81.2533 28.9799C80.9387 29.1353 80.6634 29.3295 80.4274 29.5626C80.1915 29.7957 79.9948 30.1065 79.8375 30.4172C79.7195 30.728 79.6408 31.0776 79.6408 31.4661Z" fill="#292929"/>
<path d="M90.8499 28.8625C90.6532 28.7848 90.4959 28.7848 90.2993 28.7848C90.024 28.7848 89.7487 28.8625 89.4734 28.9791C89.2374 29.1345 89.0014 29.2898 88.8048 29.5229C88.6081 29.756 88.4508 30.0279 88.3328 30.3387C88.2148 30.6494 88.1755 30.9991 88.1755 31.3487V34.7283H87.3496V28.0856H88.1362V29.4841H88.1755C88.3721 28.9402 88.6868 28.5518 89.1194 28.2798C89.5914 28.0079 90.1026 27.8525 90.6926 27.8525C90.7712 27.8525 90.8499 27.8525 90.8892 27.8525C90.9679 27.8525 91.0072 27.8525 91.0858 27.8914L90.8499 28.8625Z" fill="#292929"/>
<path d="M93.6814 25.9102L93.0521 26.6094L92.4229 25.9102L93.0521 25.2109L93.6814 25.9102ZM92.6981 34.767V28.1244H93.5241V34.767H92.6981Z" fill="#292929"/>
<path d="M98.8333 34.2234C99.3052 34.2234 99.6985 34.1068 100.092 33.9126C100.485 33.6795 100.8 33.4076 101.036 33.058H101.98C101.822 33.3299 101.665 33.6018 101.429 33.8349C101.193 34.068 100.957 34.2622 100.682 34.4564C100.406 34.6118 100.131 34.7672 99.8165 34.8449C99.5019 34.9226 99.1872 35.0003 98.8333 35.0003C98.3613 35.0003 97.8894 34.9226 97.4568 34.7284C97.0241 34.5341 96.6702 34.3011 96.3556 33.9903C96.0409 33.6795 95.805 33.2911 95.6083 32.8638C95.4117 32.4365 95.333 32.0092 95.333 31.5042C95.333 31.038 95.4117 30.5719 95.569 30.1446C95.7263 29.7172 95.9623 29.3676 96.2769 29.0569C96.5915 28.7461 96.9455 28.513 97.3388 28.3188C97.7321 28.1246 98.204 28.0469 98.676 28.0469C99.2266 28.0469 99.6985 28.1246 100.131 28.3188C100.564 28.513 100.918 28.7461 101.232 29.0569C101.508 29.3676 101.744 29.7561 101.901 30.1446C102.058 30.5719 102.137 31.038 102.137 31.5042H96.1589C96.1589 31.8926 96.2376 32.2422 96.3556 32.553C96.5129 32.9026 96.6702 33.1745 96.9455 33.4076C97.1815 33.6407 97.4568 33.8349 97.7714 33.9903C98.1254 34.1457 98.44 34.2234 98.8333 34.2234ZM101.193 30.7272C101.154 30.4553 101.075 30.1834 100.918 29.9503C100.76 29.7172 100.603 29.4842 100.406 29.3288C100.21 29.1346 99.9345 29.018 99.6592 28.9015C99.3839 28.7849 99.0692 28.7461 98.7153 28.7461C98.4007 28.7461 98.1253 28.7849 97.85 28.9015C97.5747 29.018 97.3388 29.1346 97.1421 29.3288C96.9455 29.523 96.7488 29.7172 96.5915 29.9503C96.4342 30.1834 96.3162 30.4553 96.2376 30.7272H101.193Z" fill="#292929"/>
<path d="M107.132 29.3675C106.974 29.2121 106.817 29.0956 106.66 29.0179C106.502 28.9402 106.345 28.8625 106.227 28.8237C106.07 28.7848 105.952 28.746 105.834 28.746C105.716 28.746 105.598 28.7071 105.519 28.7071C105.283 28.7071 105.086 28.746 104.89 28.8237C104.732 28.9014 104.575 28.9791 104.497 29.0568C104.379 29.1733 104.3 29.2898 104.261 29.4064C104.221 29.5229 104.182 29.6783 104.182 29.7948C104.182 30.0279 104.221 30.2221 104.339 30.3775C104.457 30.5329 104.575 30.6494 104.772 30.7271C104.929 30.8048 105.126 30.8825 105.362 30.9214C105.598 30.9602 105.794 31.0379 106.03 31.0768C106.188 31.1156 106.384 31.1933 106.581 31.271C106.778 31.3487 106.974 31.4652 107.132 31.6206C107.289 31.776 107.446 31.9314 107.564 32.1644C107.682 32.3587 107.721 32.6306 107.721 32.9414C107.721 33.2521 107.682 33.524 107.564 33.7571C107.446 33.9902 107.289 34.2233 107.092 34.3787C106.896 34.534 106.62 34.6894 106.345 34.7671C106.07 34.8448 105.716 34.9225 105.401 34.9225C105.283 34.9225 105.126 34.9225 104.968 34.8836C104.811 34.8448 104.615 34.806 104.457 34.7283C104.261 34.6506 104.064 34.534 103.867 34.4175C103.671 34.301 103.474 34.1067 103.277 33.8737L103.828 33.291C103.907 33.3687 103.985 33.4852 104.103 33.5629C104.221 33.6794 104.339 33.7571 104.457 33.8348C104.575 33.9125 104.733 33.9902 104.929 34.029C105.086 34.0679 105.283 34.1067 105.48 34.1067C105.873 34.1067 106.227 33.9902 106.542 33.796C106.817 33.6017 106.974 33.291 106.974 32.9025C106.974 32.6694 106.935 32.4752 106.817 32.3198C106.699 32.1644 106.581 32.0479 106.424 31.9314C106.266 31.8537 106.07 31.7371 105.834 31.6983C105.598 31.6206 105.401 31.5817 105.165 31.5041C105.008 31.4652 104.85 31.3875 104.654 31.3098C104.457 31.2321 104.3 31.1156 104.103 30.9991C103.946 30.8437 103.789 30.6883 103.671 30.4552C103.553 30.2221 103.513 29.9891 103.513 29.6395C103.513 29.4452 103.553 29.2121 103.631 29.0179C103.71 28.8237 103.828 28.6295 104.025 28.4352C104.182 28.2798 104.418 28.1245 104.693 28.0079C104.968 27.8914 105.283 27.8525 105.637 27.8525C105.952 27.8525 106.306 27.8914 106.66 28.0079C107.014 28.1245 107.368 28.3187 107.721 28.6295L107.132 29.3675Z" fill="#292929"/>
</svg>
