<svg width="195" height="46" viewBox="0 0 195 46" fill="none" xmlns="http://www.w3.org/2000/svg">
<path d="M18.6104 21.4797L14.6224 13.4695H5.98191L2.0451 21.4797H0L10.3789 0.612305H10.43L20.8089 21.4797H18.6104ZM13.651 11.5817L10.2766 4.79599L6.9022 11.5817H13.651Z" fill="#292929"/>
<path d="M24.5923 2.9082H26.4329V6.58169H30.4719V8.26537H26.4329V17.5511C26.4329 17.8062 26.4329 18.1123 26.484 18.4185C26.5351 18.7246 26.6374 19.0307 26.7908 19.2858C26.9441 19.5409 27.1998 19.796 27.5577 19.9491C27.9156 20.1021 28.4268 20.2042 29.0915 20.2042C29.296 20.2042 29.5005 20.2042 29.705 20.1532C29.9095 20.1021 30.1652 20.0001 30.4719 19.847V21.5817C29.9095 21.7858 29.296 21.8879 28.6313 21.8879C28.0689 21.8879 27.5577 21.8369 27.0464 21.6838C26.5351 21.5307 26.1261 21.2756 25.7682 20.9695C25.4103 20.6124 25.1035 20.2042 24.899 19.643C24.6945 19.1328 24.5923 18.4695 24.5923 17.7042V8.31639H23.0073L23.0584 6.63271H24.6434V2.9082H24.5923Z" fill="#292929"/>
<path d="M34.1533 2.9082H35.9939V6.58169H40.033V8.26537H35.9939V17.5511C35.9939 17.8062 35.9939 18.1123 36.045 18.4185C36.0962 18.7246 36.1984 19.0307 36.3518 19.2858C36.5052 19.5409 36.7608 19.796 37.1187 19.9491C37.4766 20.1021 37.9879 20.2042 38.6525 20.2042C38.857 20.2042 39.0615 20.2042 39.266 20.1532C39.4706 20.1021 39.7262 20.0001 40.033 19.847V21.5817C39.4706 21.7858 38.857 21.8879 38.1924 21.8879C37.63 21.8879 37.1187 21.8369 36.6074 21.6838C36.0961 21.5307 35.6871 21.2756 35.3292 20.9695C34.9713 20.6124 34.6646 20.2042 34.4601 19.643C34.2556 19.1328 34.1533 18.4695 34.1533 17.7042V8.31639H32.5684L32.6195 6.63271H34.2044V2.9082H34.1533Z" fill="#292929"/>
<path d="M50.9739 8.21415C50.5648 8.06109 50.1558 8.01007 49.7468 8.01007C49.1333 8.01007 48.5197 8.16313 47.9573 8.46926C47.3949 8.77538 46.8837 9.18355 46.4235 9.74477C45.9634 10.255 45.6055 10.9183 45.3498 11.6325C45.0942 12.3468 44.9408 13.1121 44.9408 13.9285V21.5305H43.1514V6.63252H44.8897V9.7958H44.992C45.401 8.62232 46.1168 7.70395 47.0882 7.04069C48.1107 6.37742 49.2867 6.07129 50.5648 6.07129C50.7182 6.07129 50.8716 6.07129 51.025 6.07129C51.1784 6.07129 51.3318 6.07129 51.4851 6.12231L50.9739 8.21415Z" fill="#292929"/>
<path d="M57.2628 1.53062L55.8824 3.06124L54.502 1.53062L55.8824 0L57.2628 1.53062ZM55.0132 21.4797V6.58166H56.8538V21.4797H55.0132Z" fill="#292929"/>
<path d="M63.705 9.43933L63.8072 9.38831C64.2163 8.77606 64.6764 8.21484 65.1877 7.80668C65.699 7.39851 66.2102 7.04136 66.7726 6.83728C67.335 6.58218 67.8463 6.42912 68.4087 6.32707C68.92 6.22503 69.4313 6.17401 69.8914 6.17401C71.0162 6.17401 72.0388 6.3781 72.9591 6.78626C73.8793 7.19443 74.6974 7.75565 75.362 8.46994C76.0267 9.18423 76.538 10.0006 76.947 10.9189C77.3049 11.8373 77.5094 12.8067 77.5094 13.8271C77.5094 14.9496 77.3049 16.021 76.8959 16.9904C76.4868 17.9598 75.9244 18.8271 75.2087 19.5414C74.4929 20.2557 73.6748 20.8169 72.7034 21.2251C71.732 21.6333 70.7094 21.8373 69.6358 21.8373C68.6644 21.8373 67.6929 21.6843 66.7726 21.3271C65.8523 20.97 65.0343 20.4088 64.3185 19.6945C63.6027 18.9802 63.0403 18.0618 62.5802 16.9394C62.12 15.8169 61.9155 14.5414 61.9155 13.0108V0.306641H63.7561V9.43933H63.705ZM69.8403 7.85769C69.0222 7.85769 68.2042 8.01076 67.4884 8.31688C66.7726 8.62301 66.108 9.03117 65.5456 9.5924C64.9832 10.1536 64.5742 10.8169 64.2163 11.5822C63.9095 12.3475 63.705 13.1638 63.705 14.0822C63.705 14.7965 63.8584 15.5108 64.114 16.2761C64.3696 16.9904 64.7787 17.6537 65.2899 18.2149C65.8012 18.7761 66.4147 19.2353 67.1305 19.6435C67.8463 20.0006 68.6644 20.2047 69.5335 20.2047C70.5049 20.2047 71.3741 20.0006 72.141 19.6435C72.9079 19.2353 73.5215 18.7761 73.9816 18.1639C74.4929 17.5516 74.8508 16.8883 75.1064 16.1741C75.362 15.4598 75.4643 14.6945 75.4643 13.9802C75.4643 13.1638 75.3109 12.3985 75.0553 11.6842C74.7485 10.9699 74.3906 10.3067 73.8793 9.74545C73.3681 9.18423 72.7545 8.72505 72.0388 8.41892C71.4252 8.01076 70.6583 7.85769 69.8403 7.85769Z" fill="#292929"/>
<path d="M82.6729 6.58177V16.1226C82.6729 16.3777 82.6729 16.7349 82.724 17.1941C82.7752 17.6532 82.9285 18.1124 83.1331 18.5206C83.3376 18.9798 83.6955 19.3369 84.1556 19.6941C84.6158 20.0002 85.2804 20.2043 86.1496 20.2043C87.2232 20.2043 88.0924 20.0002 88.7059 19.541C89.3195 19.0818 89.7796 18.5206 90.1375 17.8573C90.4443 17.1941 90.6488 16.4288 90.751 15.6124C90.8533 14.7961 90.9044 14.0308 90.9044 13.3165V6.58177H92.745V21.4798H90.9044V19.2349H90.8533C90.4954 19.8471 90.1375 20.3063 89.6774 20.6635C89.2172 21.0206 88.7571 21.2757 88.348 21.4288C87.8879 21.5818 87.4789 21.7349 87.0699 21.7349C86.6608 21.7859 86.3029 21.7859 86.0473 21.7859C85.8939 21.7859 85.6894 21.7859 85.3827 21.7349C85.0759 21.7349 84.718 21.6329 84.3601 21.5308C83.9511 21.4288 83.5932 21.2757 83.1842 21.0206C82.7752 20.8165 82.4173 20.5104 82.0594 20.1022C81.7015 19.6941 81.4458 19.2349 81.2413 18.6226C81.0368 18.0104 80.9346 17.2961 80.9346 16.4288V6.42871H82.6729V6.58177Z" fill="#292929"/>
<path d="M97.6533 2.9082H99.4939V6.58169H103.533V8.26537H99.4939V17.5511C99.4939 17.8062 99.4939 18.1123 99.545 18.4185C99.5961 18.7246 99.6984 19.0307 99.8518 19.2858C100.005 19.5409 100.261 19.796 100.619 19.9491C100.977 20.1021 101.488 20.2042 102.153 20.2042C102.357 20.2042 102.562 20.2042 102.766 20.1532C102.971 20.1021 103.226 20.0001 103.533 19.847V21.5817C102.971 21.7858 102.357 21.8879 101.692 21.8879C101.13 21.8879 100.619 21.8369 100.107 21.6838C99.5961 21.5307 99.1871 21.2756 98.8292 20.9695C98.4713 20.6124 98.1646 20.2042 97.9601 19.643C97.7556 19.1328 97.6533 18.4695 97.6533 17.7042V8.31639H96.0684L96.1195 6.63271H97.7044V2.9082H97.6533Z" fill="#292929"/>
<path d="M113.503 20.1537C114.525 20.1537 115.446 19.8986 116.315 19.4394C117.184 18.9292 117.849 18.317 118.411 17.5006H120.507C120.2 18.1129 119.791 18.7251 119.28 19.2353C118.769 19.7455 118.258 20.2558 117.644 20.6129C117.03 21.0211 116.417 21.2762 115.701 21.4802C114.985 21.6843 114.27 21.7864 113.503 21.7864C112.429 21.7864 111.406 21.5823 110.486 21.1741C109.515 20.766 108.697 20.2047 107.981 19.4904C107.265 18.7762 106.703 17.9598 106.294 16.9904C105.885 16.021 105.68 15.0517 105.68 13.9802C105.68 12.9088 105.885 11.8884 106.243 10.919C106.6 9.94959 107.163 9.13326 107.828 8.41897C108.492 7.70469 109.31 7.14346 110.231 6.73529C111.151 6.32713 112.122 6.12305 113.196 6.12305C114.423 6.12305 115.497 6.32713 116.417 6.73529C117.388 7.14346 118.155 7.70469 118.82 8.41897C119.485 9.13326 119.996 9.94959 120.303 10.919C120.661 11.8884 120.814 12.9088 120.814 13.9802H107.521C107.521 14.7965 107.674 15.6129 107.981 16.3782C108.288 17.1435 108.748 17.8068 109.259 18.317C109.77 18.8782 110.435 19.3374 111.151 19.6435C111.918 20.0007 112.685 20.1537 113.503 20.1537ZM118.769 12.3476C118.667 11.6843 118.462 11.1231 118.155 10.5618C117.849 10.0006 117.439 9.54142 116.979 9.13326C116.519 8.72509 115.957 8.41897 115.292 8.16387C114.627 7.95979 113.963 7.80673 113.196 7.80673C112.531 7.80673 111.867 7.90877 111.304 8.16387C110.742 8.36795 110.179 8.72509 109.719 9.13326C109.259 9.54142 108.85 10.0006 108.543 10.5618C108.185 11.1231 107.93 11.6843 107.776 12.3476H118.769Z" fill="#292929"/>
<path d="M140.14 9.33735C139.783 9.03122 139.476 8.77612 139.118 8.57204C138.76 8.36796 138.453 8.21489 138.146 8.11285C137.84 8.01081 137.533 7.95979 137.277 7.90877C137.022 7.85775 136.766 7.85774 136.562 7.85774C136.05 7.85774 135.59 7.90877 135.181 8.06183C134.823 8.21489 134.516 8.41897 134.261 8.62305C134.056 8.82714 133.852 9.13326 133.75 9.38836C133.647 9.69449 133.596 10.0006 133.596 10.2557C133.596 10.8169 133.698 11.2251 133.954 11.5823C134.21 11.8884 134.516 12.1435 134.874 12.3476C135.283 12.5516 135.692 12.7047 136.204 12.8067C136.715 12.9088 137.175 13.0618 137.686 13.2149C138.044 13.3169 138.453 13.47 138.862 13.6231C139.322 13.7761 139.731 14.0312 140.089 14.3884C140.447 14.6945 140.754 15.1027 141.01 15.5619C141.265 16.021 141.368 16.6333 141.368 17.3476C141.368 18.0108 141.214 18.6231 140.958 19.1843C140.703 19.7455 140.345 20.2047 139.885 20.5619C139.425 20.97 138.862 21.2251 138.198 21.4292C137.533 21.6333 136.817 21.7353 136.05 21.7353C135.795 21.7353 135.437 21.7354 135.079 21.6843C134.721 21.6333 134.312 21.5313 133.903 21.3782C133.494 21.2251 133.034 20.97 132.625 20.6639C132.165 20.3578 131.756 19.9496 131.295 19.4904L132.471 18.2149C132.625 18.419 132.829 18.6231 133.034 18.8782C133.238 19.0823 133.545 19.3374 133.801 19.4904C134.107 19.6945 134.465 19.8476 134.823 19.9496C135.232 20.0517 135.641 20.1027 136.101 20.1027C136.971 20.1027 137.789 19.8476 138.402 19.3884C139.067 18.9292 139.374 18.2659 139.374 17.3986C139.374 16.8884 139.271 16.4292 139.016 16.0721C138.811 15.7149 138.504 15.4598 138.095 15.2047C137.737 15.0006 137.277 14.7966 136.817 14.6945C136.306 14.5414 135.846 14.3884 135.334 14.2353C134.977 14.1333 134.619 13.9802 134.21 13.8272C133.801 13.6741 133.392 13.419 132.983 13.1129C132.625 12.8067 132.267 12.3986 132.011 11.8884C131.756 11.3782 131.602 10.8169 131.602 10.1027C131.602 9.64347 131.704 9.13326 131.909 8.67408C132.113 8.21489 132.369 7.75571 132.778 7.39856C133.187 6.9904 133.647 6.68427 134.261 6.48019C134.823 6.22509 135.539 6.12305 136.357 6.12305C137.073 6.12305 137.84 6.22509 138.658 6.48019C139.476 6.73529 140.243 7.19448 141.061 7.90877L140.14 9.33735Z" fill="#292929"/>
<path d="M145.048 21.4802V0.306641H146.889V8.41892H146.94C147.298 7.90872 147.707 7.55157 148.116 7.24545C148.576 6.93932 148.985 6.73524 149.394 6.58218C149.803 6.42912 150.212 6.32708 150.621 6.27606C151.03 6.22504 151.388 6.22504 151.644 6.22504C152.36 6.22504 153.024 6.32708 153.638 6.53116C154.251 6.73524 154.814 7.04137 155.274 7.50055C155.734 7.90872 156.143 8.41893 156.399 9.08219C156.705 9.69444 156.808 10.4087 156.808 11.2251V21.5312H155.12V11.8373C155.12 11.021 155.018 10.4087 154.763 9.89852C154.507 9.38831 154.2 8.98015 153.842 8.72504C153.484 8.41892 153.075 8.21484 152.615 8.1128C152.155 8.01076 151.746 7.95973 151.388 7.95973C150.775 7.95973 150.161 8.06178 149.599 8.26586C149.036 8.46994 148.576 8.77607 148.167 9.18423C147.758 9.5924 147.451 10.0516 147.196 10.5618C146.991 11.072 146.838 11.6842 146.838 12.2965V21.5822H145.048V21.4802Z" fill="#292929"/>
<path d="M160.335 14.031C160.335 12.9596 160.54 11.9392 160.949 10.9698C161.358 10.0004 161.92 9.18404 162.636 8.46976C163.352 7.75547 164.17 7.19425 165.141 6.78608C166.062 6.37792 167.084 6.17383 168.158 6.17383C169.232 6.17383 170.254 6.37792 171.174 6.78608C172.095 7.19425 172.964 7.75547 173.68 8.46976C174.395 9.18404 174.958 10.0004 175.367 10.9698C175.776 11.9392 175.98 12.9596 175.98 14.031C175.98 15.1024 175.776 16.1228 175.367 17.0412C174.958 17.9596 174.395 18.8269 173.68 19.5412C172.964 20.2555 172.146 20.8167 171.174 21.2249C170.203 21.6331 169.232 21.8372 168.158 21.8372C167.084 21.8372 166.062 21.6331 165.141 21.2249C164.17 20.8167 163.352 20.2555 162.636 19.5412C161.92 18.8269 161.358 18.0106 160.949 17.0412C160.54 16.1228 160.335 15.1024 160.335 14.031ZM162.227 14.031C162.227 14.8473 162.381 15.6637 162.687 16.429C162.994 17.1943 163.454 17.8576 163.965 18.3678C164.477 18.929 165.141 19.3882 165.857 19.6943C166.573 20.0004 167.34 20.2045 168.158 20.2045C168.976 20.2045 169.743 20.0514 170.459 19.6943C171.174 19.3882 171.788 18.929 172.35 18.3678C172.862 17.8065 173.322 17.1433 173.629 16.429C173.935 15.6637 174.089 14.8984 174.089 14.082C174.089 13.2657 173.935 12.4494 173.629 11.6841C173.322 10.9187 172.913 10.2555 172.35 9.74527C171.839 9.18404 171.174 8.72486 170.459 8.41874C169.743 8.11262 168.976 7.90853 168.158 7.90853C167.34 7.90853 166.573 8.0616 165.857 8.41874C165.141 8.72486 164.528 9.18404 163.965 9.74527C163.454 10.3065 162.994 10.9698 162.687 11.6841C162.381 12.3473 162.227 13.1637 162.227 14.031Z" fill="#292929"/>
<path d="M181.196 6.58199V9.59222H181.298C182.014 8.46976 182.832 7.60241 183.854 7.04118C184.877 6.47996 186.002 6.17383 187.331 6.17383C188.507 6.17383 189.58 6.37792 190.501 6.78608C191.472 7.19425 192.239 7.75547 192.904 8.41874C193.568 9.13303 194.08 9.94935 194.438 10.9187C194.795 11.8881 195 12.9086 195 14.031C195 15.2045 194.795 16.2249 194.386 17.1943C193.977 18.1637 193.466 18.98 192.75 19.6433C192.086 20.3576 191.268 20.8678 190.347 21.2759C189.427 21.6841 188.456 21.8372 187.382 21.8372C186.871 21.8372 186.308 21.7861 185.746 21.6841C185.184 21.5821 184.621 21.378 184.059 21.1739C183.496 20.9188 182.985 20.6127 182.474 20.2045C181.962 19.7963 181.553 19.3372 181.144 18.7759H181.196V27.0413H179.355V6.58199H181.196ZM187.177 7.85751C186.308 7.85751 185.49 8.01057 184.774 8.36772C184.059 8.72486 183.394 9.18404 182.883 9.74527C182.371 10.3065 181.962 10.9698 181.656 11.7351C181.349 12.5004 181.196 13.2657 181.196 14.082C181.196 14.9494 181.349 15.7657 181.707 16.531C182.065 17.2963 182.525 17.9086 183.087 18.4698C183.65 18.98 184.314 19.4392 185.081 19.6943C185.848 20.0004 186.564 20.1535 187.382 20.1535C188.2 20.1535 188.916 20.0004 189.632 19.7453C190.347 19.4392 190.961 19.031 191.472 18.5208C191.983 18.0106 192.392 17.3473 192.699 16.582C193.006 15.8167 193.159 15.0004 193.159 14.082C193.159 13.1637 193.006 12.2963 192.699 11.531C192.392 10.7657 191.983 10.1024 191.472 9.54119C190.961 8.97996 190.296 8.5718 189.58 8.26568C188.865 8.01057 188.047 7.85751 187.177 7.85751Z" fill="#292929"/>
<path d="M51.4852 37.2453C51.792 37.1433 52.1499 37.0412 52.5589 36.9392C52.9679 36.8372 53.4281 36.7861 53.8882 36.7861C54.6551 36.7861 55.2686 36.8882 55.6777 37.1433C56.0867 37.3984 56.3934 37.6535 56.598 37.9596C56.8025 38.2657 56.9047 38.5719 56.9558 38.878C57.007 39.1841 57.007 39.3882 57.007 39.4902V45.6637H55.9844V44.6433H55.9333C55.6265 45.1025 55.2686 45.4596 54.8085 45.6127C54.3484 45.8168 53.8882 45.8678 53.4281 45.8678C53.019 45.8678 52.61 45.8168 52.201 45.6637C51.792 45.5107 51.4852 45.3066 51.1784 45.0515C50.8717 44.7964 50.6672 44.4392 50.4627 44.0311C50.3093 43.6229 50.207 43.2147 50.207 42.7045C50.207 42.1943 50.3093 41.7351 50.4627 41.378C50.6672 40.9698 50.8717 40.6637 51.1784 40.4086C51.4852 40.1535 51.8431 39.9494 52.201 39.7964C52.5589 39.6433 52.9679 39.5923 53.3769 39.5923C53.7859 39.5923 54.195 39.6943 54.6551 39.8474C55.1153 40.0004 55.5243 40.3066 55.831 40.7147H55.8822V39.3882C55.8822 38.878 55.6777 38.4698 55.3198 38.1637C54.9619 37.8576 54.4506 37.7045 53.786 37.7045C53.3769 37.7045 52.9679 37.7555 52.5589 37.8576C52.1499 37.9596 51.792 38.1127 51.4852 38.2147L50.9739 38.4188L51.4852 37.2453ZM53.5303 40.6127C53.1724 40.6127 52.8657 40.6637 52.61 40.7657C52.3544 40.8678 52.0987 41.0209 51.9454 41.2249C51.7409 41.429 51.6386 41.6331 51.5363 41.8882C51.4341 42.1433 51.383 42.3984 51.383 42.6535C51.383 42.9086 51.4341 43.1637 51.5363 43.4698C51.6386 43.7249 51.792 43.98 51.9454 44.1841C52.1499 44.3882 52.3544 44.5923 52.6611 44.6943C52.9679 44.8474 53.2747 44.8984 53.6837 44.8984C54.0416 44.8984 54.3995 44.8474 54.7062 44.6943C55.013 44.5923 55.2175 44.4392 55.422 44.2351C55.6265 44.0311 55.7799 43.827 55.8822 43.5719C55.9844 43.3168 56.0356 43.0617 56.0356 42.7556C56.0356 42.5004 55.9844 42.2453 55.8822 41.9902C55.7799 41.7351 55.6265 41.48 55.422 41.2759C55.2175 41.0719 54.9619 40.9188 54.6551 40.7657C54.2972 40.6637 53.9393 40.6127 53.5303 40.6127Z" fill="#292929"/>
<path d="M66.0054 38.6734C65.2896 38.0612 64.4716 37.755 63.5513 37.755C63.0912 37.755 62.631 37.8571 62.222 38.0101C61.813 38.1632 61.4551 38.4183 61.1483 38.7244C60.8416 39.0306 60.5859 39.3877 60.3814 39.8469C60.1769 40.3061 60.1258 40.7653 60.1258 41.3265C60.1258 41.7857 60.1769 42.1938 60.3303 42.653C60.4837 43.0612 60.6882 43.4694 60.9949 43.8265C61.3017 44.1836 61.6596 44.4387 62.0686 44.6428C62.5288 44.8469 63.04 44.9489 63.6024 44.9489C64.5227 44.9489 65.2897 44.6428 65.9543 44.0306L66.619 44.8469C66.3122 45.102 66.0566 45.2551 65.7498 45.4081C65.4942 45.5612 65.1874 45.6632 64.9318 45.7653C64.6761 45.8673 64.4205 45.9183 64.216 45.9183C63.9603 45.9183 63.7558 45.9694 63.6024 45.9694C62.8355 45.9694 62.1709 45.8163 61.6085 45.5612C61.0461 45.3061 60.5348 44.949 60.1769 44.4898C59.819 44.0816 59.5123 43.5714 59.3077 43.0102C59.1032 42.4489 59.001 41.9387 59.001 41.3775C59.001 40.7653 59.1032 40.204 59.3589 39.6428C59.6145 39.0816 59.9213 38.6224 60.3303 38.2142C60.7393 37.8061 61.1995 37.4489 61.813 37.2448C62.3754 36.9897 62.9889 36.8877 63.6536 36.8877C64.3182 36.8877 64.9318 36.9897 65.3919 37.1938C65.9032 37.3979 66.3122 37.653 66.6701 37.9591L66.0054 38.6734Z" fill="#292929"/>
<path d="M75.2086 38.6734C74.4928 38.0612 73.6747 37.755 72.7544 37.755C72.2943 37.755 71.8342 37.8571 71.4251 38.0101C71.0161 38.1632 70.6582 38.4183 70.3515 38.7244C70.0447 39.0306 69.7891 39.3877 69.5845 39.8469C69.38 40.3061 69.3289 40.7653 69.3289 41.3265C69.3289 41.7857 69.38 42.1938 69.5334 42.653C69.6868 43.0612 69.8913 43.4694 70.1981 43.8265C70.5048 44.1836 70.8627 44.4387 71.2717 44.6428C71.7319 44.8469 72.2432 44.9489 72.8056 44.9489C73.7259 44.9489 74.4928 44.6428 75.1574 44.0306L75.8221 44.8469C75.5153 45.102 75.2597 45.2551 74.9529 45.4081C74.6973 45.5612 74.3905 45.6632 74.1349 45.7653C73.8792 45.8673 73.6236 45.9183 73.4191 45.9183C73.1635 45.9183 72.959 45.9694 72.8056 45.9694C72.0387 45.9694 71.374 45.8163 70.8116 45.5612C70.2492 45.3061 69.7379 44.949 69.38 44.4898C69.0221 44.0816 68.7154 43.5714 68.5109 43.0102C68.3064 42.4489 68.2041 41.9387 68.2041 41.3775C68.2041 40.7653 68.3064 40.204 68.562 39.6428C68.8176 39.0816 69.1244 38.6224 69.5334 38.2142C69.9424 37.8061 70.4026 37.4489 71.0161 37.2448C71.5785 36.9897 72.192 36.8877 72.8567 36.8877C73.5214 36.8877 74.1349 36.9897 74.595 37.1938C75.1063 37.3979 75.5153 37.653 75.8732 37.9591L75.2086 38.6734Z" fill="#292929"/>
<path d="M81.9571 44.9492C82.5706 44.9492 83.0819 44.7961 83.5932 44.541C84.1044 44.2349 84.5135 43.8778 84.8202 43.4186H86.0473C85.8428 43.7757 85.6383 44.1329 85.3315 44.439C85.0247 44.7451 84.718 45.0002 84.3601 45.2553C84.0022 45.4594 83.6443 45.6635 83.2353 45.7655C82.8262 45.8676 82.4172 45.9696 81.9571 45.9696C81.3435 45.9696 80.73 45.8676 80.1676 45.6125C79.6052 45.3574 79.1451 45.0512 78.7361 44.6431C78.327 44.2349 78.0203 43.7247 77.7646 43.1635C77.509 42.6022 77.4067 42.041 77.4067 41.3777C77.4067 40.7655 77.509 40.1533 77.7135 39.592C77.918 39.0308 78.2248 38.5716 78.6338 38.1635C79.0428 37.7553 79.503 37.4492 80.0142 37.1941C80.5255 36.939 81.139 36.8369 81.7526 36.8369C82.4684 36.8369 83.0819 36.939 83.6443 37.1941C84.2067 37.4492 84.6668 37.7553 85.0759 38.1635C85.4337 38.5716 85.7405 39.0818 85.945 39.592C86.1495 40.1533 86.2518 40.7655 86.2518 41.3777H78.4804C78.4804 41.888 78.5827 42.3471 78.7361 42.7553C78.9406 43.2145 79.1451 43.5716 79.503 43.8778C79.8097 44.1839 80.1676 44.439 80.5766 44.6431C81.0368 44.8472 81.4969 44.9492 81.9571 44.9492ZM85.0759 40.3573C85.0247 40.0002 84.9225 39.643 84.718 39.3369C84.5134 39.0308 84.3089 38.7247 84.0533 38.5206C83.7977 38.2655 83.4398 38.1124 83.0819 37.9594C82.724 37.8063 82.315 37.7553 81.8548 37.7553C81.4458 37.7553 81.0879 37.8063 80.73 37.9594C80.3721 38.1124 80.0654 38.2655 79.8097 38.5206C79.5541 38.7757 79.2984 39.0308 79.0939 39.3369C78.8894 39.643 78.736 40.0002 78.6338 40.3573H85.0759Z" fill="#292929"/>
<path d="M92.7961 38.5718C92.5916 38.3677 92.3871 38.2147 92.1826 38.1126C91.9781 38.0106 91.7736 37.9086 91.6202 37.8575C91.4157 37.8065 91.2623 37.7555 91.1089 37.7555C90.9555 37.7555 90.8022 37.7045 90.6999 37.7045C90.3931 37.7045 90.1375 37.7555 89.8819 37.8575C89.6774 37.9596 89.4729 38.0616 89.3706 38.1637C89.2172 38.3167 89.115 38.4698 89.0638 38.6229C89.0127 38.7759 88.9616 38.98 88.9616 39.1331C88.9616 39.4392 89.0127 39.6943 89.1661 39.8984C89.3195 40.1025 89.4729 40.2555 89.7285 40.3576C89.933 40.4596 90.1886 40.5616 90.4954 40.6127C90.8022 40.6637 91.0578 40.7657 91.3646 40.8167C91.5691 40.8678 91.8247 40.9698 92.0804 41.0718C92.336 41.1739 92.5916 41.3269 92.7961 41.531C93.0007 41.7351 93.2052 41.9392 93.3585 42.2453C93.5119 42.5004 93.5631 42.8576 93.5631 43.2657C93.5631 43.6739 93.5119 44.031 93.3585 44.3372C93.2052 44.6433 93.0006 44.9494 92.745 45.1535C92.4894 45.3576 92.1315 45.5617 91.7736 45.6637C91.4157 45.7657 90.9556 45.8678 90.5465 45.8678C90.3932 45.8678 90.1886 45.8678 89.9841 45.8168C89.7796 45.7657 89.524 45.7147 89.3195 45.6127C89.0638 45.5106 88.8082 45.3576 88.5526 45.2045C88.2969 45.0514 88.0413 44.7963 87.7856 44.4902L88.5014 43.7249C88.6037 43.827 88.7059 43.98 88.8593 44.0821C89.0127 44.2351 89.1661 44.3372 89.3195 44.4392C89.4728 44.5412 89.6774 44.6433 89.933 44.6943C90.1375 44.7453 90.3931 44.7964 90.6488 44.7964C91.1601 44.7964 91.6202 44.6433 92.0292 44.3882C92.3871 44.1331 92.5916 43.7249 92.5916 43.2147C92.5916 42.9086 92.5405 42.6535 92.3871 42.4494C92.2337 42.2453 92.0803 42.0923 91.8758 41.9392C91.6713 41.8372 91.4157 41.6841 91.1089 41.6331C90.8022 41.531 90.5465 41.48 90.2398 41.378C90.0353 41.3269 89.8307 41.2249 89.5751 41.1229C89.3195 41.0208 89.115 40.8678 88.8593 40.7147C88.6548 40.5106 88.4503 40.3065 88.2969 40.0004C88.1435 39.6943 88.0924 39.3882 88.0924 38.929C88.0924 38.6739 88.1435 38.3678 88.2458 38.1126C88.3481 37.8575 88.5014 37.6024 88.7571 37.3473C88.9616 37.1433 89.2683 36.9392 89.6262 36.7861C89.9841 36.633 90.3931 36.582 90.8533 36.582C91.2623 36.582 91.7225 36.633 92.1826 36.7861C92.6428 36.9392 93.1029 37.1943 93.5631 37.6024L92.7961 38.5718Z" fill="#292929"/>
<path d="M100.158 38.5718C99.9539 38.3677 99.7494 38.2147 99.5449 38.1126C99.3404 38.0106 99.1359 37.9086 98.9825 37.8575C98.778 37.8065 98.6246 37.7555 98.4712 37.7555C98.3178 37.7555 98.1645 37.7045 98.0622 37.7045C97.7554 37.7045 97.4998 37.7555 97.2442 37.8575C97.0397 37.9596 96.8351 38.0616 96.7329 38.1637C96.5795 38.3167 96.4773 38.4698 96.4261 38.6229C96.375 38.7759 96.3239 38.98 96.3239 39.1331C96.3239 39.4392 96.375 39.6943 96.5284 39.8984C96.6818 40.1025 96.8351 40.2555 97.0908 40.3576C97.2953 40.4596 97.5509 40.5616 97.8577 40.6127C98.1645 40.6637 98.4201 40.7657 98.7269 40.8167C98.9314 40.8678 99.187 40.9698 99.4426 41.0718C99.6983 41.1739 99.9539 41.3269 100.158 41.531C100.363 41.7351 100.567 41.9392 100.721 42.2453C100.874 42.5004 100.925 42.8576 100.925 43.2657C100.925 43.6739 100.874 44.031 100.721 44.3372C100.567 44.6433 100.363 44.9494 100.107 45.1535C99.8517 45.3576 99.4938 45.5617 99.1359 45.6637C98.778 45.7657 98.3178 45.8678 97.9088 45.8678C97.7554 45.8678 97.5509 45.8678 97.3464 45.8168C97.1419 45.7657 96.8863 45.7147 96.6818 45.6127C96.4261 45.5106 96.1705 45.3576 95.9149 45.2045C95.6592 45.0514 95.4036 44.7963 95.1479 44.4902L95.8637 43.7249C95.966 43.827 96.0682 43.98 96.2216 44.0821C96.375 44.2351 96.5284 44.3372 96.6818 44.4392C96.8352 44.5412 97.0397 44.6433 97.2953 44.6943C97.4998 44.7453 97.7554 44.7964 98.0111 44.7964C98.5223 44.7964 98.9825 44.6433 99.3915 44.3882C99.7494 44.1331 99.9539 43.7249 99.9539 43.2147C99.9539 42.9086 99.9028 42.6535 99.7494 42.4494C99.596 42.2453 99.4427 42.0923 99.2381 41.9392C99.0336 41.8372 98.778 41.6841 98.4712 41.6331C98.1645 41.531 97.9088 41.48 97.6021 41.378C97.3975 41.3269 97.193 41.2249 96.9374 41.1229C96.6818 41.0208 96.4772 40.8678 96.2216 40.7147C96.0171 40.5106 95.8126 40.3065 95.6592 40.0004C95.5058 39.6943 95.4547 39.3882 95.4547 38.929C95.4547 38.6739 95.5058 38.3678 95.6081 38.1126C95.7103 37.8575 95.8637 37.6024 96.1194 37.3473C96.3239 37.1433 96.6306 36.9392 96.9885 36.7861C97.3464 36.633 97.7554 36.582 98.2156 36.582C98.6246 36.582 99.0847 36.633 99.5449 36.7861C100.005 36.9392 100.465 37.1943 100.925 37.6024L100.158 38.5718Z" fill="#292929"/>
<path d="M102.459 41.327C102.459 40.7147 102.561 40.1025 102.817 39.5413C103.073 38.98 103.379 38.5208 103.788 38.1127C104.197 37.7045 104.709 37.3984 105.22 37.1433C105.782 36.8882 106.345 36.7861 107.009 36.7861C107.623 36.7861 108.236 36.8882 108.799 37.1433C109.361 37.3984 109.821 37.7045 110.23 38.1127C110.639 38.5208 110.997 39.031 111.202 39.5413C111.457 40.1025 111.56 40.7147 111.56 41.327C111.56 41.9392 111.457 42.5515 111.202 43.1127C110.946 43.6739 110.639 44.1331 110.23 44.5923C109.821 45.0005 109.31 45.3576 108.799 45.5617C108.236 45.8168 107.674 45.9188 107.009 45.9188C106.396 45.9188 105.782 45.8168 105.22 45.5617C104.657 45.3066 104.197 45.0005 103.788 44.5923C103.379 44.1841 103.073 43.6739 102.817 43.1127C102.561 42.5515 102.459 41.9392 102.459 41.327ZM103.533 41.327C103.533 41.8372 103.635 42.2964 103.788 42.7045C103.993 43.1637 104.197 43.5209 104.555 43.827C104.862 44.1331 105.22 44.3882 105.629 44.5923C106.038 44.7964 106.498 44.8984 106.958 44.8984C107.469 44.8984 107.878 44.7964 108.339 44.5923C108.748 44.3882 109.106 44.1331 109.412 43.827C109.719 43.5209 109.975 43.1127 110.128 42.7045C110.333 42.2964 110.384 41.7862 110.384 41.327C110.384 40.8168 110.281 40.3576 110.128 39.9494C109.924 39.4902 109.719 39.1331 109.412 38.827C109.106 38.5208 108.748 38.2657 108.288 38.0616C107.878 37.8576 107.418 37.7555 106.958 37.7555C106.498 37.7555 106.038 37.8576 105.629 38.0616C105.22 38.2657 104.862 38.5208 104.555 38.827C104.248 39.1331 103.993 39.5413 103.788 39.9494C103.635 40.3576 103.533 40.8168 103.533 41.327Z" fill="#292929"/>
<path d="M118.104 37.9086C117.848 37.8065 117.644 37.8065 117.388 37.8065C117.03 37.8065 116.672 37.9086 116.315 38.0616C116.008 38.2657 115.701 38.4698 115.445 38.7759C115.19 39.082 114.985 39.4392 114.832 39.8473C114.679 40.2555 114.627 40.7147 114.627 41.1739V45.6127H113.554V36.8882H114.576V38.7249H114.627C114.883 38.0106 115.292 37.5004 115.854 37.1433C116.468 36.7861 117.133 36.582 117.9 36.582C118.002 36.582 118.104 36.582 118.155 36.582C118.257 36.582 118.309 36.582 118.411 36.6331L118.104 37.9086Z" fill="#292929"/>
<path d="M121.785 34.0307L120.967 34.949L120.149 34.0307L120.967 33.1123L121.785 34.0307ZM120.507 45.6634V36.9389H121.581V45.6634H120.507Z" fill="#292929"/>
<path d="M128.483 44.9492C129.096 44.9492 129.608 44.7961 130.119 44.541C130.63 44.2349 131.039 43.8778 131.346 43.4186H132.573C132.369 43.7757 132.164 44.1329 131.857 44.439C131.551 44.7451 131.244 45.0002 130.886 45.2553C130.528 45.4594 130.17 45.6635 129.761 45.7655C129.352 45.8676 128.943 45.9696 128.483 45.9696C127.869 45.9696 127.256 45.8676 126.693 45.6125C126.131 45.3574 125.671 45.0512 125.262 44.6431C124.853 44.2349 124.546 43.7247 124.291 43.1635C124.035 42.6022 123.933 42.041 123.933 41.3777C123.933 40.7655 124.035 40.1533 124.239 39.592C124.444 39.0308 124.751 38.5716 125.16 38.1635C125.569 37.7553 126.029 37.4492 126.54 37.1941C127.051 36.939 127.665 36.8369 128.278 36.8369C128.994 36.8369 129.608 36.939 130.17 37.1941C130.733 37.4492 131.193 37.7553 131.602 38.1635C131.96 38.5716 132.266 39.0818 132.471 39.592C132.675 40.1533 132.778 40.7655 132.778 41.3777H125.006C125.006 41.888 125.109 42.3471 125.262 42.7553C125.466 43.2145 125.671 43.5716 126.029 43.8778C126.336 44.1839 126.694 44.439 127.103 44.6431C127.563 44.8472 127.972 44.9492 128.483 44.9492ZM131.551 40.3573C131.499 40.0002 131.397 39.643 131.193 39.3369C130.988 39.0308 130.784 38.7247 130.528 38.5206C130.272 38.2655 129.915 38.1124 129.557 37.9594C129.199 37.8063 128.79 37.7553 128.33 37.7553C127.921 37.7553 127.563 37.8063 127.205 37.9594C126.847 38.1124 126.54 38.2655 126.284 38.5206C126.029 38.7757 125.773 39.0308 125.569 39.3369C125.364 39.643 125.211 40.0002 125.109 40.3573H131.551Z" fill="#292929"/>
<path d="M139.271 38.5718C139.067 38.3677 138.862 38.2147 138.658 38.1126C138.453 38.0106 138.249 37.9086 138.095 37.8575C137.891 37.8065 137.737 37.7555 137.584 37.7555C137.431 37.7555 137.277 37.7045 137.175 37.7045C136.868 37.7045 136.613 37.7555 136.357 37.8575C136.152 37.9596 135.948 38.0616 135.846 38.1637C135.692 38.3167 135.59 38.4698 135.539 38.6229C135.488 38.7759 135.437 38.98 135.437 39.1331C135.437 39.4392 135.488 39.6943 135.641 39.8984C135.795 40.1025 135.948 40.2555 136.204 40.3576C136.408 40.4596 136.664 40.5616 136.97 40.6127C137.277 40.6637 137.533 40.7657 137.84 40.8167C138.044 40.8678 138.3 40.9698 138.555 41.0718C138.811 41.1739 139.067 41.3269 139.271 41.531C139.476 41.7351 139.68 41.9392 139.834 42.2453C139.987 42.5004 140.038 42.8576 140.038 43.2657C140.038 43.6739 139.987 44.031 139.834 44.3372C139.68 44.6433 139.476 44.9494 139.22 45.1535C138.964 45.3576 138.607 45.5617 138.249 45.6637C137.891 45.7657 137.431 45.8678 137.022 45.8678C136.868 45.8678 136.664 45.8678 136.459 45.8168C136.255 45.7657 135.999 45.7147 135.795 45.6127C135.539 45.5106 135.283 45.3576 135.028 45.2045C134.772 45.0514 134.516 44.7963 134.261 44.4902L134.977 43.7249C135.079 43.827 135.181 43.98 135.334 44.0821C135.488 44.2351 135.641 44.3372 135.795 44.4392C135.948 44.5412 136.152 44.6433 136.408 44.6943C136.613 44.7453 136.868 44.7964 137.124 44.7964C137.635 44.7964 138.095 44.6433 138.504 44.3882C138.862 44.1331 139.067 43.7249 139.067 43.2147C139.067 42.9086 139.016 42.6535 138.862 42.4494C138.709 42.2453 138.555 42.0923 138.351 41.9392C138.146 41.8372 137.891 41.6841 137.584 41.6331C137.277 41.531 137.022 41.48 136.715 41.378C136.51 41.3269 136.306 41.2249 136.05 41.1229C135.795 41.0208 135.59 40.8678 135.334 40.7147C135.13 40.5106 134.925 40.3065 134.772 40.0004C134.619 39.6943 134.567 39.3882 134.567 38.929C134.567 38.6739 134.619 38.3678 134.721 38.1126C134.823 37.8575 134.977 37.6024 135.232 37.3473C135.437 37.1433 135.743 36.9392 136.101 36.7861C136.459 36.633 136.868 36.582 137.328 36.582C137.737 36.582 138.198 36.633 138.658 36.7861C139.118 36.9392 139.578 37.1943 140.038 37.6024L139.271 38.5718Z" fill="#292929"/>
</svg>
