<svg width="15" height="15" viewBox="0 0 15 15" fill="none" xmlns="http://www.w3.org/2000/svg">
<path d="M9.35599 0.832706C9.37744 0.752511 9.42986 0.684118 9.50173 0.642571C9.5736 0.601023 9.65903 0.589724 9.73923 0.611158C10.8537 0.910848 11.8698 1.49812 12.6859 2.31416C13.5019 3.13019 14.0892 4.14633 14.3889 5.26078C14.4 5.30067 14.4032 5.34239 14.3982 5.38351C14.3931 5.42463 14.3799 5.46435 14.3594 5.50034C14.3389 5.53634 14.3114 5.5679 14.2786 5.59321C14.2458 5.61851 14.2083 5.63705 14.1683 5.64775C14.1283 5.65845 14.0865 5.6611 14.0455 5.65554C14.0044 5.64999 13.9649 5.63633 13.9291 5.61538C13.8934 5.59442 13.8622 5.56658 13.8373 5.53346C13.8124 5.50035 13.7943 5.46262 13.7841 5.42246C13.513 4.41421 12.9817 3.49489 12.2434 2.75662C11.5051 2.01835 10.5858 1.48705 9.57754 1.21594C9.49735 1.19449 9.42896 1.14207 9.38741 1.0702C9.34586 0.998333 9.33456 0.912905 9.35599 0.832706ZM8.92925 3.63536C9.51297 3.79234 10.0452 4.09995 10.4726 4.52737C10.9 4.9548 11.2076 5.48703 11.3646 6.07075C11.3749 6.1108 11.393 6.14841 11.418 6.1814C11.4429 6.21439 11.4741 6.24212 11.5098 6.26298C11.5455 6.28384 11.585 6.29741 11.626 6.30292C11.667 6.30844 11.7086 6.30577 11.7486 6.29509C11.7885 6.2844 11.826 6.26591 11.8587 6.24067C11.8915 6.21544 11.9189 6.18396 11.9395 6.14806C11.96 6.11216 11.9732 6.07255 11.9783 6.03152C11.9835 5.99049 11.9804 5.94884 11.9693 5.90899C11.7838 5.21908 11.4203 4.59002 10.9151 4.08485C10.4099 3.57967 9.78085 3.21611 9.09093 3.03058C9.05104 3.01939 9.00933 3.01623 8.96821 3.02128C8.92708 3.02634 8.88737 3.0395 8.85138 3.06002C8.81538 3.08053 8.78382 3.10799 8.75851 3.1408C8.73321 3.1736 8.71467 3.21111 8.70397 3.25113C8.69327 3.29116 8.69062 3.33291 8.69618 3.37397C8.70173 3.41503 8.71538 3.45457 8.73634 3.49031C8.7573 3.52605 8.78514 3.55728 8.81826 3.58218C8.85137 3.60708 8.8891 3.62515 8.92925 3.63536ZM14.9933 11.4453C14.867 12.4271 14.3876 13.3294 13.6447 13.9835C12.9017 14.6377 11.946 14.999 10.9561 15C4.91492 15 0 10.0851 0 4.04387C0.000973711 3.054 0.362263 2.09834 1.01638 1.35539C1.6705 0.612445 2.57271 0.133028 3.55448 0.00669233C3.75618 -0.0174939 3.96028 0.0242616 4.13627 0.125714C4.31226 0.227167 4.45068 0.382865 4.53083 0.569524L6.10312 4.23795C6.16429 4.38027 6.18923 4.53554 6.17571 4.68986C6.16219 4.84418 6.11063 4.99275 6.02564 5.12227L4.72374 7.11159C4.69427 7.15572 4.67669 7.20672 4.67271 7.25964C4.66874 7.31257 4.6785 7.36562 4.70104 7.41366C5.3206 8.67755 6.34539 9.69769 7.61209 10.3115C7.66041 10.3339 7.71372 10.3434 7.7668 10.339C7.81989 10.3346 7.87093 10.3166 7.91495 10.2866L9.87422 8.98008C10.0041 8.89317 10.1536 8.84015 10.3093 8.82586C10.4649 8.81156 10.6216 8.83643 10.7651 8.89822L14.4306 10.4692C14.6172 10.5493 14.7728 10.6877 14.8742 10.8637C14.9757 11.0396 15.0175 11.2436 14.9933 11.4453ZM14.1838 11.0445L10.5185 9.47365C10.4707 9.45306 10.4184 9.44477 10.3665 9.44953C10.3146 9.45429 10.2648 9.47194 10.2215 9.50088L8.26226 10.8074C8.12754 10.8976 7.9717 10.9513 7.81001 10.9632C7.64831 10.9751 7.4863 10.9448 7.33983 10.8753C5.94682 10.2001 4.81984 9.07822 4.13845 7.68827C4.06853 7.54267 4.03745 7.38154 4.04822 7.22037C4.059 7.05921 4.11127 6.90358 4.19996 6.76858L5.50186 4.7795C5.53019 4.7363 5.54737 4.68676 5.55188 4.63531C5.55639 4.58385 5.54808 4.53208 5.52769 4.48462L3.9554 0.816194C3.93159 0.760097 3.89192 0.712169 3.84127 0.678291C3.79061 0.644414 3.73117 0.626059 3.67023 0.625479C3.6578 0.625466 3.64538 0.62625 3.63306 0.627827C2.8024 0.734759 2.03908 1.14045 1.48571 1.7691C0.932336 2.39775 0.626759 3.20636 0.626065 4.04387C0.626065 9.73988 5.26012 14.3739 10.9561 14.3739C11.7936 14.3732 12.6023 14.0676 13.2309 13.5142C13.8595 12.9608 14.2652 12.1975 14.3721 11.3669C14.3797 11.3 14.3655 11.2325 14.3316 11.1744C14.2976 11.1163 14.2458 11.0707 14.1838 11.0445Z" fill="#292929"/>
</svg>
