<svg width="15" height="15" viewBox="0 0 15 15" fill="none" xmlns="http://www.w3.org/2000/svg">
<path d="M7.49995 0C6.18691 0.000344467 4.89696 0.345287 3.75902 1.00035C2.62109 1.65541 1.67502 2.59765 1.01538 3.7329C0.355748 4.86814 0.00564491 6.15662 6.76931e-05 7.46956C-0.00550953 8.7825 0.333634 10.0739 0.983602 11.2147L0.30823 13.5782C0.264153 13.7326 0.262144 13.8958 0.302412 14.0512C0.342679 14.2065 0.423758 14.3483 0.537248 14.4618C0.650737 14.5753 0.792508 14.6563 0.947869 14.6966C1.10323 14.7368 1.26653 14.7348 1.42085 14.6907L3.78461 14.0155C4.78256 14.5844 5.89786 14.9165 7.04449 14.9862C8.19112 15.0559 9.33843 14.8613 10.3979 14.4174C11.4574 13.9735 12.4008 13.2922 13.1553 12.426C13.9098 11.5599 14.4553 10.532 14.7496 9.42166C15.044 8.31134 15.0793 7.14825 14.8529 6.0221C14.6266 4.89596 14.1445 3.83685 13.444 2.92647C12.7435 2.01609 11.8433 1.27877 10.8127 0.771371C9.78207 0.263975 8.64869 6.65553e-05 7.49995 0ZM7.49995 14.399C6.26073 14.3998 5.04422 14.0665 3.97856 13.434C3.94343 13.4131 3.90438 13.3996 3.86383 13.3943C3.82328 13.3891 3.78208 13.3922 3.74276 13.4034L1.256 14.1139C1.20456 14.1285 1.15014 14.1292 1.09836 14.1158C1.04658 14.1023 0.999332 14.0753 0.961512 14.0375C0.923692 13.9997 0.896673 13.9524 0.883256 13.9006C0.869839 13.8489 0.870511 13.7944 0.885203 13.743L1.5956 11.2565C1.60683 11.2172 1.60991 11.176 1.60465 11.1354C1.59939 11.0949 1.5859 11.0558 1.565 11.0207C0.78784 9.71145 0.465542 8.18194 0.648313 6.67043C0.831084 5.15893 1.50866 3.7503 2.57549 2.66399C3.64233 1.57769 5.03851 0.87469 6.54654 0.664519C8.05458 0.454348 9.58979 0.748803 10.913 1.50201C12.2363 2.25522 13.2732 3.4249 13.8624 4.82882C14.4515 6.23275 14.5597 7.79209 14.1702 9.26394C13.7807 10.7358 12.9153 12.0375 11.7088 12.9663C10.5024 13.8951 9.02256 14.3988 7.49995 14.399ZM11.2883 8.8901L9.75383 8.01334C9.61501 7.93411 9.4576 7.89325 9.29776 7.89495C9.13793 7.89665 8.98142 7.94085 8.84431 8.02301L7.80879 8.64427C7.18195 8.32668 6.67273 7.81747 6.35515 7.19065L6.97645 6.15519C7.05861 6.01809 7.1028 5.86159 7.10448 5.70176C7.10617 5.54194 7.06529 5.38454 6.98605 5.24573L6.1093 3.71134C6.0377 3.58642 5.93442 3.4826 5.80988 3.41034C5.68534 3.33808 5.54394 3.29994 5.39996 3.29977C4.76504 3.29992 4.15605 3.55158 3.70626 3.99965C3.25646 4.44773 3.00251 5.05574 2.99997 5.6906C2.99879 6.51862 3.16088 7.33875 3.47695 8.10407C3.79302 8.8694 4.25688 9.56491 4.842 10.1508C5.42711 10.7368 6.122 11.2016 6.88692 11.5187C7.65184 11.8359 8.47179 11.9991 9.29986 11.9992H9.30886C9.94378 11.9966 10.5518 11.7427 11 11.2929C11.4481 10.8432 11.6998 10.2342 11.6999 9.59933C11.6998 9.45536 11.6616 9.31397 11.5894 9.18945C11.5171 9.06493 11.4133 8.96167 11.2883 8.8901ZM9.30804 11.3992H9.29994C8.55073 11.3992 7.80887 11.2515 7.1168 10.9646C6.42472 10.6776 5.796 10.2571 5.26661 9.72699C4.73721 9.19688 4.31752 8.56762 4.03154 7.87518C3.74557 7.18275 3.59891 6.44073 3.59996 5.69158C3.60203 5.21559 3.79259 4.75981 4.12993 4.42399C4.46728 4.08817 4.92394 3.89966 5.39996 3.89973C5.43819 3.89977 5.47574 3.9099 5.50882 3.92908C5.54189 3.94827 5.56933 3.97583 5.58835 4.00899L6.4651 5.54346C6.49151 5.58973 6.50514 5.64218 6.50459 5.69545C6.50403 5.74872 6.48932 5.80088 6.46195 5.84659L5.7577 7.02011C5.7328 7.0616 5.71831 7.1085 5.71546 7.1568C5.71261 7.20511 5.7215 7.25339 5.74135 7.29751C6.13292 8.16891 6.83052 8.86644 7.70199 9.25795C7.74612 9.27782 7.7944 9.28671 7.84271 9.28386C7.89103 9.28102 7.93793 9.26652 7.97942 9.2416L9.15294 8.5374C9.19865 8.51002 9.25083 8.4953 9.30411 8.49473C9.3574 8.49416 9.40987 8.50778 9.45616 8.53418L10.9907 9.41102C11.0238 9.43002 11.0514 9.45743 11.0706 9.4905C11.0898 9.52356 11.0999 9.5611 11.0999 9.59933C11.1 10.0753 10.9115 10.5319 10.5757 10.8692C10.2398 11.2066 9.78404 11.3971 9.30804 11.3992Z" fill="#292929"/>
</svg>
