<svg width="717" height="296" viewBox="0 0 717 296" fill="none" xmlns="http://www.w3.org/2000/svg">
<g filter="url(#filter0_d)">
<path d="M231.382 204.171H194.252V252.088H142.791V204.171H20V168.641L127.483 23.9116H182.852L83.1867 161.144H144.419V118.442H194.252V161.144H231.382V204.171Z" fill="#F7F7F7"/>
<path d="M344.875 256C325.984 256 309.156 251.328 294.391 241.983C279.626 232.639 268.009 219.166 259.541 201.564C251.289 183.744 247.164 162.556 247.164 138C247.164 113.444 251.289 92.3646 259.541 74.7624C268.009 56.9429 279.626 43.3609 294.391 34.0166C309.156 24.6722 325.984 20 344.875 20C363.766 20 380.594 24.6722 395.359 34.0166C410.125 43.3609 421.633 56.9429 429.884 74.7624C438.353 92.3646 442.587 113.444 442.587 138C442.587 162.556 438.353 183.744 429.884 201.564C421.633 219.166 410.125 232.639 395.359 241.983C380.594 251.328 363.766 256 344.875 256ZM344.875 211.343C358.772 211.343 369.629 205.366 377.446 193.414C385.48 181.462 389.497 162.991 389.497 138C389.497 113.009 385.48 94.5377 377.446 82.5856C369.629 70.6335 358.772 64.6574 344.875 64.6574C331.196 64.6574 320.339 70.6335 312.305 82.5856C304.488 94.5377 300.579 113.009 300.579 138C300.579 162.991 304.488 181.462 312.305 193.414C320.339 205.366 331.196 211.343 344.875 211.343Z" fill="#F7F7F7"/>
<path d="M677 204.171H639.87V252.088H588.408V204.171H465.618V168.641L573.1 23.9116H628.47L528.804 161.144H590.037V118.442H639.87V161.144H677V204.171Z" fill="#F7F7F7"/>
</g>
<defs>
<filter id="filter0_d" x="0" y="0" width="717" height="296" filterUnits="userSpaceOnUse" color-interpolation-filters="sRGB">
<feFlood flood-opacity="0" result="BackgroundImageFix"/>
<feColorMatrix in="SourceAlpha" type="matrix" values="0 0 0 0 0 0 0 0 0 0 0 0 0 0 0 0 0 0 127 0"/>
<feOffset dx="10" dy="10"/>
<feGaussianBlur stdDeviation="15"/>
<feColorMatrix type="matrix" values="0 0 0 0 0.35 0 0 0 0 0.35 0 0 0 0 0.35 0 0 0 0.25 0"/>
<feBlend mode="normal" in2="BackgroundImageFix" result="effect1_dropShadow"/>
<feBlend mode="normal" in="SourceGraphic" in2="effect1_dropShadow" result="shape"/>
</filter>
</defs>
</svg>
