<svg width="369" height="172" viewBox="0 0 369 172" fill="none" xmlns="http://www.w3.org/2000/svg">
<g filter="url(#filter0_d)">
<path d="M120.704 107.403H103.015V130.144H78.4985V107.403H20V90.5414L71.2056 21.8563H97.5842L50.1027 86.9834H79.2743V66.7182H103.015V86.9834H120.704V107.403Z" fill="#F7F7F7"/>
<path d="M174.773 132C165.773 132 157.756 129.783 150.722 125.348C143.688 120.913 138.153 114.519 134.119 106.166C130.188 97.709 128.223 87.6538 128.223 76C128.223 64.3462 130.188 54.3425 134.119 45.9889C138.153 37.5322 143.688 31.0865 150.722 26.6519C157.756 22.2173 165.773 20 174.773 20C183.773 20 191.79 22.2173 198.824 26.6519C205.859 31.0865 211.341 37.5322 215.272 45.9889C219.306 54.3425 221.324 64.3462 221.324 76C221.324 87.6538 219.306 97.709 215.272 106.166C211.341 114.519 205.859 120.913 198.824 125.348C191.79 129.783 183.773 132 174.773 132ZM174.773 110.807C181.394 110.807 186.566 107.971 190.29 102.298C194.117 96.6262 196.031 87.86 196.031 76C196.031 64.14 194.117 55.3738 190.29 49.7017C186.566 44.0295 181.394 41.1934 174.773 41.1934C168.256 41.1934 163.084 44.0295 159.256 49.7017C155.532 55.3738 153.67 64.14 153.67 76C153.67 87.86 155.532 96.6262 159.256 102.298C163.084 107.971 168.256 110.807 174.773 110.807Z" fill="#F7F7F7"/>
<path d="M333 107.403H315.311V130.144H290.794V107.403H232.296V90.5414L283.501 21.8563H309.88L262.398 86.9834H291.57V66.7182H315.311V86.9834H333V107.403Z" fill="#F7F7F7"/>
</g>
<defs>
<filter id="filter0_d" x="0" y="0" width="373" height="172" filterUnits="userSpaceOnUse" color-interpolation-filters="sRGB">
<feFlood flood-opacity="0" result="BackgroundImageFix"/>
<feColorMatrix in="SourceAlpha" type="matrix" values="0 0 0 0 0 0 0 0 0 0 0 0 0 0 0 0 0 0 127 0"/>
<feOffset dx="10" dy="10"/>
<feGaussianBlur stdDeviation="15"/>
<feColorMatrix type="matrix" values="0 0 0 0 0.35 0 0 0 0 0.35 0 0 0 0 0.35 0 0 0 0.25 0"/>
<feBlend mode="normal" in2="BackgroundImageFix" result="effect1_dropShadow"/>
<feBlend mode="normal" in="SourceGraphic" in2="effect1_dropShadow" result="shape"/>
</filter>
</defs>
</svg>
