<svg width="154" height="8" viewBox="0 0 154 8" fill="none" xmlns="http://www.w3.org/2000/svg">
<path d="M1.05096 6.56354L0 4.62983L1.05096 2.69613H2.30754L1.21089 4.62983L2.30754 6.56354H1.05096ZM3.24426 6.56354L2.1933 4.62983L3.24426 2.69613H4.50084L3.40419 4.62983L4.50084 6.56354H3.24426Z" fill="#D7BFA9"/>
<path d="M12.2032 0L9.59865 5.64641C9.35495 6.16943 9.10744 6.60773 8.85612 6.96133C8.61242 7.30755 8.32303 7.56906 7.98794 7.74586C7.65285 7.91529 7.22638 8 6.70852 8C6.49528 8 6.29346 7.98527 6.10307 7.9558C5.9203 7.92633 5.75275 7.88582 5.60044 7.83425V6.85083C5.75275 6.91713 5.91649 6.97238 6.09165 7.01657C6.26681 7.05341 6.44958 7.07182 6.63997 7.07182C7.06645 7.07182 7.40154 6.98343 7.64524 6.80663C7.89655 6.62983 8.12883 6.31676 8.34207 5.8674L5.20062 0H6.33154L8.60481 4.34254C8.64289 4.41621 8.68858 4.51197 8.74189 4.62983C8.7952 4.74033 8.84089 4.84715 8.87897 4.95028H8.92467C8.95513 4.86924 8.99321 4.77348 9.0389 4.66298C9.08459 4.54512 9.12267 4.44936 9.15314 4.37569L11.118 0H12.2032Z" fill="#D7BFA9"/>
<path d="M18.3493 1.96685V7.8895H17.344V2.79558H14.1797V7.8895H13.1745V1.96685H18.3493Z" fill="#D7BFA9"/>
<path d="M22.759 8C22.2183 8 21.7347 7.89319 21.3082 7.67956C20.8894 7.46593 20.5581 7.13444 20.3144 6.68508C20.0783 6.23573 19.9603 5.66114 19.9603 4.96133C19.9603 4.23204 20.0859 3.63904 20.3372 3.18232C20.5886 2.7256 20.9274 2.39042 21.3539 2.1768C21.788 1.96317 22.2792 1.85635 22.8275 1.85635C23.1398 1.85635 23.4406 1.8895 23.73 1.9558C24.0194 2.01473 24.2555 2.0884 24.4383 2.1768L24.1298 2.98343C23.947 2.91713 23.7338 2.85451 23.4901 2.79558C23.2464 2.73665 23.0179 2.70718 22.8047 2.70718C21.6014 2.70718 20.9998 3.45488 20.9998 4.95028C20.9998 5.66482 21.1445 6.21363 21.4339 6.59668C21.7309 6.97238 22.1688 7.16022 22.7476 7.16022C23.0827 7.16022 23.3759 7.12707 23.6272 7.06077C23.8861 6.99448 24.1222 6.91344 24.3354 6.81768V7.67956C24.1298 7.78269 23.9014 7.86004 23.65 7.9116C23.4063 7.97053 23.1093 8 22.759 8Z" fill="#D7BFA9"/>
<path d="M27.3109 0.209945L27.1624 5.56906H26.0772L25.9287 0.209945H27.3109ZM26.6598 7.96685C26.4237 7.96685 26.2257 7.8895 26.0657 7.73481C25.9058 7.58011 25.8258 7.38858 25.8258 7.16022C25.8258 6.93186 25.9058 6.74033 26.0657 6.58564C26.2257 6.43094 26.4237 6.35359 26.6598 6.35359C26.8882 6.35359 27.0824 6.43094 27.2424 6.58564C27.4023 6.74033 27.4823 6.93186 27.4823 7.16022C27.4823 7.38858 27.4023 7.58011 27.2424 7.73481C27.0824 7.8895 26.8882 7.96685 26.6598 7.96685Z" fill="#D7BFA9"/>
<path d="M38.3237 7.8895H37.2956V4.65193C36.8539 4.79926 36.4389 4.92081 36.0505 5.01657C35.6697 5.10497 35.2432 5.14917 34.771 5.14917C34.0095 5.14917 33.4193 4.97974 33.0004 4.64088C32.5815 4.29466 32.3721 3.79742 32.3721 3.14917V0H33.4002V3.00552C33.4002 3.43278 33.5145 3.75322 33.7429 3.96685C33.979 4.17311 34.356 4.27624 34.8739 4.27624C35.3232 4.27624 35.7268 4.23573 36.0847 4.1547C36.4427 4.07366 36.8463 3.96317 37.2956 3.8232V0H38.3237V7.8895Z" fill="#D7BFA9"/>
<path d="M44.6323 2.78453H42.6331V7.8895H41.6393V2.78453H39.6631V1.96685H44.6323V2.78453Z" fill="#D7BFA9"/>
<path d="M51.0502 4.91713C51.0502 5.89687 50.7913 6.65562 50.2734 7.19337C49.7631 7.73112 49.0701 8 48.1943 8C47.6536 8 47.17 7.88214 46.7435 7.64641C46.3247 7.40332 45.9934 7.05341 45.7497 6.59668C45.506 6.1326 45.3841 5.57274 45.3841 4.91713C45.3841 3.93738 45.6393 3.18232 46.1495 2.65193C46.6598 2.12155 47.3528 1.85635 48.2286 1.85635C48.7845 1.85635 49.2719 1.9779 49.6908 2.22099C50.1173 2.45672 50.4485 2.80295 50.6846 3.25967C50.9283 3.70902 51.0502 4.26151 51.0502 4.91713ZM46.4237 4.91713C46.4237 5.61694 46.5646 6.17311 46.8464 6.58564C47.1357 6.99079 47.5927 7.19337 48.2172 7.19337C48.834 7.19337 49.2872 6.99079 49.5766 6.58564C49.866 6.17311 50.0107 5.61694 50.0107 4.91713C50.0107 4.21731 49.866 3.66851 49.5766 3.27072C49.2872 2.87293 48.8302 2.67403 48.2057 2.67403C47.5813 2.67403 47.1281 2.87293 46.8464 3.27072C46.5646 3.66851 46.4237 4.21731 46.4237 4.91713Z" fill="#D7BFA9"/>
<path d="M57.3613 3.35912V4.41989H52.6662V3.35912H57.3613Z" fill="#D7BFA9"/>
<path d="M63.5524 2.78453H61.5532V7.8895H60.5594V2.78453H58.5832V1.96685H63.5524V2.78453Z" fill="#D7BFA9"/>
<path d="M69.9703 4.91713C69.9703 5.89687 69.7113 6.65562 69.1935 7.19337C68.6832 7.73112 67.9902 8 67.1144 8C66.5737 8 66.0901 7.88214 65.6636 7.64641C65.2448 7.40332 64.9135 7.05341 64.6698 6.59668C64.4261 6.1326 64.3043 5.57274 64.3043 4.91713C64.3043 3.93738 64.5594 3.18232 65.0696 2.65193C65.5799 2.12155 66.2729 1.85635 67.1487 1.85635C67.7046 1.85635 68.192 1.9779 68.6109 2.22099C69.0374 2.45672 69.3686 2.80295 69.6047 3.25967C69.8484 3.70902 69.9703 4.26151 69.9703 4.91713ZM65.3438 4.91713C65.3438 5.61694 65.4847 6.17311 65.7665 6.58564C66.0558 6.99079 66.5128 7.19337 67.1373 7.19337C67.7541 7.19337 68.2073 6.99079 68.4967 6.58564C68.7861 6.17311 68.9307 5.61694 68.9307 4.91713C68.9307 4.21731 68.7861 3.66851 68.4967 3.27072C68.2073 2.87293 67.7503 2.67403 67.1258 2.67403C66.5014 2.67403 66.0482 2.87293 65.7665 3.27072C65.4847 3.66851 65.3438 4.21731 65.3438 4.91713Z" fill="#D7BFA9"/>
<path d="M79.7057 1.96685V7.8895H78.7005V2.79558H75.5362V7.8895H74.5309V1.96685H79.7057Z" fill="#D7BFA9"/>
<path d="M86.9828 4.91713C86.9828 5.89687 86.7238 6.65562 86.206 7.19337C85.6957 7.73112 85.0027 8 84.1269 8C83.5862 8 83.1026 7.88214 82.6761 7.64641C82.2573 7.40332 81.926 7.05341 81.6823 6.59668C81.4386 6.1326 81.3167 5.57274 81.3167 4.91713C81.3167 3.93738 81.5718 3.18232 82.0821 2.65193C82.5923 2.12155 83.2854 1.85635 84.1612 1.85635C84.7171 1.85635 85.2045 1.9779 85.6234 2.22099C86.0498 2.45672 86.3811 2.80295 86.6172 3.25967C86.8609 3.70902 86.9828 4.26151 86.9828 4.91713ZM82.3563 4.91713C82.3563 5.61694 82.4971 6.17311 82.7789 6.58564C83.0683 6.99079 83.5253 7.19337 84.1497 7.19337C84.7666 7.19337 85.2197 6.99079 85.5091 6.58564C85.7985 6.17311 85.9432 5.61694 85.9432 4.91713C85.9432 4.21731 85.7985 3.66851 85.5091 3.27072C85.2197 2.87293 84.7628 2.67403 84.1383 2.67403C83.5138 2.67403 83.0607 2.87293 82.7789 3.27072C82.4971 3.66851 82.3563 4.21731 82.3563 4.91713Z" fill="#D7BFA9"/>
<path d="M96.8808 1.96685V7.8895H88.576V1.96685H89.5812V7.07182H92.2201V1.96685H93.2253V7.07182H95.8756V1.96685H96.8808Z" fill="#D7BFA9"/>
<path d="M103.5 7.8895H102.483V2.77348H100.678C100.579 4.01842 100.442 5.02394 100.267 5.79006C100.092 6.5488 99.8597 7.10129 99.5703 7.44751C99.2809 7.79374 98.9154 7.96685 98.4737 7.96685C98.3747 7.96685 98.2757 7.95948 98.1767 7.94475C98.0853 7.93739 98.0091 7.91897 97.9482 7.8895V7.16022C97.9939 7.17495 98.0434 7.186 98.0967 7.19337C98.15 7.20074 98.2033 7.20442 98.2566 7.20442C98.6679 7.20442 98.9954 6.78085 99.2391 5.9337C99.4904 5.08656 99.6808 3.76427 99.8102 1.96685H103.5V7.8895Z" fill="#D7BFA9"/>
<path d="M110.767 4.91713C110.767 5.89687 110.508 6.65562 109.99 7.19337C109.48 7.73112 108.787 8 107.911 8C107.37 8 106.887 7.88214 106.46 7.64641C106.041 7.40332 105.71 7.05341 105.466 6.59668C105.223 6.1326 105.101 5.57274 105.101 4.91713C105.101 3.93738 105.356 3.18232 105.866 2.65193C106.376 2.12155 107.069 1.85635 107.945 1.85635C108.501 1.85635 108.989 1.9779 109.407 2.22099C109.834 2.45672 110.165 2.80295 110.401 3.25967C110.645 3.70902 110.767 4.26151 110.767 4.91713ZM106.14 4.91713C106.14 5.61694 106.281 6.17311 106.563 6.58564C106.852 6.99079 107.309 7.19337 107.934 7.19337C108.551 7.19337 109.004 6.99079 109.293 6.58564C109.583 6.17311 109.727 5.61694 109.727 4.91713C109.727 4.21731 109.583 3.66851 109.293 3.27072C109.004 2.87293 108.547 2.67403 107.922 2.67403C107.298 2.67403 106.845 2.87293 106.563 3.27072C106.281 3.66851 106.14 4.21731 106.14 4.91713Z" fill="#D7BFA9"/>
<path d="M116.333 1.96685V4.43094H119.657V1.96685H120.662V7.8895H119.657V5.24862H116.333V7.8895H115.327V1.96685H116.333Z" fill="#D7BFA9"/>
<path d="M124.966 1.85635C125.491 1.85635 125.94 1.96685 126.314 2.18785C126.694 2.40884 126.984 2.72192 127.182 3.12707C127.387 3.52486 127.49 3.99263 127.49 4.53039V5.11602H123.298C123.313 5.78637 123.488 6.29834 123.823 6.65193C124.166 6.99816 124.642 7.17127 125.251 7.17127C125.64 7.17127 125.982 7.13812 126.279 7.07182C126.584 6.99816 126.896 6.89503 127.216 6.76243V7.61326C126.904 7.74586 126.595 7.84162 126.291 7.90055C125.986 7.96685 125.624 8 125.205 8C124.627 8 124.113 7.88582 123.663 7.65746C123.222 7.4291 122.875 7.09024 122.624 6.64088C122.38 6.18416 122.258 5.62799 122.258 4.97238C122.258 4.32413 122.369 3.76796 122.59 3.30387C122.818 2.83978 123.134 2.48251 123.538 2.23204C123.949 1.98158 124.425 1.85635 124.966 1.85635ZM124.954 2.65193C124.474 2.65193 124.094 2.80295 123.812 3.10497C123.538 3.39963 123.374 3.81215 123.321 4.34254H126.439C126.432 3.84162 126.31 3.43646 126.074 3.12707C125.838 2.81031 125.464 2.65193 124.954 2.65193Z" fill="#D7BFA9"/>
<path d="M136.243 2.78453H134.244V7.8895H133.25V2.78453H131.274V1.96685H136.243V2.78453Z" fill="#D7BFA9"/>
<path d="M139.768 1.8674C140.514 1.8674 141.067 2.02578 141.425 2.34254C141.783 2.6593 141.961 3.1639 141.961 3.85635V7.8895H141.23L141.036 7.04972H140.99C140.724 7.37385 140.442 7.61326 140.145 7.76796C139.856 7.92265 139.452 8 138.934 8C138.378 8 137.918 7.86004 137.552 7.58011C137.186 7.29282 137.004 6.84715 137.004 6.24309C137.004 5.65378 137.244 5.20074 137.723 4.88398C138.203 4.55985 138.942 4.38306 139.94 4.35359L140.979 4.32044V3.96685C140.979 3.4733 140.869 3.13075 140.648 2.93923C140.427 2.7477 140.115 2.65193 139.711 2.65193C139.391 2.65193 139.087 2.69982 138.797 2.79558C138.508 2.88398 138.237 2.98711 137.986 3.10497L137.678 2.37569C137.944 2.23573 138.26 2.11786 138.626 2.0221C138.991 1.91897 139.372 1.8674 139.768 1.8674ZM140.968 4.99448L140.065 5.02762C139.304 5.05709 138.774 5.17495 138.477 5.38122C138.188 5.58748 138.043 5.87845 138.043 6.25414C138.043 6.58564 138.146 6.82873 138.352 6.98343C138.565 7.13812 138.835 7.21547 139.163 7.21547C139.681 7.21547 140.111 7.07919 140.454 6.80663C140.796 6.5267 140.968 6.09945 140.968 5.52486V4.99448Z" fill="#D7BFA9"/>
<path d="M147.474 1.96685H148.57L145.954 4.81768L148.788 7.8895H147.622L144.858 4.88398V7.8895H143.853V1.96685H144.858V4.83978L147.474 1.96685Z" fill="#D7BFA9"/>
<path d="M150.584 4.62983L149.499 2.69613H150.744L151.807 4.62983L150.744 6.56354H149.499L150.584 4.62983ZM152.778 4.62983L151.692 2.69613H152.938L154 4.62983L152.938 6.56354H151.692L152.778 4.62983Z" fill="#D7BFA9"/>
</svg>
