<svg width="323" height="17" viewBox="0 0 323 17" fill="none" xmlns="http://www.w3.org/2000/svg">
<path d="M2.20428 13.9475L0 9.8384L2.20428 5.72928H4.83984L2.53972 9.8384L4.83984 13.9475H2.20428ZM6.80452 13.9475L4.60024 9.8384L6.80452 5.72928H9.44008L7.13996 9.8384L9.44008 13.9475H6.80452Z" fill="#D7BFA9"/>
<path d="M25.595 0L20.1322 11.9986C19.6211 13.11 19.102 14.0414 18.5749 14.7928C18.0637 15.5285 17.4567 16.0843 16.7539 16.4599C16.0511 16.82 15.1566 17 14.0705 17C13.6232 17 13.1999 16.9687 12.8006 16.9061C12.4172 16.8435 12.0658 16.7574 11.7464 16.6478V14.558C12.0658 14.6989 12.4093 14.8163 12.7766 14.9102C13.144 14.9885 13.5274 15.0276 13.9267 15.0276C14.8212 15.0276 15.524 14.8398 16.0351 14.4641C16.5623 14.0884 17.0494 13.4231 17.4967 12.4682L10.9078 0H13.2798L18.0477 9.2279C18.1276 9.38444 18.2235 9.58794 18.3353 9.8384C18.4471 10.0732 18.5429 10.3002 18.6228 10.5193H18.7186C18.7825 10.3471 18.8624 10.1436 18.9582 9.90884C19.0541 9.65838 19.1339 9.45488 19.1978 9.29834L23.3189 0H25.595Z" fill="#D7BFA9"/>
<path d="M38.4858 4.17956V16.7652H36.3774V5.94061H29.7406V16.7652H27.6321V4.17956H38.4858Z" fill="#D7BFA9"/>
<path d="M47.7348 17C46.6007 17 45.5864 16.773 44.6919 16.3191C43.8134 15.8651 43.1186 15.1607 42.6074 14.2058C42.1123 13.2509 41.8647 12.0299 41.8647 10.5428C41.8647 8.99309 42.1283 7.73296 42.6554 6.76243C43.1825 5.7919 43.8933 5.07965 44.7878 4.62569C45.6982 4.17173 46.7285 3.94475 47.8786 3.94475C48.5335 3.94475 49.1644 4.01519 49.7714 4.15608C50.3783 4.28131 50.8735 4.43785 51.2569 4.62569L50.61 6.33978C50.2266 6.1989 49.7794 6.06584 49.2682 5.94061C48.7571 5.81538 48.2779 5.75276 47.8306 5.75276C45.3069 5.75276 44.045 7.34162 44.045 10.5193C44.045 12.0378 44.3485 13.204 44.9555 14.018C45.5784 14.8163 46.4969 15.2155 47.7108 15.2155C48.4137 15.2155 49.0286 15.145 49.5557 15.0041C50.0988 14.8633 50.594 14.6911 51.0412 14.4876V16.3191C50.61 16.5382 50.1308 16.7026 49.6036 16.8122C49.0925 16.9374 48.4696 17 47.7348 17Z" fill="#D7BFA9"/>
<path d="M57.2819 0.446133L56.9705 11.8343H54.6943L54.3828 0.446133H57.2819ZM55.9162 16.9296C55.4211 16.9296 55.0058 16.7652 54.6704 16.4365C54.3349 16.1077 54.1672 15.7007 54.1672 15.2155C54.1672 14.7302 54.3349 14.3232 54.6704 13.9945C55.0058 13.6657 55.4211 13.5014 55.9162 13.5014C56.3954 13.5014 56.8028 13.6657 57.1382 13.9945C57.4736 14.3232 57.6413 14.7302 57.6413 15.2155C57.6413 15.7007 57.4736 16.1077 57.1382 16.4365C56.8028 16.7652 56.3954 16.9296 55.9162 16.9296Z" fill="#D7BFA9"/>
<path d="M80.3803 16.7652H78.2239V9.88536C77.2975 10.1984 76.427 10.4567 75.6124 10.6602C74.8137 10.8481 73.9192 10.942 72.9289 10.942C71.3316 10.942 70.0937 10.582 69.2151 9.86188C68.3366 9.12615 67.8974 8.06952 67.8974 6.69199V0H70.0537V6.38674C70.0537 7.29466 70.2933 7.9756 70.7725 8.42956C71.2677 8.86786 72.0583 9.08702 73.1445 9.08702C74.0869 9.08702 74.9335 9.00092 75.6842 8.82873C76.435 8.65654 77.2815 8.42173 78.2239 8.12431V0H80.3803V16.7652Z" fill="#D7BFA9"/>
<path d="M93.6118 5.91713H89.4189V16.7652H87.3344V5.91713H83.1894V4.17956H93.6118V5.91713Z" fill="#D7BFA9"/>
<path d="M107.073 10.4489C107.073 12.5308 106.53 14.1432 105.444 15.2859C104.373 16.4286 102.92 17 101.083 17C99.9488 17 98.9345 16.7495 98.04 16.2486C97.1615 15.732 96.4667 14.9885 95.9555 14.018C95.4444 13.0318 95.1888 11.8421 95.1888 10.4489C95.1888 8.36694 95.7239 6.76243 96.7941 5.63536C97.8643 4.50829 99.3179 3.94475 101.155 3.94475C102.321 3.94475 103.343 4.20304 104.222 4.71961C105.116 5.22053 105.811 5.95626 106.306 6.9268C106.817 7.88168 107.073 9.05571 107.073 10.4489ZM97.3691 10.4489C97.3691 11.936 97.6646 13.1179 98.2557 13.9945C98.8626 14.8554 99.821 15.2859 101.131 15.2859C102.425 15.2859 103.375 14.8554 103.982 13.9945C104.589 13.1179 104.892 11.936 104.892 10.4489C104.892 8.96179 104.589 7.79558 103.982 6.95028C103.375 6.10497 102.417 5.68232 101.107 5.68232C99.7971 5.68232 98.8467 6.10497 98.2557 6.95028C97.6646 7.79558 97.3691 8.96179 97.3691 10.4489Z" fill="#D7BFA9"/>
<path d="M120.31 7.13812V9.39227H110.462V7.13812H120.31Z" fill="#D7BFA9"/>
<path d="M133.295 5.91713H129.102V16.7652H127.017V5.91713H122.872V4.17956H133.295V5.91713Z" fill="#D7BFA9"/>
<path d="M146.756 10.4489C146.756 12.5308 146.213 14.1432 145.127 15.2859C144.056 16.4286 142.603 17 140.766 17C139.632 17 138.618 16.7495 137.723 16.2486C136.845 15.732 136.15 14.9885 135.639 14.018C135.127 13.0318 134.872 11.8421 134.872 10.4489C134.872 8.36694 135.407 6.76243 136.477 5.63536C137.547 4.50829 139.001 3.94475 140.838 3.94475C142.004 3.94475 143.026 4.20304 143.905 4.71961C144.799 5.22053 145.494 5.95626 145.989 6.9268C146.5 7.88168 146.756 9.05571 146.756 10.4489ZM137.052 10.4489C137.052 11.936 137.348 13.1179 137.939 13.9945C138.546 14.8554 139.504 15.2859 140.814 15.2859C142.108 15.2859 143.058 14.8554 143.665 13.9945C144.272 13.1179 144.576 11.936 144.576 10.4489C144.576 8.96179 144.272 7.79558 143.665 6.95028C143.058 6.10497 142.1 5.68232 140.79 5.68232C139.48 5.68232 138.53 6.10497 137.939 6.95028C137.348 7.79558 137.052 8.96179 137.052 10.4489Z" fill="#D7BFA9"/>
<path d="M167.175 4.17956V16.7652H165.067V5.94061H158.43V16.7652H156.321V4.17956H167.175Z" fill="#D7BFA9"/>
<path d="M182.438 10.4489C182.438 12.5308 181.895 14.1432 180.809 15.2859C179.738 16.4286 178.285 17 176.448 17C175.314 17 174.3 16.7495 173.405 16.2486C172.527 15.732 171.832 14.9885 171.321 14.018C170.809 13.0318 170.554 11.8421 170.554 10.4489C170.554 8.36694 171.089 6.76243 172.159 5.63536C173.229 4.50829 174.683 3.94475 176.52 3.94475C177.686 3.94475 178.708 4.20304 179.587 4.71961C180.481 5.22053 181.176 5.95626 181.671 6.9268C182.182 7.88168 182.438 9.05571 182.438 10.4489ZM172.734 10.4489C172.734 11.936 173.03 13.1179 173.621 13.9945C174.228 14.8554 175.186 15.2859 176.496 15.2859C177.79 15.2859 178.74 14.8554 179.347 13.9945C179.954 13.1179 180.258 11.936 180.258 10.4489C180.258 8.96179 179.954 7.79558 179.347 6.95028C178.74 6.10497 177.782 5.68232 176.472 5.68232C175.162 5.68232 174.212 6.10497 173.621 6.95028C173.03 7.79558 172.734 8.96179 172.734 10.4489Z" fill="#D7BFA9"/>
<path d="M203.198 4.17956V16.7652H185.779V4.17956H187.888V15.0276H193.423V4.17956H195.531V15.0276H201.09V4.17956H203.198Z" fill="#D7BFA9"/>
<path d="M217.081 16.7652H214.949V5.89365H211.163C210.956 8.53913 210.668 10.6759 210.301 12.3039C209.933 13.9162 209.446 15.0902 208.839 15.826C208.232 16.5617 207.465 16.9296 206.539 16.9296C206.331 16.9296 206.124 16.9139 205.916 16.8826C205.724 16.8669 205.565 16.8278 205.437 16.7652V15.2155C205.533 15.2468 205.636 15.2703 205.748 15.2859C205.86 15.3016 205.972 15.3094 206.084 15.3094C206.946 15.3094 207.633 14.4093 208.144 12.6091C208.671 10.8089 209.071 7.99908 209.342 4.17956H217.081V16.7652Z" fill="#D7BFA9"/>
<path d="M232.322 10.4489C232.322 12.5308 231.779 14.1432 230.693 15.2859C229.623 16.4286 228.169 17 226.333 17C225.198 17 224.184 16.7495 223.29 16.2486C222.411 15.732 221.716 14.9885 221.205 14.018C220.694 13.0318 220.439 11.8421 220.439 10.4489C220.439 8.36694 220.974 6.76243 222.044 5.63536C223.114 4.50829 224.568 3.94475 226.404 3.94475C227.57 3.94475 228.593 4.20304 229.471 4.71961C230.366 5.22053 231.061 5.95626 231.556 6.9268C232.067 7.88168 232.322 9.05571 232.322 10.4489ZM222.619 10.4489C222.619 11.936 222.914 13.1179 223.505 13.9945C224.112 14.8554 225.071 15.2859 226.38 15.2859C227.674 15.2859 228.625 14.8554 229.232 13.9945C229.839 13.1179 230.142 11.936 230.142 10.4489C230.142 8.96179 229.839 7.79558 229.232 6.95028C228.625 6.10497 227.666 5.68232 226.357 5.68232C225.047 5.68232 224.096 6.10497 223.505 6.95028C222.914 7.79558 222.619 8.96179 222.619 10.4489Z" fill="#D7BFA9"/>
<path d="M243.996 4.17956V9.41575H250.969V4.17956H253.077V16.7652H250.969V11.1533H243.996V16.7652H241.888V4.17956H243.996Z" fill="#D7BFA9"/>
<path d="M262.103 3.94475C263.205 3.94475 264.148 4.17956 264.93 4.64917C265.729 5.11878 266.336 5.78407 266.751 6.64503C267.183 7.49033 267.398 8.48435 267.398 9.62707V10.8715H258.605C258.637 12.296 259.004 13.384 259.707 14.1354C260.426 14.8711 261.424 15.239 262.702 15.239C263.517 15.239 264.236 15.1685 264.858 15.0276C265.497 14.8711 266.152 14.6519 266.823 14.3702V16.1782C266.168 16.4599 265.521 16.6634 264.882 16.7887C264.244 16.9296 263.485 17 262.606 17C261.392 17 260.314 16.7574 259.372 16.2721C258.445 15.7868 257.719 15.0668 257.191 14.1119C256.68 13.1413 256.425 11.9595 256.425 10.5663C256.425 9.18877 256.656 8.00691 257.12 7.02072C257.599 6.03453 258.262 5.27532 259.108 4.74309C259.971 4.21087 260.969 3.94475 262.103 3.94475ZM262.079 5.63536C261.073 5.63536 260.274 5.95626 259.683 6.59807C259.108 7.22422 258.765 8.10083 258.653 9.2279H265.194C265.178 8.16344 264.922 7.30249 264.427 6.64503C263.932 5.97192 263.149 5.63536 262.079 5.63536Z" fill="#D7BFA9"/>
<path d="M285.757 5.91713H281.564V16.7652H279.479V5.91713H275.334V4.17956H285.757V5.91713Z" fill="#D7BFA9"/>
<path d="M293.15 3.96823C294.715 3.96823 295.873 4.30479 296.624 4.9779C297.375 5.65101 297.75 6.7233 297.75 8.19475V16.7652H296.217L295.81 14.9807H295.714C295.155 15.6694 294.564 16.1782 293.941 16.5069C293.334 16.8356 292.487 17 291.401 17C290.235 17 289.269 16.7026 288.502 16.1077C287.735 15.4972 287.352 14.5502 287.352 13.2666C287.352 12.0143 287.855 11.0516 288.861 10.3785C289.868 9.68969 291.417 9.314 293.509 9.25138L295.69 9.18094V8.42956C295.69 7.38076 295.458 6.65285 294.995 6.24586C294.532 5.83886 293.877 5.63536 293.03 5.63536C292.359 5.63536 291.72 5.73711 291.114 5.94061C290.507 6.12845 289.939 6.34761 289.412 6.59807L288.765 5.04834C289.325 4.75092 289.987 4.50046 290.754 4.29696C291.521 4.07781 292.319 3.96823 293.15 3.96823ZM295.666 10.6133L293.773 10.6837C292.176 10.7463 291.066 10.9968 290.443 11.4351C289.836 11.8734 289.532 12.4917 289.532 13.2901C289.532 13.9945 289.748 14.5111 290.179 14.8398C290.626 15.1685 291.193 15.3329 291.88 15.3329C292.966 15.3329 293.869 15.0433 294.588 14.4641C295.306 13.8692 295.666 12.9613 295.666 11.7403V10.6133Z" fill="#D7BFA9"/>
<path d="M309.312 4.17956H311.612L306.125 10.2376L312.067 16.7652H309.623L303.825 10.3785V16.7652H301.717V4.17956H303.825V10.2845L309.312 4.17956Z" fill="#D7BFA9"/>
<path d="M315.836 9.8384L313.56 5.72928H316.172L318.4 9.8384L316.172 13.9475H313.56L315.836 9.8384ZM320.436 9.8384L318.16 5.72928H320.772L323 9.8384L320.772 13.9475H318.16L320.436 9.8384Z" fill="#D7BFA9"/>
</svg>
