<svg width="20" height="15" viewBox="0 0 20 15" fill="none" xmlns="http://www.w3.org/2000/svg">
<path d="M19.9973 0.368388C19.9966 0.354112 19.9952 0.33988 19.993 0.325756C19.9907 0.313224 19.9871 0.301382 19.9837 0.289243C19.9804 0.276653 19.9765 0.264235 19.972 0.25204C19.9669 0.239749 19.9612 0.227727 19.9548 0.21602C19.9491 0.205164 19.9438 0.19421 19.937 0.18375C19.9289 0.171637 19.92 0.159975 19.9106 0.148816C19.9051 0.142007 19.9009 0.134507 19.8948 0.127994C19.8928 0.125921 19.8905 0.12454 19.8886 0.122467C19.878 0.112041 19.8668 0.102223 19.8551 0.0930593C19.8463 0.0857567 19.8379 0.0779604 19.8287 0.0715459C19.8172 0.0641297 19.8053 0.0573115 19.7931 0.0511186C19.7824 0.0451975 19.7721 0.0386844 19.7611 0.0339475C19.7491 0.0287173 19.7364 0.0253618 19.7239 0.0213158C19.7117 0.0173684 19.6998 0.0128291 19.6873 0.0100659C19.6756 0.00750012 19.6633 0.00661166 19.6513 0.0051314C19.6372 0.00294656 19.6229 0.00153003 19.6086 0.000888047C19.6057 0.000888047 19.603 0 19.6 0H0.4C0.397 0 0.3944 0.000789362 0.3915 0.000888047C0.376631 0.00153039 0.361808 0.0029802 0.3471 0.0052304C0.3357 0.00680935 0.3241 0.00750017 0.3131 0.00996728C0.299766 0.0133098 0.286615 0.0173281 0.2737 0.0220065C0.2622 0.0258552 0.2503 0.0289144 0.2393 0.0337499C0.2273 0.0388815 0.2163 0.0457894 0.2048 0.0522039C0.1936 0.058421 0.1821 0.064046 0.1716 0.0713486C0.162 0.0779605 0.1532 0.0861515 0.1441 0.0936515C0.132688 0.102675 0.121772 0.112294 0.1114 0.122467C0.1094 0.124441 0.1071 0.125921 0.1052 0.127994C0.0992 0.134507 0.0948999 0.142007 0.0893999 0.148816C0.0799579 0.159974 0.0711447 0.171637 0.0629999 0.18375C0.0561999 0.19421 0.0508 0.205164 0.0452 0.216118C0.0391 0.22796 0.0329001 0.239605 0.0280001 0.25204C0.0232001 0.264276 0.0198 0.27671 0.0163 0.289342C0.0129 0.301381 0.00929997 0.313224 0.00699997 0.325756C0.00478898 0.33988 0.00335362 0.354112 0.00270004 0.368388C0.00210004 0.37727 0 0.385757 0 0.394737V13.8158C0.000344108 14.1298 0.126883 14.4308 0.351852 14.6528C0.576821 14.8748 0.881846 14.9997 1.2 15H18.8C19.1182 14.9997 19.4232 14.8748 19.6481 14.6528C19.8731 14.4308 19.9997 14.1298 20 13.8158V0.394737C20 0.385757 19.9979 0.37727 19.9973 0.368388ZM18.5716 0.789474L10 8.54349L1.4284 0.789474H18.5716ZM18.8 14.2105H1.2C1.09395 14.2104 0.992266 14.1688 0.917274 14.0948C0.842282 14.0208 0.800106 13.9204 0.8 13.8158V1.29207L9.7297 9.36997C9.80347 9.43671 9.89992 9.47373 10 9.47373C10.1001 9.47373 10.1965 9.43671 10.2703 9.36997L19.2 1.29207V13.8158C19.1999 13.9204 19.1577 14.0208 19.0827 14.0948C19.0077 14.1688 18.9061 14.2104 18.8 14.2105Z" fill="#292929"/>
</svg>
