<svg width="20" height="21" viewBox="0 0 20 21" fill="none" xmlns="http://www.w3.org/2000/svg">
<path d="M15.7614 16.1572C16.3187 16.1572 16.8533 16.3786 17.2474 16.7727C17.6415 17.1668 17.8629 17.7014 17.8629 18.2587C17.8629 18.8161 17.6415 19.3506 17.2474 19.7447C16.8533 20.1388 16.3187 20.3602 15.7614 20.3602C15.204 20.3602 14.6695 20.1388 14.2754 19.7447C13.8813 19.3506 13.6599 18.8161 13.6599 18.2587C13.6599 17.7014 13.8813 17.1668 14.2754 16.7727C14.6695 16.3786 15.204 16.1572 15.7614 16.1572ZM15.7614 17.208C15.4827 17.208 15.2154 17.3187 15.0184 17.5157C14.8213 17.7128 14.7106 17.98 14.7106 18.2587C14.7106 18.5374 14.8213 18.8047 15.0184 19.0017C15.2154 19.1988 15.4827 19.3095 15.7614 19.3095C16.0401 19.3095 16.3073 19.1988 16.5044 19.0017C16.7014 18.8047 16.8121 18.5374 16.8121 18.2587C16.8121 17.98 16.7014 17.7128 16.5044 17.5157C16.3073 17.3187 16.0401 17.208 15.7614 17.208ZM6.30455 16.1572C6.86191 16.1572 7.39644 16.3786 7.79055 16.7727C8.18466 17.1668 8.40607 17.7014 8.40607 18.2587C8.40607 18.8161 8.18466 19.3506 7.79055 19.7447C7.39644 20.1388 6.86191 20.3602 6.30455 20.3602C5.7472 20.3602 5.21267 20.1388 4.81855 19.7447C4.42444 19.3506 4.20303 18.8161 4.20303 18.2587C4.20303 17.7014 4.42444 17.1668 4.81855 16.7727C5.21267 16.3786 5.7472 16.1572 6.30455 16.1572ZM6.30455 17.208C6.02587 17.208 5.75861 17.3187 5.56155 17.5157C5.3645 17.7128 5.25379 17.98 5.25379 18.2587C5.25379 18.5374 5.3645 18.8047 5.56155 19.0017C5.75861 19.1988 6.02587 19.3095 6.30455 19.3095C6.58323 19.3095 6.8505 19.1988 7.04755 19.0017C7.24461 18.8047 7.35531 18.5374 7.35531 18.2587C7.35531 17.98 7.24461 17.7128 7.04755 17.5157C6.8505 17.3187 6.58323 17.208 6.30455 17.208ZM17.8629 3.54824H3.43913L6.11542 9.85273H14.7106C14.874 9.85298 15.0352 9.81489 15.1812 9.74153C15.3272 9.66817 15.4539 9.56158 15.5512 9.43033L18.7035 5.22734H18.7046C18.8211 5.07115 18.8919 4.88563 18.9091 4.69152C18.9262 4.49741 18.8891 4.30235 18.8017 4.12814C18.7144 3.95393 18.5804 3.80744 18.4146 3.70503C18.2488 3.60262 18.0578 3.54834 17.8629 3.54824ZM14.7106 10.9035H6.16375L5.35887 12.5426L5.25379 13.005C5.25379 13.2837 5.3645 13.5509 5.56155 13.748C5.75861 13.945 6.02587 14.0557 6.30455 14.0557H17.8629V15.1065H6.30455C5.93864 15.1067 5.57903 15.0113 5.26129 14.8298C4.94355 14.6483 4.6787 14.3871 4.49295 14.0718C4.30719 13.7566 4.20697 13.3983 4.20219 13.0324C4.19742 12.6665 4.28826 12.3057 4.46572 11.9858L5.22227 10.4369L1.40592 1.44674H0V0.395996H2.10152L2.99361 2.49749H17.8629C18.26 2.49753 18.6489 2.61005 18.9846 2.82202C19.3204 3.03399 19.5892 3.33674 19.7599 3.69519C19.9307 4.05365 19.9964 4.45315 19.9495 4.84741C19.9025 5.24168 19.7449 5.61458 19.4947 5.92293L16.4328 10.0061C16.2392 10.2833 15.9816 10.5097 15.6817 10.6659C15.3819 10.8221 15.0487 10.9036 14.7106 10.9035Z" fill="#292929"/>
</svg>
