<svg width="25" height="25" viewBox="0 0 25 25" fill="none" xmlns="http://www.w3.org/2000/svg">
<path d="M19.737 19.7368C20.435 19.7368 21.1043 20.0141 21.5979 20.5076C22.0914 21.0011 22.3686 21.6705 22.3686 22.3684C22.3686 23.0664 22.0914 23.7357 21.5979 24.2292C21.1043 24.7227 20.435 25 19.737 25C19.0391 25 18.3697 24.7227 17.8762 24.2292C17.3827 23.7357 17.1054 23.0664 17.1054 22.3684C17.1054 21.6705 17.3827 21.0011 17.8762 20.5076C18.3697 20.0141 19.0391 19.7368 19.737 19.7368ZM19.737 21.0526C19.3881 21.0526 19.0534 21.1913 18.8066 21.438C18.5599 21.6848 18.4212 22.0195 18.4212 22.3684C18.4212 22.7174 18.5599 23.0521 18.8066 23.2988C19.0534 23.5456 19.3881 23.6842 19.737 23.6842C20.086 23.6842 20.4207 23.5456 20.6675 23.2988C20.9142 23.0521 21.0528 22.7174 21.0528 22.3684C21.0528 22.0195 20.9142 21.6848 20.6675 21.438C20.4207 21.1913 20.086 21.0526 19.737 21.0526ZM7.89482 19.7368C8.59276 19.7368 9.26212 20.0141 9.75564 20.5076C10.2492 21.0011 10.5264 21.6705 10.5264 22.3684C10.5264 23.0664 10.2492 23.7357 9.75564 24.2292C9.26212 24.7227 8.59276 25 7.89482 25C7.19687 25 6.52751 24.7227 6.03399 24.2292C5.54047 23.7357 5.26321 23.0664 5.26321 22.3684C5.26321 21.6705 5.54047 21.0011 6.03399 20.5076C6.52751 20.0141 7.19687 19.7368 7.89482 19.7368ZM7.89482 21.0526C7.54584 21.0526 7.21116 21.1913 6.9644 21.438C6.71764 21.6848 6.57901 22.0195 6.57901 22.3684C6.57901 22.7174 6.71764 23.0521 6.9644 23.2988C7.21116 23.5456 7.54584 23.6842 7.89482 23.6842C8.24379 23.6842 8.57847 23.5456 8.82523 23.2988C9.07199 23.0521 9.21062 22.7174 9.21062 22.3684C9.21062 22.0195 9.07199 21.6848 8.82523 21.438C8.57847 21.1913 8.24379 21.0526 7.89482 21.0526ZM22.3686 3.94737H4.30662L7.65797 11.8421H18.4212C18.6258 11.8424 18.8277 11.7947 19.0105 11.7029C19.1933 11.611 19.352 11.4775 19.4739 11.3132L23.4213 6.05H23.4226C23.5685 5.85442 23.6572 5.62211 23.6787 5.37903C23.7002 5.13596 23.6536 4.89169 23.5443 4.67354C23.4349 4.45539 23.2671 4.27194 23.0595 4.14371C22.8519 4.01547 22.6127 3.94749 22.3686 3.94737ZM18.4212 13.1579H7.7185L6.71059 15.2105L6.57901 15.7895C6.57901 16.1384 6.71764 16.4731 6.9644 16.7199C7.21116 16.9666 7.54584 17.1053 7.89482 17.1053H22.3686V18.4211H7.89482C7.43661 18.4213 6.98628 18.3019 6.5884 18.0746C6.19051 17.8474 5.85886 17.5202 5.62625 17.1254C5.39364 16.7306 5.26813 16.282 5.26216 15.8238C5.25618 15.3656 5.36993 14.9139 5.59216 14.5132L6.53954 12.5737L1.76054 1.31579H0V0H2.63161L3.74872 2.63158H22.3686C22.8659 2.63163 23.3529 2.77253 23.7733 3.03797C24.1937 3.3034 24.5304 3.68251 24.7442 4.13139C24.958 4.58026 25.0403 5.08053 24.9815 5.57424C24.9228 6.06796 24.7253 6.53493 24.4121 6.92105L20.5778 12.0342C20.3354 12.3813 20.0127 12.6648 19.6373 12.8604C19.2618 13.056 18.8446 13.1581 18.4212 13.1579Z" fill="#292929"/>
</svg>
