<svg width="263" height="62" viewBox="0 0 263 62" fill="none" xmlns="http://www.w3.org/2000/svg">
<path d="M25.1002 28.97L19.7216 18.1664H8.06791L2.75826 28.97H0L13.9982 0.825684H14.0671L28.0653 28.97H25.1002ZM18.4114 15.6204L13.8603 6.4683L9.30912 15.6204H18.4114Z" fill="#292929"/>
<path d="M33.1679 3.92236H35.6504V8.87686H41.0979V11.1477H35.6504V23.6715C35.6504 24.0156 35.6503 24.4285 35.7193 24.8413C35.7883 25.2542 35.9262 25.6671 36.133 26.0112C36.3399 26.3552 36.6847 26.6993 37.1674 26.9057C37.6501 27.1121 38.3397 27.2498 39.2361 27.2498C39.5119 27.2498 39.7877 27.2498 40.0636 27.181C40.3394 27.1122 40.6842 26.9745 41.0979 26.7681V29.1077C40.3394 29.383 39.5119 29.5206 38.6155 29.5206C37.857 29.5206 37.1674 29.4518 36.4778 29.2453C35.7883 29.0389 35.2366 28.6948 34.7539 28.282C34.2712 27.8003 33.8575 27.2498 33.5817 26.4928C33.3058 25.8047 33.1679 24.9102 33.1679 23.878V11.2165H31.0303L31.0992 8.94567H33.2369V3.92236H33.1679Z" fill="#292929"/>
<path d="M46.0629 3.92236H48.5454V8.87686H53.9929V11.1477H48.5454V23.6715C48.5454 24.0156 48.5454 24.4285 48.6143 24.8413C48.6833 25.2542 48.8212 25.6671 49.0281 26.0112C49.2349 26.3552 49.5797 26.6993 50.0624 26.9057C50.5451 27.1121 51.2347 27.2498 52.1311 27.2498C52.4069 27.2498 52.6828 27.2498 52.9586 27.181C53.2344 27.1122 53.5792 26.9745 53.9929 26.7681V29.1077C53.2344 29.383 52.4069 29.5206 51.5105 29.5206C50.752 29.5206 50.0624 29.4518 49.3729 29.2453C48.6833 29.0389 48.1316 28.6948 47.6489 28.282C47.1662 27.8003 46.7525 27.2498 46.4767 26.4928C46.2009 25.8047 46.0629 24.9102 46.0629 23.878V11.2165H43.9253L43.9942 8.94567H46.1319V3.92236H46.0629Z" fill="#292929"/>
<path d="M68.7496 11.0786C68.1979 10.8722 67.6463 10.8034 67.0946 10.8034C66.2671 10.8034 65.4396 11.0098 64.6811 11.4227C63.9226 11.8355 63.233 12.386 62.6124 13.143C61.9918 13.8311 61.5091 14.7257 61.1643 15.689C60.8196 16.6524 60.6127 17.6846 60.6127 18.7856V29.0386H58.1992V8.94542H60.5437V13.2118H60.6817C61.2333 11.6291 62.1987 10.3905 63.5089 9.49592C64.888 8.60136 66.474 8.18848 68.1979 8.18848C68.4048 8.18848 68.6116 8.18848 68.8185 8.18848C69.0254 8.18848 69.2323 8.18848 69.4391 8.25729L68.7496 11.0786Z" fill="#292929"/>
<path d="M77.2315 2.06437L75.3696 4.12874L73.5078 2.06437L75.3696 0L77.2315 2.06437ZM74.1974 28.97V8.8768H76.6798V28.97H74.1974Z" fill="#292929"/>
<path d="M85.9198 12.731L86.0577 12.6622C86.6094 11.8364 87.23 11.0795 87.9196 10.529C88.6091 9.97851 89.2987 9.49682 90.0572 9.22157C90.8157 8.8775 91.5053 8.67107 92.2638 8.53344C92.9534 8.39582 93.643 8.327 94.2636 8.327C95.7806 8.327 97.1597 8.60226 98.401 9.15276C99.6422 9.70326 100.745 10.4602 101.642 11.4236C102.538 12.3869 103.228 13.4879 103.78 14.7266C104.262 15.9652 104.538 17.2726 104.538 18.6489C104.538 20.1627 104.262 21.6078 103.711 22.9152C103.159 24.2227 102.4 25.3925 101.435 26.3559C100.47 27.3192 99.3663 28.0762 98.0562 28.6267C96.746 29.1772 95.3669 29.4524 93.9188 29.4524C92.6086 29.4524 91.2984 29.246 90.0572 28.7643C88.816 28.2826 87.7127 27.5257 86.7473 26.5623C85.7819 25.5989 85.0234 24.3603 84.4028 22.8464C83.7822 21.3326 83.5063 19.6122 83.5063 17.5479V0.413574H85.9888V12.731H85.9198ZM94.1946 10.5978C93.0913 10.5978 91.988 10.8043 91.0226 11.2171C90.0572 11.63 89.1608 12.1805 88.4023 12.9374C87.6437 13.6944 87.0921 14.5889 86.6094 15.6211C86.1957 16.6533 85.9198 17.7543 85.9198 18.9929C85.9198 19.9563 86.1267 20.9197 86.4715 21.9519C86.8163 22.9152 87.3679 23.8098 88.0575 24.5667C88.747 25.3237 89.5745 25.943 90.5399 26.4935C91.5053 26.9752 92.6086 27.2504 93.7809 27.2504C95.091 27.2504 96.2633 26.9752 97.2976 26.4935C98.332 25.943 99.1595 25.3237 99.7801 24.4979C100.47 23.6722 100.952 22.7776 101.297 21.8142C101.642 20.8509 101.78 19.8187 101.78 18.8553C101.78 17.7543 101.573 16.7221 101.228 15.7587C100.814 14.7954 100.332 13.9008 99.6422 13.1439C98.9526 12.3869 98.1251 11.7676 97.1597 11.3548C96.3323 10.8043 95.2979 10.5978 94.1946 10.5978Z" fill="#292929"/>
<path d="M111.503 8.87685V21.7448C111.503 22.0888 111.503 22.5705 111.572 23.1898C111.641 23.8091 111.848 24.4285 112.123 24.979C112.399 25.5983 112.882 26.08 113.502 26.5616C114.123 26.9745 115.02 27.2498 116.192 27.2498C117.64 27.2498 118.812 26.9745 119.64 26.3552C120.467 25.7359 121.088 24.979 121.57 24.0844C121.984 23.1898 122.26 22.1576 122.398 21.0566C122.536 19.9556 122.605 18.9235 122.605 17.9601V8.87685H125.087V28.9701H122.605V25.9423H122.536C122.053 26.7681 121.57 27.3874 120.95 27.8691C120.329 28.3508 119.709 28.6948 119.157 28.9013C118.536 29.1077 117.985 29.3141 117.433 29.3141C116.881 29.3829 116.399 29.383 116.054 29.383C115.847 29.383 115.571 29.3829 115.157 29.3141C114.744 29.3141 114.261 29.1765 113.778 29.0389C113.227 28.9013 112.744 28.6948 112.192 28.3508C111.641 28.0755 111.158 27.6626 110.675 27.1121C110.193 26.5616 109.848 25.9423 109.572 25.1166C109.296 24.2908 109.158 23.3275 109.158 22.1576V8.67041H111.503V8.87685Z" fill="#292929"/>
<path d="M131.707 3.92236H134.189V8.87686H139.637V11.1477H134.189V23.6715C134.189 24.0156 134.189 24.4285 134.258 24.8413C134.327 25.2542 134.465 25.6671 134.672 26.0112C134.879 26.3552 135.224 26.6993 135.706 26.9057C136.189 27.1121 136.879 27.2498 137.775 27.2498C138.051 27.2498 138.327 27.2498 138.603 27.181C138.878 27.1122 139.223 26.9745 139.637 26.7681V29.1077C138.878 29.383 138.051 29.5206 137.155 29.5206C136.396 29.5206 135.706 29.4518 135.017 29.2453C134.327 29.0389 133.776 28.6948 133.293 28.282C132.81 27.8003 132.397 27.2498 132.121 26.4928C131.845 25.8047 131.707 24.9102 131.707 23.878V11.2165H129.569L129.638 8.94567H131.776V3.92236H131.707Z" fill="#292929"/>
<path d="M153.084 27.1807C154.463 27.1807 155.704 26.8367 156.876 26.2174C158.048 25.5292 158.945 24.7035 159.703 23.6025H162.531C162.117 24.4282 161.565 25.254 160.876 25.9421C160.186 26.6302 159.497 27.3184 158.669 27.8C157.842 28.3505 157.014 28.6946 156.049 28.9699C155.083 29.2451 154.118 29.3827 153.084 29.3827C151.635 29.3827 150.256 29.1075 149.015 28.557C147.705 28.0065 146.602 27.2495 145.636 26.2862C144.671 25.3228 143.912 24.2218 143.361 22.9144C142.809 21.6069 142.533 20.2995 142.533 18.8544C142.533 17.4094 142.809 16.0331 143.292 14.7257C143.774 13.4183 144.533 12.3173 145.429 11.3539C146.326 10.3905 147.429 9.63357 148.67 9.08307C149.912 8.53257 151.222 8.25732 152.67 8.25732C154.325 8.25732 155.773 8.53257 157.014 9.08307C158.324 9.63357 159.359 10.3905 160.255 11.3539C161.151 12.3173 161.841 13.4183 162.255 14.7257C162.737 16.0331 162.944 17.4094 162.944 18.8544H145.016C145.016 19.9554 145.223 21.0564 145.636 22.0886C146.05 23.1208 146.671 24.0154 147.36 24.7035C148.05 25.4604 148.946 26.0797 149.912 26.4926C150.946 26.9743 151.98 27.1807 153.084 27.1807ZM160.186 16.6524C160.048 15.7579 159.772 15.0009 159.359 14.244C158.945 13.4871 158.393 12.8678 157.773 12.3173C157.152 11.7668 156.393 11.3539 155.497 11.0098C154.601 10.7346 153.704 10.5281 152.67 10.5281C151.773 10.5281 150.877 10.6658 150.118 11.0098C149.36 11.2851 148.601 11.7668 147.981 12.3173C147.36 12.8678 146.809 13.4871 146.395 14.244C145.912 15.0009 145.567 15.7579 145.36 16.6524H160.186Z" fill="#292929"/>
<path d="M189.01 12.5925C188.527 12.1796 188.113 11.8356 187.63 11.5603C187.148 11.2851 186.734 11.0786 186.32 10.941C185.907 10.8034 185.493 10.7346 185.148 10.6658C184.803 10.5969 184.458 10.5969 184.183 10.5969C183.493 10.5969 182.872 10.6658 182.321 10.8722C181.838 11.0786 181.424 11.3539 181.08 11.6291C180.804 11.9044 180.528 12.3173 180.39 12.6613C180.252 13.0742 180.183 13.4871 180.183 13.8311C180.183 14.5881 180.321 15.1386 180.666 15.6203C181.011 16.0331 181.424 16.3772 181.907 16.6524C182.459 16.9277 183.01 17.1341 183.7 17.2717C184.389 17.4094 185.01 17.6158 185.7 17.8222C186.182 17.9599 186.734 18.1663 187.286 18.3727C187.906 18.5792 188.458 18.9232 188.941 19.4049C189.423 19.8178 189.837 20.3683 190.182 20.9876C190.527 21.6069 190.665 22.4327 190.665 23.3961C190.665 24.2906 190.458 25.1164 190.113 25.8733C189.768 26.6302 189.285 27.2496 188.665 27.7312C188.044 28.2817 187.286 28.6258 186.389 28.9011C185.493 29.1763 184.527 29.3139 183.493 29.3139C183.148 29.3139 182.666 29.3139 182.183 29.2451C181.7 29.1763 181.149 29.0387 180.597 28.8322C180.045 28.6258 179.425 28.2817 178.873 27.8689C178.252 27.456 177.701 26.9055 177.08 26.2862L178.666 24.5659C178.873 24.8411 179.149 25.1164 179.425 25.4604C179.7 25.7357 180.114 26.0797 180.459 26.2862C180.873 26.5614 181.355 26.7679 181.838 26.9055C182.39 27.0431 182.941 27.1119 183.562 27.1119C184.734 27.1119 185.838 26.7679 186.665 26.1486C187.561 25.5292 187.975 24.6347 187.975 23.4649C187.975 22.7767 187.837 22.1574 187.493 21.6757C187.217 21.1941 186.803 20.85 186.251 20.5059C185.769 20.2307 185.148 19.9554 184.527 19.8178C183.838 19.6114 183.217 19.4049 182.528 19.1985C182.045 19.0609 181.562 18.8544 181.011 18.648C180.459 18.4416 179.907 18.0975 179.356 17.6846C178.873 17.2717 178.39 16.7213 178.045 16.0331C177.701 15.345 177.494 14.5881 177.494 13.6247C177.494 13.0054 177.632 12.3173 177.908 11.6979C178.183 11.0786 178.528 10.4593 179.08 9.97763C179.631 9.42714 180.252 9.01426 181.08 8.73901C181.838 8.39495 182.803 8.25732 183.907 8.25732C184.872 8.25732 185.907 8.39495 187.01 8.73901C188.113 9.08307 189.147 9.70239 190.251 10.6658L189.01 12.5925Z" fill="#292929"/>
<path d="M195.629 28.9707V0.413574H198.112V11.3548H198.181C198.663 10.6666 199.215 10.1849 199.767 9.77207C200.387 9.35919 200.939 9.08394 201.491 8.8775C202.042 8.67107 202.594 8.53345 203.146 8.46464C203.697 8.39582 204.18 8.39582 204.525 8.39582C205.49 8.39582 206.387 8.53345 207.214 8.8087C208.042 9.08395 208.8 9.49682 209.421 10.1161C210.041 10.6666 210.593 11.3548 210.938 12.2493C211.351 13.0751 211.489 14.0384 211.489 15.1394V29.0395H209.214V15.9652C209.214 14.8642 209.076 14.0384 208.731 13.3503C208.386 12.6622 207.973 12.1117 207.49 11.7676C207.007 11.3547 206.456 11.0795 205.835 10.9419C205.214 10.8043 204.663 10.7354 204.18 10.7354C203.353 10.7354 202.525 10.8731 201.767 11.1483C201.008 11.4236 200.387 11.8364 199.836 12.3869C199.284 12.9374 198.87 13.5568 198.526 14.2449C198.25 14.933 198.043 15.7587 198.043 16.5845V29.1084H195.629V28.9707Z" fill="#292929"/>
<path d="M216.248 18.9233C216.248 17.4782 216.523 16.102 217.075 14.7945C217.627 13.4871 218.385 12.3861 219.351 11.4227C220.316 10.4594 221.419 9.70243 222.729 9.15193C223.971 8.60143 225.35 8.32617 226.798 8.32617C228.246 8.32617 229.625 8.60143 230.866 9.15193C232.108 9.70243 233.28 10.4594 234.245 11.4227C235.211 12.3861 235.969 13.4871 236.521 14.7945C237.072 16.102 237.348 17.4782 237.348 18.9233C237.348 20.3683 237.072 21.7446 236.521 22.9832C235.969 24.2218 235.211 25.3917 234.245 26.355C233.28 27.3184 232.176 28.0753 230.866 28.6258C229.556 29.1763 228.246 29.4516 226.798 29.4516C225.35 29.4516 223.971 29.1763 222.729 28.6258C221.419 28.0753 220.316 27.3184 219.351 26.355C218.385 25.3917 217.627 24.2907 217.075 22.9832C216.523 21.7446 216.248 20.3683 216.248 18.9233ZM218.799 18.9233C218.799 20.0243 219.006 21.1253 219.42 22.1575C219.833 23.1897 220.454 24.0842 221.143 24.7723C221.833 25.5293 222.729 26.1486 223.695 26.5615C224.66 26.9743 225.695 27.2496 226.798 27.2496C227.901 27.2496 228.936 27.0431 229.901 26.5615C230.866 26.1486 231.694 25.5293 232.452 24.7723C233.142 24.0154 233.763 23.1208 234.176 22.1575C234.59 21.1253 234.797 20.0931 234.797 18.9921C234.797 17.8911 234.59 16.7901 234.176 15.7579C233.763 14.7257 233.211 13.8312 232.452 13.143C231.763 12.3861 230.866 11.7668 229.901 11.3539C228.936 10.941 227.901 10.6658 226.798 10.6658C225.695 10.6658 224.66 10.8722 223.695 11.3539C222.729 11.7668 221.902 12.3861 221.143 13.143C220.454 13.9 219.833 14.7945 219.42 15.7579C219.006 16.6525 218.799 17.7535 218.799 18.9233Z" fill="#292929"/>
<path d="M244.382 8.87667V12.9366H244.52C245.485 11.4227 246.588 10.2529 247.968 9.49599C249.347 8.73905 250.864 8.32617 252.657 8.32617C254.243 8.32617 255.691 8.60143 256.932 9.15193C258.242 9.70243 259.276 10.4594 260.173 11.3539C261.069 12.3173 261.759 13.4183 262.242 14.7257C262.724 16.0332 263 17.4094 263 18.9233C263 20.506 262.724 21.8822 262.173 23.1897C261.621 24.4971 260.931 25.5981 259.966 26.4927C259.07 27.456 257.966 28.1441 256.725 28.6947C255.484 29.2451 254.174 29.4516 252.726 29.4516C252.036 29.4516 251.277 29.3828 250.519 29.2452C249.76 29.1075 249.002 28.8323 248.243 28.557C247.485 28.213 246.795 27.8001 246.106 27.2496C245.416 26.6991 244.865 26.0798 244.313 25.3228H244.382V36.4705H241.899V8.87667H244.382ZM252.45 10.597C251.278 10.597 250.174 10.8034 249.209 11.2851C248.243 11.7668 247.347 12.3861 246.657 13.143C245.968 13.9 245.416 14.7945 245.002 15.8267C244.589 16.8589 244.382 17.8911 244.382 18.9921C244.382 20.1619 244.589 21.2629 245.071 22.2951C245.554 23.3273 246.175 24.153 246.933 24.91C247.692 25.5981 248.588 26.2174 249.623 26.5615C250.657 26.9743 251.622 27.1808 252.726 27.1808C253.829 27.1808 254.794 26.9743 255.76 26.6303C256.725 26.2174 257.553 25.6669 258.242 24.9788C258.932 24.2907 259.483 23.3961 259.897 22.3639C260.311 21.3317 260.518 20.2307 260.518 18.9921C260.518 17.7535 260.311 16.5837 259.897 15.5515C259.483 14.5193 258.932 13.6247 258.242 12.8678C257.553 12.1109 256.656 11.5604 255.691 11.1475C254.725 10.8034 253.622 10.597 252.45 10.597Z" fill="#292929"/>
<path d="M69.4392 50.2331C69.853 50.0955 70.3357 49.9578 70.8873 49.8202C71.439 49.6826 72.0596 49.6138 72.6802 49.6138C73.7145 49.6138 74.542 49.7514 75.0937 50.0955C75.6453 50.4395 76.0591 50.7836 76.3349 51.1965C76.6107 51.6093 76.7486 52.0222 76.8176 52.4351C76.8865 52.848 76.8865 53.1232 76.8865 53.2608V61.5871H75.5074V60.2109H75.4385C75.0247 60.8302 74.542 61.3119 73.9214 61.5183C73.3008 61.7936 72.6802 61.8624 72.0596 61.8624C71.5079 61.8624 70.9563 61.7936 70.4046 61.5871C69.853 61.3807 69.4392 61.1055 69.0255 60.7614C68.6118 60.4173 68.3359 59.9356 68.0601 59.3851C67.8532 58.8346 67.7153 58.2841 67.7153 57.596C67.7153 56.9079 67.8532 56.2886 68.0601 55.8069C68.3359 55.2564 68.6118 54.8435 69.0255 54.4995C69.4392 54.1554 69.9219 53.8801 70.4046 53.6737C70.8873 53.4673 71.439 53.3985 71.9906 53.3985C72.5423 53.3985 73.0939 53.5361 73.7145 53.7425C74.3352 53.949 74.8868 54.3618 75.3005 54.9123H75.3695V53.1232C75.3695 52.4351 75.0937 51.8846 74.611 51.4717C74.1283 51.0588 73.4387 50.8524 72.5423 50.8524C71.9906 50.8524 71.439 50.9212 70.8873 51.0588C70.3357 51.1965 69.853 51.4029 69.4392 51.5405L68.7497 51.8158L69.4392 50.2331ZM72.1975 54.7747C71.7148 54.7747 71.3011 54.8435 70.9563 54.9811C70.6115 55.1188 70.2667 55.3252 70.0598 55.6005C69.784 55.8757 69.6461 56.1509 69.5082 56.495C69.3703 56.8391 69.3013 57.1831 69.3013 57.5272C69.3013 57.8713 69.3703 58.2153 69.5082 58.6282C69.6461 58.9723 69.853 59.3163 70.0598 59.5916C70.3357 59.8668 70.6115 60.1421 71.0252 60.2797C71.439 60.4861 71.8527 60.555 72.4044 60.555C72.8871 60.555 73.3698 60.4861 73.7835 60.2797C74.1972 60.1421 74.4731 59.9356 74.7489 59.6604C75.0247 59.3851 75.2316 59.1099 75.3695 58.7658C75.5074 58.4218 75.5764 58.0777 75.5764 57.6648C75.5764 57.3208 75.5074 56.9767 75.3695 56.6326C75.2316 56.2886 75.0247 55.9445 74.7489 55.6693C74.4731 55.394 74.1283 55.1876 73.7145 54.9811C73.2318 54.8435 72.7492 54.7747 72.1975 54.7747Z" fill="#292929"/>
<path d="M89.0227 52.1599C88.0573 51.3342 86.954 50.9213 85.7128 50.9213C85.0922 50.9213 84.4716 51.0589 83.9199 51.2653C83.3683 51.4718 82.8856 51.8158 82.4719 52.2287C82.0581 52.6416 81.7133 53.1233 81.4375 53.7426C81.1617 54.3619 81.0927 54.9812 81.0927 55.7381C81.0927 56.3575 81.1617 56.9079 81.3686 57.5273C81.5754 58.0778 81.8512 58.6283 82.265 59.1099C82.6787 59.5916 83.1614 59.9357 83.7131 60.211C84.3337 60.4862 85.0232 60.6238 85.7818 60.6238C87.023 60.6238 88.0573 60.211 88.9538 59.3852L89.8502 60.4862C89.4365 60.8303 89.0917 61.0367 88.6779 61.2431C88.3332 61.4496 87.9194 61.5872 87.5746 61.7248C87.2299 61.8624 86.8851 61.9313 86.6092 61.9313C86.2645 61.9313 85.9886 62.0001 85.7818 62.0001C84.7474 62.0001 83.851 61.7936 83.0925 61.4496C82.3339 61.1055 81.6444 60.6238 81.1617 60.0045C80.679 59.454 80.2653 58.7659 79.9894 58.009C79.7136 57.252 79.5757 56.5639 79.5757 55.8069C79.5757 54.9812 79.7136 54.2243 80.0584 53.4673C80.4032 52.7104 80.8169 52.0911 81.3686 51.5406C81.9202 50.9901 82.5408 50.5084 83.3683 50.2331C84.1268 49.8891 84.9543 49.7515 85.8507 49.7515C86.7472 49.7515 87.5746 49.8891 88.1952 50.1643C88.8848 50.4396 89.4365 50.7836 89.9192 51.1965L89.0227 52.1599Z" fill="#292929"/>
<path d="M101.435 52.1599C100.47 51.3342 99.3666 50.9213 98.1254 50.9213C97.5048 50.9213 96.8842 51.0589 96.3325 51.2653C95.7809 51.4718 95.2982 51.8158 94.8845 52.2287C94.4707 52.6416 94.1259 53.1233 93.8501 53.7426C93.5743 54.3619 93.5053 54.9812 93.5053 55.7381C93.5053 56.3575 93.5743 56.9079 93.7812 57.5273C93.988 58.0778 94.2638 58.6283 94.6776 59.1099C95.0913 59.5916 95.574 59.9357 96.1257 60.211C96.7463 60.4862 97.4358 60.6238 98.1944 60.6238C99.4356 60.6238 100.47 60.211 101.366 59.3852L102.263 60.4862C101.849 60.8303 101.504 61.0367 101.091 61.2431C100.746 61.4496 100.332 61.5872 99.9872 61.7248C99.6425 61.8624 99.2977 61.9313 99.0218 61.9313C98.6771 61.9313 98.4012 62.0001 98.1944 62.0001C97.16 62.0001 96.2636 61.7936 95.5051 61.4496C94.7465 61.1055 94.057 60.6238 93.5743 60.0045C93.0916 59.454 92.6779 58.7659 92.402 58.009C92.1262 57.252 91.9883 56.5639 91.9883 55.8069C91.9883 54.9812 92.1262 54.2243 92.471 53.4673C92.8158 52.7104 93.2295 52.0911 93.7812 51.5406C94.3328 50.9901 94.9534 50.5084 95.7809 50.2331C96.5394 49.8891 97.3669 49.7515 98.2633 49.7515C99.1598 49.7515 99.9872 49.8891 100.608 50.1643C101.297 50.4396 101.849 50.7836 102.332 51.1965L101.435 52.1599Z" fill="#292929"/>
<path d="M110.538 60.6238C111.365 60.6238 112.055 60.4174 112.744 60.0733C113.434 59.6604 113.985 59.1787 114.399 58.5594H116.054C115.778 59.0411 115.502 59.5228 115.089 59.9357C114.675 60.3485 114.261 60.6926 113.778 61.0367C113.296 61.3119 112.813 61.5872 112.261 61.7248C111.71 61.8624 111.158 62 110.538 62C109.71 62 108.883 61.8624 108.124 61.5184C107.366 61.1743 106.745 60.7614 106.193 60.2109C105.642 59.6604 105.228 58.9723 104.883 58.2154C104.538 57.4584 104.4 56.7015 104.4 55.8069C104.4 54.9812 104.538 54.1554 104.814 53.3985C105.09 52.6415 105.504 52.0222 106.055 51.4717C106.607 50.9212 107.228 50.5084 107.917 50.1643C108.607 49.8202 109.434 49.6826 110.262 49.6826C111.227 49.6826 112.055 49.8202 112.813 50.1643C113.572 50.5084 114.192 50.9212 114.744 51.4717C115.227 52.0222 115.64 52.7104 115.916 53.3985C116.192 54.1554 116.33 54.9812 116.33 55.8069H105.848C105.848 56.495 105.986 57.1144 106.193 57.6649C106.469 58.2842 106.745 58.7659 107.228 59.1787C107.641 59.5916 108.124 59.9357 108.676 60.2109C109.296 60.4862 109.917 60.6238 110.538 60.6238ZM114.744 54.4307C114.675 53.949 114.537 53.4673 114.261 53.0544C113.985 52.6415 113.71 52.2287 113.365 51.9534C113.02 51.6094 112.537 51.4029 112.055 51.1965C111.572 50.9901 111.02 50.9212 110.4 50.9212C109.848 50.9212 109.365 50.9901 108.883 51.1965C108.4 51.4029 107.986 51.6094 107.641 51.9534C107.297 52.2975 106.952 52.6415 106.676 53.0544C106.4 53.4673 106.193 53.949 106.055 54.4307H114.744Z" fill="#292929"/>
<path d="M125.156 52.0221C124.88 51.7468 124.605 51.5404 124.329 51.4028C124.053 51.2651 123.777 51.1275 123.57 51.0587C123.294 50.9899 123.087 50.9211 122.881 50.9211C122.674 50.9211 122.467 50.8522 122.329 50.8522C121.915 50.8522 121.57 50.9211 121.226 51.0587C120.95 51.1963 120.674 51.3339 120.536 51.4716C120.329 51.678 120.191 51.8844 120.122 52.0909C120.053 52.2973 119.984 52.5726 119.984 52.779C119.984 53.1919 120.053 53.5359 120.26 53.8112C120.467 54.0864 120.674 54.2929 121.019 54.4305C121.295 54.5681 121.639 54.7057 122.053 54.7746C122.467 54.8434 122.812 54.981 123.225 55.0498C123.501 55.1186 123.846 55.2562 124.191 55.3939C124.536 55.5315 124.88 55.7379 125.156 56.0132C125.432 56.2884 125.708 56.5637 125.915 56.9766C126.122 57.3206 126.191 57.8023 126.191 58.3528C126.191 58.9033 126.122 59.385 125.915 59.7979C125.708 60.2107 125.432 60.6236 125.087 60.8989C124.742 61.1741 124.26 61.4494 123.777 61.587C123.294 61.7246 122.674 61.8622 122.122 61.8622C121.915 61.8622 121.639 61.8622 121.364 61.7934C121.088 61.7246 120.743 61.6558 120.467 61.5182C120.122 61.3805 119.778 61.1741 119.433 60.9677C119.088 60.7612 118.743 60.4172 118.398 60.0043L119.364 58.9721C119.502 59.1097 119.64 59.3162 119.847 59.4538C120.053 59.6602 120.26 59.7979 120.467 59.9355C120.674 60.0731 120.95 60.2107 121.295 60.2795C121.57 60.3484 121.915 60.4172 122.26 60.4172C122.95 60.4172 123.57 60.2107 124.122 59.8667C124.605 59.5226 124.88 58.9721 124.88 58.284C124.88 57.8711 124.811 57.5271 124.605 57.2518C124.398 56.9766 124.191 56.7701 123.915 56.5637C123.639 56.4261 123.294 56.2196 122.881 56.1508C122.467 56.0132 122.122 55.9444 121.708 55.8067C121.433 55.7379 121.157 55.6003 120.812 55.4627C120.467 55.3251 120.191 55.1186 119.847 54.9122C119.571 54.6369 119.295 54.3617 119.088 53.9488C118.881 53.5359 118.812 53.1231 118.812 52.5038C118.812 52.1597 118.881 51.7468 119.019 51.4028C119.157 51.0587 119.364 50.7146 119.709 50.3706C119.984 50.0953 120.398 49.8201 120.881 49.6136C121.364 49.4072 121.915 49.3384 122.536 49.3384C123.087 49.3384 123.708 49.4072 124.329 49.6136C124.949 49.8201 125.57 50.1641 126.191 50.7146L125.156 52.0221Z" fill="#292929"/>
<path d="M135.086 52.0221C134.81 51.7468 134.534 51.5404 134.258 51.4028C133.983 51.2651 133.707 51.1275 133.5 51.0587C133.224 50.9899 133.017 50.9211 132.81 50.9211C132.603 50.9211 132.397 50.8522 132.259 50.8522C131.845 50.8522 131.5 50.9211 131.155 51.0587C130.879 51.1963 130.604 51.3339 130.466 51.4716C130.259 51.678 130.121 51.8844 130.052 52.0909C129.983 52.2973 129.914 52.5726 129.914 52.779C129.914 53.1919 129.983 53.5359 130.19 53.8112C130.397 54.0864 130.604 54.2929 130.948 54.4305C131.224 54.5681 131.569 54.7057 131.983 54.7746C132.397 54.8434 132.741 54.981 133.155 55.0498C133.431 55.1186 133.776 55.2562 134.12 55.3939C134.465 55.5315 134.81 55.7379 135.086 56.0132C135.362 56.2884 135.638 56.5637 135.844 56.9766C136.051 57.3206 136.12 57.8023 136.12 58.3528C136.12 58.9033 136.051 59.385 135.844 59.7979C135.638 60.2107 135.362 60.6236 135.017 60.8989C134.672 61.1741 134.189 61.4494 133.707 61.587C133.224 61.7246 132.603 61.8622 132.052 61.8622C131.845 61.8622 131.569 61.8622 131.293 61.7934C131.017 61.7246 130.673 61.6558 130.397 61.5182C130.052 61.3805 129.707 61.1741 129.362 60.9677C129.018 60.7612 128.673 60.4172 128.328 60.0043L129.294 58.9721C129.431 59.1097 129.569 59.3162 129.776 59.4538C129.983 59.6602 130.19 59.7979 130.397 59.9355C130.604 60.0731 130.88 60.2107 131.224 60.2795C131.5 60.3484 131.845 60.4172 132.19 60.4172C132.879 60.4172 133.5 60.2107 134.052 59.8667C134.534 59.5226 134.81 58.9721 134.81 58.284C134.81 57.8711 134.741 57.5271 134.534 57.2518C134.327 56.9766 134.12 56.7701 133.845 56.5637C133.569 56.4261 133.224 56.2196 132.81 56.1508C132.397 56.0132 132.052 55.9444 131.638 55.8067C131.362 55.7379 131.086 55.6003 130.742 55.4627C130.397 55.3251 130.121 55.1186 129.776 54.9122C129.5 54.6369 129.225 54.3617 129.018 53.9488C128.811 53.5359 128.742 53.1231 128.742 52.5038C128.742 52.1597 128.811 51.7468 128.949 51.4028C129.087 51.0587 129.294 50.7146 129.638 50.3706C129.914 50.0953 130.328 49.8201 130.811 49.6136C131.293 49.4072 131.845 49.3384 132.466 49.3384C133.017 49.3384 133.638 49.4072 134.258 49.6136C134.879 49.8201 135.5 50.1641 136.12 50.7146L135.086 52.0221Z" fill="#292929"/>
<path d="M138.189 55.7381C138.189 54.9123 138.327 54.0866 138.672 53.3296C139.016 52.5727 139.43 51.9534 139.982 51.4029C140.533 50.8524 141.223 50.4395 141.913 50.0955C142.671 49.7514 143.43 49.6138 144.326 49.6138C145.154 49.6138 145.981 49.7514 146.74 50.0955C147.498 50.4395 148.119 50.8524 148.67 51.4029C149.222 51.9534 149.705 52.6415 149.981 53.3296C150.325 54.0866 150.463 54.9123 150.463 55.7381C150.463 56.5638 150.325 57.3896 149.981 58.1465C149.636 58.9035 149.222 59.5228 148.67 60.1421C148.119 60.6926 147.429 61.1743 146.74 61.4495C145.981 61.7936 145.223 61.9312 144.326 61.9312C143.499 61.9312 142.671 61.7936 141.913 61.4495C141.154 61.1055 140.533 60.6926 139.982 60.1421C139.43 59.5916 139.016 58.9035 138.672 58.1465C138.327 57.3896 138.189 56.5638 138.189 55.7381ZM139.637 55.7381C139.637 56.4262 139.775 57.0455 139.982 57.596C140.258 58.2153 140.533 58.697 141.016 59.1099C141.43 59.5228 141.913 59.8668 142.464 60.1421C143.016 60.4173 143.637 60.5549 144.257 60.5549C144.947 60.5549 145.498 60.4173 146.119 60.1421C146.671 59.8668 147.153 59.5228 147.567 59.1099C147.981 58.697 148.326 58.1465 148.532 57.596C148.808 57.0455 148.877 56.3574 148.877 55.7381C148.877 55.05 148.739 54.4306 148.532 53.8801C148.257 53.2608 147.981 52.7791 147.567 52.3663C147.153 51.9534 146.671 51.6093 146.05 51.3341C145.498 51.0588 144.878 50.9212 144.257 50.9212C143.637 50.9212 143.016 51.0588 142.464 51.3341C141.913 51.6093 141.43 51.9534 141.016 52.3663C140.602 52.7791 140.258 53.3296 139.982 53.8801C139.775 54.4306 139.637 55.05 139.637 55.7381Z" fill="#292929"/>
<path d="M159.289 51.1275C158.945 50.9899 158.669 50.9899 158.324 50.9899C157.841 50.9899 157.359 51.1275 156.876 51.3339C156.462 51.6092 156.049 51.8844 155.704 52.2973C155.359 52.7102 155.083 53.1919 154.876 53.7424C154.669 54.2929 154.6 54.9122 154.6 55.5315V61.5182H153.152V49.7513H154.531V52.2285H154.6C154.945 51.2651 155.497 50.577 156.255 50.0953C157.083 49.6136 157.979 49.3384 159.014 49.3384C159.152 49.3384 159.289 49.3384 159.358 49.3384C159.496 49.3384 159.565 49.3384 159.703 49.4072L159.289 51.1275Z" fill="#292929"/>
<path d="M164.254 45.8978L163.151 47.1364L162.048 45.8978L163.151 44.6592L164.254 45.8978ZM162.531 61.587V49.8201H163.979V61.587H162.531Z" fill="#292929"/>
<path d="M173.288 60.6238C174.115 60.6238 174.805 60.4174 175.494 60.0733C176.184 59.6604 176.735 59.1787 177.149 58.5594H178.804C178.528 59.0411 178.252 59.5228 177.839 59.9357C177.425 60.3485 177.011 60.6926 176.528 61.0367C176.046 61.3119 175.563 61.5872 175.011 61.7248C174.46 61.8624 173.908 62 173.288 62C172.46 62 171.633 61.8624 170.874 61.5184C170.116 61.1743 169.495 60.7614 168.943 60.2109C168.392 59.6604 167.978 58.9723 167.633 58.2154C167.288 57.4584 167.15 56.7015 167.15 55.8069C167.15 54.9812 167.288 54.1554 167.564 53.3985C167.84 52.6415 168.254 52.0222 168.805 51.4717C169.357 50.9212 169.978 50.5084 170.667 50.1643C171.357 49.8202 172.184 49.6826 173.012 49.6826C173.977 49.6826 174.805 49.8202 175.563 50.1643C176.322 50.5084 176.942 50.9212 177.494 51.4717C177.977 52.0222 178.39 52.7104 178.666 53.3985C178.942 54.1554 179.08 54.9812 179.08 55.8069H168.598C168.598 56.495 168.736 57.1144 168.943 57.6649C169.219 58.2842 169.495 58.7659 169.978 59.1787C170.391 59.5916 170.874 59.9357 171.426 60.2109C172.046 60.4862 172.598 60.6238 173.288 60.6238ZM177.425 54.4307C177.356 53.949 177.218 53.4673 176.942 53.0544C176.666 52.6415 176.391 52.2287 176.046 51.9534C175.701 51.6094 175.218 51.4029 174.736 51.1965C174.253 50.9901 173.701 50.9212 173.081 50.9212C172.529 50.9212 172.046 50.9901 171.564 51.1965C171.081 51.4029 170.667 51.6094 170.322 51.9534C169.978 52.2975 169.633 52.6415 169.357 53.0544C169.081 53.4673 168.874 53.949 168.736 54.4307H177.425Z" fill="#292929"/>
<path d="M187.837 52.0221C187.561 51.7468 187.286 51.5404 187.01 51.4028C186.734 51.2651 186.458 51.1275 186.251 51.0587C185.975 50.9899 185.769 50.9211 185.562 50.9211C185.355 50.9211 185.148 50.8522 185.01 50.8522C184.596 50.8522 184.252 50.9211 183.907 51.0587C183.631 51.1963 183.355 51.3339 183.217 51.4716C183.01 51.678 182.872 51.8844 182.804 52.0909C182.735 52.2973 182.666 52.5726 182.666 52.779C182.666 53.1919 182.735 53.5359 182.941 53.8112C183.148 54.0864 183.355 54.2929 183.7 54.4305C183.976 54.5681 184.321 54.7057 184.734 54.7746C185.148 54.8434 185.493 54.981 185.907 55.0498C186.182 55.1186 186.527 55.2562 186.872 55.3939C187.217 55.5315 187.561 55.7379 187.837 56.0132C188.113 56.2884 188.389 56.5637 188.596 56.9766C188.803 57.3206 188.872 57.8023 188.872 58.3528C188.872 58.9033 188.803 59.385 188.596 59.7979C188.389 60.2107 188.113 60.6236 187.768 60.8989C187.424 61.1741 186.941 61.4494 186.458 61.587C185.975 61.7246 185.355 61.8622 184.803 61.8622C184.596 61.8622 184.321 61.8622 184.045 61.7934C183.769 61.7246 183.424 61.6558 183.148 61.5182C182.804 61.3805 182.459 61.1741 182.114 60.9677C181.769 60.7612 181.424 60.4172 181.08 60.0043L182.045 58.9721C182.183 59.1097 182.321 59.3162 182.528 59.4538C182.735 59.6602 182.941 59.7979 183.148 59.9355C183.355 60.0731 183.631 60.2107 183.976 60.2795C184.252 60.3484 184.596 60.4172 184.941 60.4172C185.631 60.4172 186.251 60.2107 186.803 59.8667C187.286 59.5226 187.561 58.9721 187.561 58.284C187.561 57.8711 187.493 57.5271 187.286 57.2518C187.079 56.9766 186.872 56.7701 186.596 56.5637C186.32 56.4261 185.975 56.2196 185.562 56.1508C185.148 56.0132 184.803 55.9444 184.389 55.8067C184.114 55.7379 183.838 55.6003 183.493 55.4627C183.148 55.3251 182.872 55.1186 182.528 54.9122C182.252 54.6369 181.976 54.3617 181.769 53.9488C181.562 53.5359 181.493 53.1231 181.493 52.5038C181.493 52.1597 181.562 51.7468 181.7 51.4028C181.838 51.0587 182.045 50.7146 182.39 50.3706C182.666 50.0953 183.079 49.8201 183.562 49.6136C184.045 49.4072 184.596 49.3384 185.217 49.3384C185.769 49.3384 186.389 49.4072 187.01 49.6136C187.63 49.8201 188.251 50.1641 188.872 50.7146L187.837 52.0221Z" fill="#292929"/>
</svg>
