<svg width="105" height="25" viewBox="0 0 105 25" fill="none" xmlns="http://www.w3.org/2000/svg">
<path d="M10.0209 11.5658L7.87357 7.25264H3.22101L1.1012 11.5658H0L5.58858 0.32959H5.61611L11.2047 11.5658H10.0209ZM7.3505 6.23617L5.53352 2.58233L3.71654 6.23617H7.3505Z" fill="#292929"/>
<path d="M13.2411 1.56592H14.2322V3.54393H16.4071V4.45052H14.2322V9.45051C14.2322 9.58787 14.2322 9.7527 14.2597 9.91754C14.2873 10.0824 14.3423 10.2472 14.4249 10.3846C14.5075 10.5219 14.6451 10.6593 14.8379 10.7417C15.0306 10.8241 15.3059 10.8791 15.6638 10.8791C15.7739 10.8791 15.884 10.8791 15.9941 10.8516C16.1042 10.8241 16.2419 10.7692 16.4071 10.6868V11.6208C16.1042 11.7307 15.7739 11.7857 15.416 11.7857C15.1132 11.7857 14.8379 11.7582 14.5626 11.6758C14.2873 11.5934 14.067 11.456 13.8743 11.2912C13.6816 11.0989 13.5164 10.8791 13.4063 10.5769C13.2962 10.3022 13.2411 9.94501 13.2411 9.53293V4.478H12.3877L12.4152 3.57141H13.2687V1.56592H13.2411Z" fill="#292929"/>
<path d="M18.3896 1.56592H19.3806V3.54393H21.5555V4.45052H19.3806V9.45051C19.3806 9.58787 19.3806 9.7527 19.4082 9.91754C19.4357 10.0824 19.4908 10.2472 19.5733 10.3846C19.6559 10.5219 19.7936 10.6593 19.9863 10.7417C20.179 10.8241 20.4543 10.8791 20.8122 10.8791C20.9223 10.8791 21.0324 10.8791 21.1426 10.8516C21.2527 10.8241 21.3903 10.7692 21.5555 10.6868V11.6208C21.2527 11.7307 20.9223 11.7857 20.5644 11.7857C20.2616 11.7857 19.9863 11.7582 19.711 11.6758C19.4357 11.5934 19.2155 11.456 19.0227 11.2912C18.83 11.0989 18.6649 10.8791 18.5547 10.5769C18.4446 10.3022 18.3896 9.94501 18.3896 9.53293V4.478H17.5361L17.5637 3.57141H18.4171V1.56592H18.3896Z" fill="#292929"/>
<path d="M27.4484 4.42313C27.2282 4.34071 27.0079 4.31324 26.7877 4.31324C26.4573 4.31324 26.127 4.39566 25.8241 4.56049C25.5213 4.72533 25.246 4.94511 24.9982 5.2473C24.7505 5.52203 24.5578 5.87917 24.4201 6.26379C24.2825 6.6484 24.1999 7.06049 24.1999 7.50005V11.5934H23.2363V3.57149H24.1723V5.27478H24.2274C24.4476 4.64291 24.8331 4.14841 25.3561 3.79127C25.9067 3.43412 26.5399 3.26929 27.2282 3.26929C27.3108 3.26929 27.3934 3.26929 27.4759 3.26929C27.5585 3.26929 27.6411 3.26929 27.7237 3.29676L27.4484 4.42313Z" fill="#292929"/>
<path d="M30.8328 0.824173L30.0895 1.64835L29.3462 0.824173L30.0895 0L30.8328 0.824173ZM29.6215 11.5659V3.54394H30.6126V11.5659H29.6215Z" fill="#292929"/>
<path d="M34.3039 5.08285L34.3589 5.05538C34.5792 4.72571 34.827 4.42352 35.1023 4.20374C35.3776 3.98396 35.6528 3.79165 35.9557 3.68176C36.2585 3.54439 36.5338 3.46198 36.8366 3.40703C37.1119 3.35209 37.3872 3.32461 37.635 3.32461C38.2407 3.32461 38.7913 3.43451 39.2868 3.65429C39.7823 3.87407 40.2228 4.17626 40.5807 4.56087C40.9386 4.94549 41.2139 5.38505 41.4341 5.87955C41.6269 6.37406 41.737 6.89603 41.737 7.44548C41.737 8.04987 41.6268 8.6268 41.4066 9.14878C41.1864 9.67075 40.8835 10.1378 40.4981 10.5224C40.1127 10.907 39.6722 11.2092 39.1492 11.429C38.6261 11.6488 38.0755 11.7587 37.4974 11.7587C36.9743 11.7587 36.4512 11.6762 35.9557 11.4839C35.4601 11.2916 35.0197 10.9894 34.6342 10.6048C34.2488 10.2202 33.946 9.72569 33.6982 9.1213C33.4505 8.51691 33.3403 7.8301 33.3403 7.00592V0.165283H34.3314V5.08285H34.3039ZM37.6075 4.23121C37.167 4.23121 36.7265 4.31363 36.3411 4.47846C35.9557 4.64329 35.5978 4.86307 35.295 5.16527C34.9921 5.46747 34.7719 5.82461 34.5792 6.23669C34.414 6.64878 34.3039 7.08834 34.3039 7.58284C34.3039 7.96746 34.3865 8.35207 34.5241 8.76416C34.6618 9.14877 34.882 9.50592 35.1573 9.80811C35.4326 10.1103 35.763 10.3576 36.1484 10.5773C36.5338 10.7696 36.9743 10.8795 37.4423 10.8795C37.9654 10.8795 38.4334 10.7696 38.8463 10.5773C39.2593 10.3576 39.5896 10.1103 39.8374 9.78064C40.1127 9.45097 40.3054 9.09383 40.4431 8.70921C40.5807 8.3246 40.6358 7.91251 40.6358 7.5279C40.6358 7.08834 40.5532 6.67625 40.4155 6.29164C40.2503 5.90702 40.0576 5.54988 39.7823 5.24768C39.507 4.94549 39.1767 4.69824 38.7913 4.5334C38.4609 4.31362 38.048 4.23121 37.6075 4.23121Z" fill="#292929"/>
<path d="M44.5166 3.54409V8.68143C44.5166 8.8188 44.5166 9.01111 44.5441 9.25836C44.5716 9.50561 44.6542 9.75286 44.7644 9.97264C44.8745 10.2199 45.0672 10.4122 45.315 10.6045C45.5627 10.7693 45.9206 10.8792 46.3886 10.8792C46.9668 10.8792 47.4348 10.7693 47.7651 10.5221C48.0955 10.2748 48.3432 9.97264 48.536 9.6155C48.7011 9.25836 48.8113 8.84627 48.8663 8.40671C48.9214 7.96715 48.9489 7.55506 48.9489 7.17045V3.54409H49.94V11.566H48.9489V10.3573H48.9214C48.7287 10.6869 48.536 10.9342 48.2882 11.1265C48.0404 11.3188 47.7926 11.4562 47.5724 11.5386C47.3246 11.621 47.1044 11.7034 46.8842 11.7034C46.6639 11.7309 46.4712 11.7309 46.3336 11.7309C46.251 11.7309 46.1409 11.7309 45.9757 11.7034C45.8105 11.7034 45.6178 11.6485 45.4251 11.5935C45.2048 11.5386 45.0121 11.4562 44.7919 11.3188C44.5716 11.2089 44.3789 11.0441 44.1862 10.8243C43.9935 10.6045 43.8559 10.3573 43.7457 10.0276C43.6356 9.69792 43.5806 9.3133 43.5806 8.84627V3.46167H44.5166V3.54409Z" fill="#292929"/>
<path d="M52.5829 1.56592H53.574V3.54393H55.7489V4.45052H53.574V9.45051C53.574 9.58787 53.574 9.7527 53.6015 9.91754C53.6291 10.0824 53.6841 10.2472 53.7667 10.3846C53.8493 10.5219 53.9869 10.6593 54.1797 10.7417C54.3724 10.8241 54.6477 10.8791 55.0056 10.8791C55.1157 10.8791 55.2258 10.8791 55.3359 10.8516C55.446 10.8241 55.5837 10.7692 55.7489 10.6868V11.6208C55.446 11.7307 55.1157 11.7857 54.7578 11.7857C54.455 11.7857 54.1797 11.7582 53.9044 11.6758C53.6291 11.5934 53.4088 11.456 53.2161 11.2912C53.0234 11.0989 52.8582 10.8791 52.7481 10.5769C52.638 10.3022 52.5829 9.94501 52.5829 9.53293V4.478H51.7295L51.757 3.57141H52.6105V1.56592H52.5829Z" fill="#292929"/>
<path d="M61.1164 10.8516C61.667 10.8516 62.1625 10.7142 62.6305 10.4669C63.0985 10.1922 63.4564 9.86254 63.7593 9.42299H64.888C64.7228 9.75266 64.5026 10.0823 64.2273 10.357C63.952 10.6318 63.6767 10.9065 63.3463 11.0988C63.016 11.3186 62.6856 11.4559 62.3002 11.5658C61.9148 11.6757 61.5293 11.7307 61.1164 11.7307C60.5383 11.7307 59.9877 11.6208 59.4921 11.401C58.9691 11.1812 58.5286 10.879 58.1431 10.4944C57.7577 10.1098 57.4549 9.67024 57.2347 9.14826C57.0144 8.62629 56.9043 8.10431 56.9043 7.52738C56.9043 6.95046 57.0144 6.40101 57.2071 5.87904C57.3998 5.35706 57.7027 4.9175 58.0606 4.53289C58.4184 4.14828 58.8589 3.84608 59.3545 3.6263C59.85 3.40652 60.3731 3.29663 60.9512 3.29663C61.6119 3.29663 62.19 3.40652 62.6856 3.6263C63.2087 3.84608 63.6216 4.14828 63.9795 4.53289C64.3374 4.9175 64.6127 5.35706 64.7779 5.87904C64.9706 6.40101 65.0532 6.95046 65.0532 7.52738H57.8954C57.8954 7.96694 57.978 8.4065 58.1431 8.81859C58.3083 9.23068 58.5561 9.58782 58.8314 9.86254C59.1067 10.1647 59.4646 10.412 59.85 10.5768C60.263 10.7691 60.6759 10.8516 61.1164 10.8516ZM63.952 6.64827C63.8969 6.29113 63.7868 5.98893 63.6216 5.68673C63.4564 5.38454 63.2362 5.13728 62.9884 4.9175C62.7406 4.69772 62.4378 4.53289 62.0799 4.39553C61.722 4.28564 61.3642 4.20322 60.9512 4.20322C60.5933 4.20322 60.2354 4.25817 59.9326 4.39553C59.6298 4.50542 59.3269 4.69772 59.0792 4.9175C58.8314 5.13728 58.6112 5.38454 58.446 5.68673C58.2533 5.98893 58.1156 6.29113 58.033 6.64827H63.952Z" fill="#292929"/>
<path d="M75.4595 5.0274C75.2668 4.86256 75.1016 4.7252 74.9089 4.61531C74.7162 4.50542 74.551 4.423 74.3858 4.36805C74.2206 4.31311 74.0554 4.28564 73.9178 4.25817C73.7801 4.23069 73.6425 4.23069 73.5324 4.23069C73.2571 4.23069 73.0093 4.25817 72.7891 4.34058C72.5963 4.423 72.4312 4.53289 72.2935 4.64278C72.1834 4.75267 72.0733 4.9175 72.0182 5.05487C71.9632 5.2197 71.9356 5.38453 71.9356 5.5219C71.9356 5.82409 71.9907 6.04387 72.1283 6.23618C72.266 6.40102 72.4312 6.53838 72.6239 6.64827C72.8441 6.75816 73.0644 6.84057 73.3397 6.89552C73.615 6.95046 73.8627 7.03288 74.138 7.1153C74.3307 7.17024 74.551 7.25266 74.7712 7.33508C75.019 7.4175 75.2392 7.55486 75.4319 7.74717C75.6246 7.912 75.7898 8.13178 75.9275 8.37903C76.0651 8.62629 76.1202 8.95595 76.1202 9.34057C76.1202 9.69771 76.0376 10.0274 75.8999 10.3296C75.7623 10.6318 75.5696 10.879 75.3218 11.0713C75.074 11.2911 74.7712 11.4285 74.4133 11.5384C74.0554 11.6483 73.67 11.7032 73.2571 11.7032C73.1194 11.7032 72.9267 11.7032 72.734 11.6757C72.5413 11.6483 72.321 11.5933 72.1008 11.5109C71.8806 11.4285 71.6328 11.2911 71.4126 11.1263C71.1648 10.9614 70.9445 10.7417 70.6968 10.4944L71.33 9.8076C71.4126 9.91749 71.5227 10.0274 71.6328 10.1647C71.7429 10.2746 71.9081 10.412 72.0457 10.4944C72.2109 10.6043 72.4036 10.6867 72.5963 10.7417C72.8166 10.7966 73.0368 10.8241 73.2846 10.8241C73.7526 10.8241 74.1931 10.6867 74.5234 10.4395C74.8813 10.1922 75.0465 9.83507 75.0465 9.36804C75.0465 9.09331 74.9915 8.84607 74.8538 8.65376C74.7437 8.46145 74.5785 8.32409 74.3583 8.18673C74.1656 8.07684 73.9178 7.96695 73.67 7.912C73.3947 7.82959 73.1469 7.74717 72.8716 7.66475C72.6789 7.6098 72.4862 7.52738 72.266 7.44497C72.0457 7.36255 71.8255 7.22519 71.6053 7.06035C71.4126 6.89552 71.2198 6.67574 71.0822 6.40102C70.9445 6.12629 70.862 5.8241 70.862 5.43948C70.862 5.19223 70.917 4.91751 71.0271 4.67025C71.1373 4.423 71.2749 4.17575 71.4951 3.98344C71.7154 3.76366 71.9632 3.59883 72.2935 3.48894C72.5963 3.35157 72.9818 3.29663 73.4222 3.29663C73.8077 3.29663 74.2206 3.35157 74.6611 3.48894C75.1016 3.6263 75.5145 3.87355 75.955 4.25817L75.4595 5.0274Z" fill="#292929"/>
<path d="M78.1021 11.5663V0.165283H79.0931V4.5334H79.1207C79.3134 4.25868 79.5336 4.06637 79.7538 3.90154C80.0016 3.7367 80.2219 3.62681 80.4421 3.54439C80.6623 3.46198 80.8826 3.40703 81.1028 3.37956C81.3231 3.35209 81.5158 3.35209 81.6534 3.35209C82.0388 3.35209 82.3967 3.40703 82.7271 3.51692C83.0574 3.62681 83.3603 3.79165 83.608 4.0389C83.8558 4.25868 84.0761 4.5334 84.2137 4.89055C84.3789 5.22022 84.4339 5.60483 84.4339 6.04439V11.5938H83.5255V6.37406C83.5255 5.9345 83.4704 5.60483 83.3327 5.3301C83.1951 5.05538 83.0299 4.8356 82.8372 4.69824C82.6445 4.5334 82.4243 4.42351 82.1765 4.36857C81.9287 4.31362 81.7085 4.28615 81.5158 4.28615C81.1854 4.28615 80.8551 4.3411 80.5522 4.45099C80.2494 4.56088 80.0016 4.72571 79.7814 4.94549C79.5611 5.16527 79.396 5.41252 79.2583 5.68725C79.1482 5.96197 79.0656 6.29164 79.0656 6.62131V11.6213H78.1021V11.5663Z" fill="#292929"/>
<path d="M86.335 7.55473C86.335 6.97781 86.4451 6.42836 86.6653 5.90639C86.8856 5.38441 87.1884 4.94485 87.5738 4.56023C87.9592 4.17562 88.3997 3.87343 88.9228 3.65365C89.4183 3.43387 89.9689 3.32397 90.547 3.32397C91.1252 3.32397 91.6758 3.43387 92.1713 3.65365C92.6668 3.87343 93.1349 4.17562 93.5203 4.56023C93.9057 4.94485 94.2085 5.38441 94.4288 5.90639C94.649 6.42836 94.7591 6.97781 94.7591 7.55473C94.7591 8.13165 94.649 8.6811 94.4288 9.1756C94.2085 9.67011 93.9057 10.1371 93.5203 10.5218C93.1349 10.9064 92.6944 11.2086 92.1713 11.4283C91.6482 11.6481 91.1252 11.758 90.547 11.758C89.9689 11.758 89.4183 11.6481 88.9228 11.4283C88.3997 11.2086 87.9592 10.9064 87.5738 10.5218C87.1884 10.1371 86.8856 9.69758 86.6653 9.1756C86.4451 8.6811 86.335 8.13165 86.335 7.55473ZM87.3536 7.55473C87.3536 7.99429 87.4362 8.43385 87.6013 8.84594C87.7665 9.25802 88.0143 9.61517 88.2896 9.88989C88.5649 10.1921 88.9228 10.4393 89.3082 10.6042C89.6936 10.769 90.1066 10.8789 90.547 10.8789C90.9875 10.8789 91.4005 10.7965 91.7859 10.6042C92.1713 10.4393 92.5017 10.1921 92.8045 9.88989C93.0798 9.58769 93.3276 9.23055 93.4928 8.84594C93.6579 8.43385 93.7405 8.02176 93.7405 7.5822C93.7405 7.14264 93.6579 6.70309 93.4928 6.291C93.3276 5.87891 93.1073 5.52177 92.8045 5.24705C92.5292 4.94485 92.1713 4.6976 91.7859 4.53276C91.4005 4.36793 90.9875 4.25804 90.547 4.25804C90.1066 4.25804 89.6936 4.34046 89.3082 4.53276C88.9228 4.6976 88.5924 4.94485 88.2896 5.24705C88.0143 5.54924 87.7665 5.90638 87.6013 6.291C87.4362 6.64814 87.3536 7.0877 87.3536 7.55473Z" fill="#292929"/>
<path d="M97.5677 3.54375V5.16463H97.6228C98.0082 4.56024 98.4487 4.09321 98.9993 3.79101C99.5499 3.48881 100.156 3.32397 100.871 3.32397C101.505 3.32397 102.083 3.43387 102.578 3.65365C103.101 3.87343 103.514 4.17562 103.872 4.53276C104.23 4.91738 104.505 5.35694 104.698 5.87891C104.891 6.40089 105.001 6.95034 105.001 7.55473C105.001 8.1866 104.891 8.73605 104.67 9.25802C104.45 9.78 104.175 10.2196 103.79 10.5767C103.432 10.9613 102.991 11.236 102.496 11.4558C102 11.6756 101.477 11.758 100.899 11.758C100.624 11.758 100.321 11.7305 100.018 11.6756C99.7151 11.6207 99.4122 11.5108 99.1094 11.4009C98.8066 11.2635 98.5313 11.0987 98.256 10.8789C97.9807 10.6591 97.7604 10.4119 97.5402 10.1097H97.5677V14.5602H96.5767V3.54375H97.5677ZM100.789 4.23057C100.321 4.23057 99.8803 4.31298 99.4948 4.50529C99.1094 4.6976 98.7515 4.94485 98.4762 5.24705C98.2009 5.54924 97.9807 5.90639 97.8155 6.31847C97.6503 6.73056 97.5677 7.14264 97.5677 7.5822C97.5677 8.04923 97.6503 8.48879 97.843 8.90088C98.0357 9.31297 98.2835 9.64264 98.5864 9.94483C98.8892 10.2196 99.2471 10.4668 99.66 10.6042C100.073 10.769 100.458 10.8514 100.899 10.8514C101.339 10.8514 101.725 10.769 102.11 10.6316C102.496 10.4668 102.826 10.247 103.101 9.97231C103.377 9.69758 103.597 9.34044 103.762 8.92835C103.927 8.51627 104.01 8.07671 104.01 7.5822C104.01 7.0877 103.927 6.62067 103.762 6.20858C103.597 5.79649 103.377 5.43935 103.101 5.13716C102.826 4.83496 102.468 4.61518 102.083 4.45035C101.697 4.31298 101.257 4.23057 100.789 4.23057Z" fill="#292929"/>
<path d="M27.7224 20.0551C27.8876 20.0002 28.0803 19.9452 28.3006 19.8903C28.5208 19.8353 28.7686 19.8079 29.0163 19.8079C29.4293 19.8079 29.7596 19.8628 29.9799 20.0002C30.2001 20.1375 30.3653 20.2749 30.4754 20.4397C30.5855 20.6046 30.6406 20.7694 30.6681 20.9342C30.6957 21.0991 30.6957 21.209 30.6957 21.2639V24.5881H30.1451V24.0386H30.1175C29.9524 24.2859 29.7596 24.4782 29.5119 24.5606C29.2641 24.6705 29.0163 24.698 28.7686 24.698C28.5483 24.698 28.3281 24.6705 28.1078 24.5881C27.8876 24.5057 27.7224 24.3958 27.5572 24.2584C27.3921 24.121 27.2819 23.9287 27.1718 23.709C27.0892 23.4892 27.0342 23.2694 27.0342 22.9947C27.0342 22.7199 27.0892 22.4727 27.1718 22.2804C27.2819 22.0606 27.3921 21.8958 27.5572 21.7584C27.7224 21.621 27.9151 21.5112 28.1078 21.4287C28.3006 21.3463 28.5208 21.3188 28.741 21.3188C28.9613 21.3188 29.1815 21.3738 29.4293 21.4562C29.6771 21.5386 29.8973 21.7035 30.0625 21.9232H30.09V21.209C30.09 20.9342 29.9799 20.7145 29.7872 20.5496C29.5945 20.3848 29.3192 20.3024 28.9613 20.3024C28.741 20.3024 28.5208 20.3298 28.3006 20.3848C28.0803 20.4397 27.8876 20.5221 27.7224 20.5771L27.4471 20.687L27.7224 20.0551ZM28.8236 21.8683C28.6309 21.8683 28.4657 21.8958 28.3281 21.9507C28.1904 22.0057 28.0528 22.0881 27.9702 22.198C27.8601 22.3079 27.805 22.4177 27.75 22.5551C27.6949 22.6925 27.6674 22.8298 27.6674 22.9672C27.6674 23.1046 27.6949 23.2419 27.75 23.4068C27.805 23.5441 27.8876 23.6815 27.9702 23.7914C28.0803 23.9013 28.1904 24.0111 28.3556 24.0661C28.5208 24.1485 28.686 24.176 28.9062 24.176C29.0989 24.176 29.2916 24.1485 29.4568 24.0661C29.622 24.0111 29.7321 23.9287 29.8422 23.8188C29.9524 23.7089 30.0349 23.5991 30.09 23.4617C30.1451 23.3243 30.1726 23.187 30.1726 23.0221C30.1726 22.8848 30.1451 22.7474 30.09 22.6101C30.0349 22.4727 29.9524 22.3353 29.8422 22.2254C29.7321 22.1155 29.5945 22.0331 29.4293 21.9507C29.2366 21.8958 29.0439 21.8683 28.8236 21.8683Z" fill="#292929"/>
<path d="M35.5421 20.8241C35.1567 20.4944 34.7162 20.3296 34.2207 20.3296C33.9729 20.3296 33.7251 20.3845 33.5049 20.4669C33.2847 20.5494 33.0919 20.6867 32.9268 20.8516C32.7616 21.0164 32.6239 21.2087 32.5138 21.4559C32.4037 21.7032 32.3762 21.9505 32.3762 22.2527C32.3762 22.4999 32.4037 22.7197 32.4863 22.9669C32.5689 23.1867 32.679 23.4065 32.8442 23.5988C33.0094 23.7911 33.2021 23.9285 33.4223 24.0384C33.6701 24.1483 33.9454 24.2032 34.2482 24.2032C34.7437 24.2032 35.1567 24.0384 35.5146 23.7087L35.8725 24.1482C35.7073 24.2856 35.5696 24.368 35.4045 24.4504C35.2668 24.5329 35.1016 24.5878 34.964 24.6428C34.8263 24.6977 34.6887 24.7252 34.5786 24.7252C34.4409 24.7252 34.3308 24.7526 34.2482 24.7526C33.8353 24.7526 33.4774 24.6702 33.1745 24.5329C32.8717 24.3955 32.5964 24.2032 32.4037 23.9559C32.211 23.7362 32.0458 23.4614 31.9357 23.1592C31.8256 22.857 31.7705 22.5823 31.7705 22.2801C31.7705 21.9505 31.8256 21.6483 31.9632 21.3461C32.1009 21.0439 32.266 20.7966 32.4863 20.5768C32.7065 20.3571 32.9543 20.1647 33.2847 20.0549C33.5875 19.9175 33.9178 19.8625 34.2757 19.8625C34.6336 19.8625 34.964 19.9175 35.2118 20.0274C35.4871 20.1373 35.7073 20.2746 35.9 20.4395L35.5421 20.8241Z" fill="#292929"/>
<path d="M40.4967 20.8241C40.1113 20.4944 39.6708 20.3296 39.1753 20.3296C38.9275 20.3296 38.6797 20.3845 38.4595 20.4669C38.2392 20.5494 38.0465 20.6867 37.8814 20.8516C37.7162 21.0164 37.5785 21.2087 37.4684 21.4559C37.3583 21.7032 37.3308 21.9505 37.3308 22.2527C37.3308 22.4999 37.3583 22.7197 37.4409 22.9669C37.5235 23.1867 37.6336 23.4065 37.7988 23.5988C37.9639 23.7911 38.1567 23.9285 38.3769 24.0384C38.6247 24.1483 38.9 24.2032 39.2028 24.2032C39.6983 24.2032 40.1113 24.0384 40.4692 23.7087L40.8271 24.1482C40.6619 24.2856 40.5242 24.368 40.3591 24.4504C40.2214 24.5329 40.0562 24.5878 39.9186 24.6428C39.7809 24.6977 39.6433 24.7252 39.5332 24.7252C39.3955 24.7252 39.2854 24.7526 39.2028 24.7526C38.7898 24.7526 38.432 24.6702 38.1291 24.5329C37.8263 24.3955 37.551 24.2032 37.3583 23.9559C37.1656 23.7362 37.0004 23.4614 36.8903 23.1592C36.7802 22.857 36.7251 22.5823 36.7251 22.2801C36.7251 21.9505 36.7802 21.6483 36.9178 21.3461C37.0555 21.0439 37.2206 20.7966 37.4409 20.5768C37.6611 20.3571 37.9089 20.1647 38.2392 20.0549C38.5421 19.9175 38.8724 19.8625 39.2303 19.8625C39.5882 19.8625 39.9186 19.9175 40.1663 20.0274C40.4416 20.1373 40.6619 20.2746 40.8546 20.4395L40.4967 20.8241Z" fill="#292929"/>
<path d="M44.1308 24.2033C44.4612 24.2033 44.7365 24.1209 45.0118 23.9835C45.2871 23.8187 45.5073 23.6264 45.6725 23.3791H46.3332C46.2231 23.5715 46.113 23.7638 45.9478 23.9286C45.7826 24.0934 45.6174 24.2308 45.4247 24.3682C45.232 24.478 45.0393 24.5879 44.8191 24.6429C44.5988 24.6978 44.3786 24.7528 44.1308 24.7528C43.8005 24.7528 43.4701 24.6978 43.1673 24.5605C42.8645 24.4231 42.6167 24.2583 42.3964 24.0385C42.1762 23.8187 42.011 23.544 41.8734 23.2418C41.7357 22.9396 41.6807 22.6374 41.6807 22.2803C41.6807 21.9506 41.7357 21.6209 41.8458 21.3187C41.956 21.0165 42.1211 20.7693 42.3414 20.5495C42.5616 20.3297 42.8094 20.1649 43.0847 20.0275C43.36 19.8901 43.6904 19.8352 44.0207 19.8352C44.4061 19.8352 44.7365 19.8901 45.0393 20.0275C45.3422 20.1649 45.5899 20.3297 45.8102 20.5495C46.0029 20.7693 46.1681 21.044 46.2782 21.3187C46.3883 21.6209 46.4433 21.9506 46.4433 22.2803H42.2588C42.2588 22.555 42.3139 22.8022 42.3964 23.022C42.5066 23.2693 42.6167 23.4616 42.8094 23.6264C42.9746 23.7912 43.1673 23.9286 43.3875 24.0385C43.6353 24.1484 43.8831 24.2033 44.1308 24.2033ZM45.8102 21.7308C45.7826 21.5385 45.7276 21.3462 45.6174 21.1814C45.5073 21.0165 45.3972 20.8517 45.2596 20.7418C45.1219 20.6044 44.9292 20.522 44.7365 20.4396C44.5438 20.3572 44.3235 20.3297 44.0758 20.3297C43.8555 20.3297 43.6628 20.3572 43.4701 20.4396C43.2774 20.522 43.1122 20.6044 42.9746 20.7418C42.8369 20.8792 42.6993 21.0165 42.5891 21.1814C42.479 21.3462 42.3964 21.5385 42.3414 21.7308H45.8102Z" fill="#292929"/>
<path d="M49.967 20.7694C49.8569 20.6595 49.7467 20.5771 49.6366 20.5222C49.5265 20.4672 49.4164 20.4123 49.3338 20.3848C49.2237 20.3573 49.1411 20.3299 49.0585 20.3299C48.9759 20.3299 48.8933 20.3024 48.8383 20.3024C48.6731 20.3024 48.5354 20.3299 48.3978 20.3848C48.2877 20.4398 48.1775 20.4947 48.1225 20.5496C48.0399 20.6321 47.9848 20.7145 47.9573 20.7969C47.9298 20.8793 47.9022 20.9892 47.9022 21.0716C47.9022 21.2365 47.9298 21.3738 48.0124 21.4837C48.0949 21.5936 48.1775 21.676 48.3152 21.731C48.4253 21.7859 48.563 21.8408 48.7281 21.8683C48.8933 21.8958 49.031 21.9507 49.1961 21.9782C49.3063 22.0057 49.4439 22.0606 49.5816 22.1156C49.7192 22.1705 49.8569 22.2529 49.967 22.3628C50.0771 22.4727 50.1872 22.5826 50.2698 22.7474C50.3524 22.8848 50.3799 23.0771 50.3799 23.2969C50.3799 23.5167 50.3524 23.709 50.2698 23.8738C50.1872 24.0386 50.0771 24.2035 49.9395 24.3134C49.8018 24.4233 49.6091 24.5331 49.4164 24.5881C49.2237 24.643 48.9759 24.698 48.7557 24.698C48.6731 24.698 48.563 24.698 48.4528 24.6705C48.3427 24.643 48.2051 24.6156 48.0949 24.5606C47.9573 24.5057 47.8196 24.4233 47.682 24.3408C47.5443 24.2584 47.4067 24.1211 47.269 23.9562L47.6545 23.5441C47.7095 23.5991 47.7646 23.6815 47.8472 23.7364C47.9298 23.8189 48.0124 23.8738 48.0949 23.9288C48.1775 23.9837 48.2877 24.0386 48.4253 24.0661C48.5354 24.0936 48.6731 24.1211 48.8107 24.1211C49.086 24.1211 49.3338 24.0386 49.554 23.9013C49.7467 23.7639 49.8569 23.5441 49.8569 23.2694C49.8569 23.1046 49.8293 22.9672 49.7467 22.8573C49.6641 22.7474 49.5816 22.665 49.4714 22.5826C49.3613 22.5277 49.2237 22.4452 49.0585 22.4178C48.8933 22.3628 48.7557 22.3354 48.5905 22.2804C48.4804 22.2529 48.3702 22.198 48.2326 22.143C48.0949 22.0881 47.9848 22.0057 47.8472 21.9233C47.7371 21.8134 47.6269 21.7035 47.5443 21.5387C47.4618 21.3738 47.4342 21.209 47.4342 20.9617C47.4342 20.8244 47.4618 20.6595 47.5168 20.5222C47.5719 20.3848 47.6545 20.2474 47.7921 20.1101C47.9022 20.0002 48.0674 19.8903 48.2601 19.8079C48.4528 19.7255 48.6731 19.698 48.9208 19.698C49.1411 19.698 49.3889 19.7255 49.6366 19.8079C49.8844 19.8903 50.1322 20.0277 50.3799 20.2474L49.967 20.7694Z" fill="#292929"/>
<path d="M53.9313 20.7694C53.8212 20.6595 53.7111 20.5771 53.601 20.5222C53.4908 20.4672 53.3807 20.4123 53.2981 20.3848C53.188 20.3573 53.1054 20.3299 53.0228 20.3299C52.9403 20.3299 52.8577 20.3024 52.8026 20.3024C52.6374 20.3024 52.4998 20.3299 52.3621 20.3848C52.252 20.4398 52.1419 20.4947 52.0868 20.5496C52.0042 20.6321 51.9492 20.7145 51.9216 20.7969C51.8941 20.8793 51.8666 20.9892 51.8666 21.0716C51.8666 21.2365 51.8941 21.3738 51.9767 21.4837C52.0593 21.5936 52.1419 21.676 52.2795 21.731C52.3897 21.7859 52.5273 21.8408 52.6925 21.8683C52.8577 21.8958 52.9953 21.9507 53.1605 21.9782C53.2706 22.0057 53.4083 22.0606 53.5459 22.1156C53.6836 22.1705 53.8212 22.2529 53.9313 22.3628C54.0415 22.4727 54.1516 22.5826 54.2342 22.7474C54.3168 22.8848 54.3443 23.0771 54.3443 23.2969C54.3443 23.5167 54.3168 23.709 54.2342 23.8738C54.1516 24.0386 54.0414 24.2035 53.9038 24.3134C53.7661 24.4233 53.5734 24.5331 53.3807 24.5881C53.188 24.643 52.9403 24.698 52.72 24.698C52.6374 24.698 52.5273 24.698 52.4172 24.6705C52.3071 24.643 52.1694 24.6156 52.0593 24.5606C51.9216 24.5057 51.784 24.4233 51.6463 24.3408C51.5087 24.2584 51.371 24.1211 51.2334 23.9562L51.6188 23.5441C51.6739 23.5991 51.7289 23.6815 51.8115 23.7364C51.8941 23.8189 51.9767 23.8738 52.0593 23.9288C52.1419 23.9837 52.252 24.0386 52.3897 24.0661C52.4998 24.0936 52.6374 24.1211 52.7751 24.1211C53.0504 24.1211 53.2981 24.0386 53.5184 23.9013C53.7111 23.7639 53.8212 23.5441 53.8212 23.2694C53.8212 23.1046 53.7937 22.9672 53.7111 22.8573C53.6285 22.7474 53.5459 22.665 53.4358 22.5826C53.3257 22.5277 53.188 22.4452 53.0228 22.4178C52.8577 22.3628 52.72 22.3354 52.5548 22.2804C52.4447 22.2529 52.3346 22.198 52.1969 22.143C52.0593 22.0881 51.9492 22.0057 51.8115 21.9233C51.7014 21.8134 51.5913 21.7035 51.5087 21.5387C51.4261 21.3738 51.3986 21.209 51.3986 20.9617C51.3986 20.8244 51.4261 20.6595 51.4812 20.5222C51.5362 20.3848 51.6188 20.2474 51.7565 20.1101C51.8666 20.0002 52.0318 19.8903 52.2245 19.8079C52.4172 19.7255 52.6374 19.698 52.8852 19.698C53.1054 19.698 53.3532 19.7255 53.601 19.8079C53.8487 19.8903 54.0965 20.0277 54.3443 20.2474L53.9313 20.7694Z" fill="#292929"/>
<path d="M55.1694 22.2529C55.1694 21.9232 55.2245 21.5936 55.3621 21.2914C55.4998 20.9892 55.665 20.7419 55.8852 20.5221C56.1055 20.3024 56.3808 20.1375 56.656 20.0002C56.9589 19.8628 57.2617 19.8079 57.6196 19.8079C57.95 19.8079 58.2803 19.8628 58.5831 20.0002C58.886 20.1375 59.1338 20.3024 59.354 20.5221C59.5742 20.7419 59.7669 21.0167 59.8771 21.2914C60.0147 21.5936 60.0698 21.9232 60.0698 22.2529C60.0698 22.5826 60.0147 22.9122 59.8771 23.2144C59.7394 23.5166 59.5742 23.7639 59.354 24.0111C59.1338 24.2309 58.8584 24.4232 58.5831 24.5331C58.2803 24.6705 57.9775 24.7254 57.6196 24.7254C57.2892 24.7254 56.9589 24.6705 56.656 24.5331C56.3532 24.3958 56.1055 24.2309 55.8852 24.0111C55.665 23.7914 55.4998 23.5166 55.3621 23.2144C55.2245 22.9122 55.1694 22.5826 55.1694 22.2529ZM55.7476 22.2529C55.7476 22.5276 55.8026 22.7749 55.8852 22.9947C55.9953 23.2419 56.1055 23.4342 56.2982 23.5991C56.4633 23.7639 56.6561 23.9013 56.8763 24.0111C57.0965 24.121 57.3443 24.176 57.5921 24.176C57.8674 24.176 58.0876 24.121 58.3354 24.0111C58.5556 23.9013 58.7483 23.7639 58.9135 23.5991C59.0787 23.4342 59.2163 23.2144 59.2989 22.9947C59.409 22.7749 59.4366 22.5002 59.4366 22.2529C59.4366 21.9782 59.3815 21.7309 59.2989 21.5112C59.1888 21.2639 59.0787 21.0716 58.9135 20.9068C58.7483 20.7419 58.5556 20.6046 58.3078 20.4947C58.0876 20.3848 57.8398 20.3298 57.5921 20.3298C57.3443 20.3298 57.0965 20.3848 56.8763 20.4947C56.6561 20.6046 56.4633 20.7419 56.2982 20.9068C56.133 21.0716 55.9953 21.2914 55.8852 21.5112C55.8026 21.7309 55.7476 21.9782 55.7476 22.2529Z" fill="#292929"/>
<path d="M63.5937 20.4123C63.4561 20.3573 63.346 20.3573 63.2083 20.3573C63.0156 20.3573 62.8229 20.4123 62.6302 20.4947C62.465 20.6046 62.2998 20.7145 62.1622 20.8793C62.0245 21.0441 61.9144 21.2365 61.8318 21.4562C61.7492 21.676 61.7217 21.9233 61.7217 22.1705V24.5606H61.1436V19.8628H61.6942V20.8518H61.7217C61.8593 20.4672 62.0796 20.1925 62.3824 20.0002C62.7128 19.8079 63.0707 19.698 63.4836 19.698C63.5387 19.698 63.5937 19.698 63.6213 19.698C63.6763 19.698 63.7038 19.698 63.7589 19.7255L63.5937 20.4123Z" fill="#292929"/>
<path d="M65.5763 18.3243L65.1358 18.8188L64.6953 18.3243L65.1358 17.8298L65.5763 18.3243ZM64.888 24.5881V19.8903H65.4661V24.5881H64.888Z" fill="#292929"/>
<path d="M69.1831 24.2033C69.5134 24.2033 69.7887 24.1209 70.064 23.9835C70.3393 23.8187 70.5596 23.6264 70.7248 23.3791H71.3855C71.2754 23.5715 71.1652 23.7638 71.0001 23.9286C70.8349 24.0934 70.6697 24.2308 70.477 24.3682C70.2843 24.478 70.0916 24.5879 69.8713 24.6429C69.6511 24.6978 69.4308 24.7528 69.1831 24.7528C68.8527 24.7528 68.5224 24.6978 68.2195 24.5605C67.9167 24.4231 67.6689 24.2583 67.4487 24.0385C67.2285 23.8187 67.0633 23.544 66.9256 23.2418C66.788 22.9396 66.7329 22.6374 66.7329 22.2803C66.7329 21.9506 66.788 21.6209 66.8981 21.3187C67.0082 21.0165 67.1734 20.7693 67.3936 20.5495C67.6139 20.3297 67.8616 20.1649 68.1369 20.0275C68.4122 19.8901 68.7426 19.8352 69.073 19.8352C69.4584 19.8352 69.7887 19.8901 70.0916 20.0275C70.3944 20.1649 70.6422 20.3297 70.8624 20.5495C71.0551 20.7693 71.2203 21.044 71.3304 21.3187C71.4405 21.6209 71.4956 21.9506 71.4956 22.2803H67.311C67.311 22.555 67.3661 22.8022 67.4487 23.022C67.5588 23.2693 67.6689 23.4616 67.8616 23.6264C68.0268 23.7912 68.2195 23.9286 68.4398 24.0385C68.6875 24.1484 68.9078 24.2033 69.1831 24.2033ZM70.8349 21.7308C70.8073 21.5385 70.7523 21.3462 70.6422 21.1814C70.532 21.0165 70.4219 20.8517 70.2843 20.7418C70.1466 20.6044 69.9539 20.522 69.7612 20.4396C69.5685 20.3572 69.3483 20.3297 69.1005 20.3297C68.8802 20.3297 68.6875 20.3572 68.4948 20.4396C68.3021 20.522 68.1369 20.6044 67.9993 20.7418C67.8616 20.8792 67.724 21.0165 67.6139 21.1814C67.5038 21.3462 67.4212 21.5385 67.3661 21.7308H70.8349Z" fill="#292929"/>
<path d="M74.9914 20.7694C74.8813 20.6595 74.7711 20.5771 74.661 20.5222C74.5509 20.4672 74.4408 20.4123 74.3582 20.3848C74.2481 20.3573 74.1655 20.3299 74.0829 20.3299C74.0003 20.3299 73.9177 20.3024 73.8627 20.3024C73.6975 20.3024 73.5598 20.3299 73.4222 20.3848C73.3121 20.4398 73.2019 20.4947 73.1469 20.5496C73.0643 20.6321 73.0092 20.7145 72.9817 20.7969C72.9542 20.8793 72.9266 20.9892 72.9266 21.0716C72.9266 21.2365 72.9542 21.3738 73.0368 21.4837C73.1194 21.5936 73.2019 21.676 73.3396 21.731C73.4497 21.7859 73.5874 21.8408 73.7525 21.8683C73.9177 21.8958 74.0554 21.9507 74.2206 21.9782C74.3307 22.0057 74.4683 22.0606 74.606 22.1156C74.7436 22.1705 74.8813 22.2529 74.9914 22.3628C75.1015 22.4727 75.2116 22.5826 75.2942 22.7474C75.3768 22.8848 75.4043 23.0771 75.4043 23.2969C75.4043 23.5167 75.3768 23.709 75.2942 23.8738C75.2116 24.0386 75.1015 24.2035 74.9639 24.3134C74.8262 24.4233 74.6335 24.5331 74.4408 24.5881C74.2481 24.643 74.0003 24.698 73.7801 24.698C73.6975 24.698 73.5874 24.698 73.4772 24.6705C73.3671 24.643 73.2295 24.6156 73.1194 24.5606C72.9817 24.5057 72.8441 24.4233 72.7064 24.3408C72.5688 24.2584 72.4311 24.1211 72.2935 23.9562L72.6789 23.5441C72.7339 23.5991 72.789 23.6815 72.8716 23.7364C72.9542 23.8189 73.0368 23.8738 73.1194 23.9288C73.2019 23.9837 73.3121 24.0386 73.4497 24.0661C73.5598 24.0936 73.6975 24.1211 73.8351 24.1211C74.1104 24.1211 74.3582 24.0386 74.5784 23.9013C74.7711 23.7639 74.8813 23.5441 74.8813 23.2694C74.8813 23.1046 74.8537 22.9672 74.7712 22.8573C74.6886 22.7474 74.606 22.665 74.4959 22.5826C74.3857 22.5277 74.2481 22.4452 74.0829 22.4178C73.9177 22.3628 73.7801 22.3354 73.6149 22.2804C73.5048 22.2529 73.3947 22.198 73.257 22.143C73.1194 22.0881 73.0092 22.0057 72.8716 21.9233C72.7615 21.8134 72.6513 21.7035 72.5688 21.5387C72.4862 21.3738 72.4586 21.209 72.4586 20.9617C72.4586 20.8244 72.4862 20.6595 72.5412 20.5222C72.5963 20.3848 72.6789 20.2474 72.8165 20.1101C72.9266 20.0002 73.0918 19.8903 73.2845 19.8079C73.4772 19.7255 73.6975 19.698 73.9453 19.698C74.1655 19.698 74.4133 19.7255 74.661 19.8079C74.9088 19.8903 75.1566 20.0277 75.4043 20.2474L74.9914 20.7694Z" fill="#292929"/>
</svg>
