<svg width="8" height="8" viewBox="0 0 8 8" fill="none" xmlns="http://www.w3.org/2000/svg">
<path d="M4.98986 0.44411C5.0013 0.401339 5.02926 0.364863 5.06759 0.342705C5.10592 0.320546 5.15148 0.314519 5.19425 0.325951C5.78863 0.485785 6.33057 0.798999 6.76579 1.23422C7.20101 1.66943 7.51422 2.21138 7.67405 2.80575C7.68002 2.82703 7.68171 2.84927 7.67902 2.87121C7.67632 2.89314 7.6693 2.91432 7.65836 2.93352C7.64742 2.95271 7.63277 2.96955 7.61527 2.98304C7.59778 2.99654 7.57778 3.00643 7.55643 3.01213C7.53508 3.01784 7.51281 3.01925 7.49092 3.01629C7.46902 3.01333 7.44793 3.00604 7.42887 2.99487C7.4098 2.98369 7.39315 2.96884 7.37987 2.95118C7.36659 2.93352 7.35695 2.9134 7.35151 2.89198C7.20691 2.35424 6.92355 1.86394 6.5298 1.4702C6.13606 1.07646 5.64576 0.793093 5.10802 0.648499C5.06525 0.637061 5.02878 0.609103 5.00662 0.570774C4.98446 0.532444 4.97843 0.486882 4.98986 0.44411ZM4.76227 1.93886C5.07359 2.02258 5.35744 2.18664 5.58539 2.4146C5.81334 2.64256 5.97739 2.92642 6.0611 3.23774C6.0666 3.25909 6.07628 3.27915 6.08958 3.29675C6.10287 3.31434 6.11952 3.32913 6.13857 3.34025C6.15761 3.35138 6.17867 3.35862 6.20053 3.36156C6.22239 3.3645 6.24461 3.36308 6.26592 3.35738C6.28722 3.35168 6.30719 3.34182 6.32466 3.32836C6.34213 3.3149 6.35676 3.29811 6.36771 3.27897C6.37866 3.25982 6.3857 3.23869 6.38844 3.21681C6.39117 3.19493 6.38955 3.17272 6.38365 3.15146C6.28471 2.78351 6.09081 2.44801 5.82138 2.17858C5.55195 1.90916 5.21645 1.71526 4.8485 1.61631C4.82722 1.61034 4.80497 1.60866 4.78304 1.61135C4.76111 1.61405 4.73993 1.62107 4.72073 1.63201C4.70154 1.64295 4.6847 1.65759 4.67121 1.67509C4.65771 1.69259 4.64782 1.71259 4.64212 1.73394C4.63641 1.75529 4.635 1.77755 4.63796 1.79945C4.64092 1.82135 4.6482 1.84244 4.65938 1.8615C4.67056 1.88056 4.68541 1.89722 4.70307 1.91049C4.72073 1.92377 4.74085 1.93342 4.76227 1.93886ZM7.99644 6.10415C7.92909 6.62779 7.67341 7.10899 7.27717 7.45788C6.88093 7.80677 6.37122 7.99948 5.84327 8C2.62129 8 0 5.37871 0 2.15673C0.000519313 1.6288 0.193207 1.11911 0.54207 0.722875C0.890933 0.326637 1.37211 0.0709481 1.89572 0.00356924C2.00329 -0.00933008 2.11215 0.0129395 2.20601 0.0670476C2.29987 0.121156 2.3737 0.204195 2.41644 0.303746L3.255 2.26024C3.28762 2.33615 3.30092 2.41895 3.29371 2.50126C3.2865 2.58356 3.259 2.6628 3.21368 2.73188L2.51933 3.79285C2.50361 3.81638 2.49423 3.84358 2.49211 3.87181C2.48999 3.90003 2.4952 3.92833 2.50722 3.95395C2.83765 4.62803 3.38421 5.1721 4.05978 5.49946C4.08555 5.5114 4.11398 5.51646 4.14229 5.51413C4.17061 5.51181 4.19783 5.50218 4.22131 5.48618L5.26625 4.78937C5.33552 4.74302 5.41528 4.71475 5.49827 4.70712C5.58126 4.6995 5.66484 4.71276 5.74139 4.74572L7.6963 5.58356C7.79583 5.62631 7.87884 5.70012 7.93293 5.79397C7.98702 5.88781 8.00933 5.9966 7.99644 6.10415ZM7.5647 5.89041L5.60988 5.05261C5.58435 5.04163 5.55648 5.03721 5.52881 5.03975C5.50114 5.04228 5.47455 5.0517 5.45144 5.06714L4.40654 5.76395C4.33469 5.81205 4.25157 5.84068 4.16534 5.84702C4.0791 5.85337 3.99269 5.83721 3.91458 5.80013C3.17164 5.44007 2.57058 4.84172 2.20717 4.10041C2.16988 4.02276 2.1533 3.93682 2.15905 3.85087C2.1648 3.76491 2.19268 3.68191 2.23998 3.60991L2.93433 2.54906C2.94943 2.52603 2.9586 2.49961 2.961 2.47216C2.96341 2.44472 2.95897 2.41711 2.9481 2.3918L2.10955 0.435303C2.09685 0.405385 2.07569 0.379824 2.04868 0.361755C2.02166 0.343687 1.98996 0.333898 1.95746 0.333589C1.95083 0.333582 1.9442 0.334 1.93763 0.334841C1.49461 0.391871 1.08751 0.608238 0.792378 0.943518C0.497246 1.2788 0.334271 1.71006 0.333901 2.15673C0.333901 5.1946 2.8054 7.6661 5.84327 7.6661C6.28995 7.66572 6.7212 7.50273 7.05647 7.20759C7.39175 6.91245 7.6081 6.50535 7.66512 6.06233C7.66919 6.02668 7.66161 5.99067 7.64351 5.95968C7.62541 5.9287 7.59776 5.90437 7.5647 5.89041Z" fill="#292929"/>
</svg>
