<svg width="8" height="8" viewBox="0 0 8 8" fill="none" xmlns="http://www.w3.org/2000/svg">
<path d="M3.99997 0C3.29968 0.000183715 2.61171 0.184153 2.00481 0.53352C1.39791 0.882888 0.893344 1.38542 0.541538 1.99088C0.189732 2.59634 0.00301062 3.28353 3.6103e-05 3.98377C-0.00293841 4.684 0.177938 5.37275 0.524588 5.98118L0.16439 7.24173C0.140882 7.32403 0.13981 7.41112 0.161286 7.49397C0.182762 7.57682 0.226004 7.65243 0.286532 7.71295C0.34706 7.77347 0.422671 7.8167 0.50553 7.83817C0.58839 7.85964 0.675484 7.85856 0.757787 7.83505L2.01846 7.47492C2.5507 7.77834 3.14553 7.95547 3.75706 7.99263C4.3686 8.0298 4.9805 7.92601 5.54557 7.68927C6.11064 7.45253 6.61378 7.08918 7.01618 6.62722C7.41858 6.16527 7.70949 5.61706 7.86646 5.02489C8.02344 4.43271 8.04229 3.8124 7.92157 3.21179C7.80084 2.61118 7.54376 2.04632 7.17016 1.56078C6.79655 1.07525 6.31641 0.682009 5.76675 0.411398C5.2171 0.140787 4.61263 3.54961e-05 3.99997 0ZM3.99997 7.67946C3.33906 7.67991 2.69025 7.50212 2.1219 7.16482C2.10316 7.15366 2.08234 7.14646 2.06071 7.14365C2.03908 7.14084 2.01711 7.14249 1.99614 7.1485L0.669867 7.52739C0.642434 7.53522 0.613406 7.53557 0.585791 7.52841C0.558175 7.52125 0.532977 7.50684 0.512806 7.48666C0.492636 7.46649 0.478226 7.44129 0.47107 7.41368C0.463914 7.38606 0.464273 7.35704 0.472108 7.32961L0.850986 6.00346C0.856978 5.98249 0.85862 5.96052 0.855814 5.9389C0.853008 5.91727 0.845811 5.89645 0.834666 5.87771C0.420181 5.17944 0.248289 4.3637 0.345767 3.55756C0.443245 2.75143 0.80462 2.00016 1.3736 1.4208C1.94257 0.841432 2.6872 0.466501 3.49149 0.35441C4.29578 0.242319 5.11455 0.399361 5.82028 0.801074C6.526 1.20279 7.07905 1.82661 7.39326 2.57537C7.70746 3.32413 7.76519 4.15578 7.55745 4.94077C7.34971 5.72576 6.88817 6.42 6.24471 6.91536C5.60126 7.41072 4.81203 7.67937 3.99997 7.67946ZM6.02044 4.74139L5.20205 4.27378C5.12801 4.23153 5.04405 4.20973 4.95881 4.21064C4.87356 4.21155 4.79009 4.23512 4.71697 4.27894L4.16469 4.61028C3.83037 4.4409 3.55879 4.16932 3.38941 3.83501L3.72077 3.28277C3.76459 3.20965 3.78816 3.12618 3.78906 3.04094C3.78996 2.9557 3.76816 2.87176 3.72589 2.79772L3.25829 1.97938C3.22011 1.91276 3.16503 1.85738 3.0986 1.81885C3.03218 1.78031 2.95677 1.75997 2.87998 1.75988C2.54136 1.75996 2.21656 1.89417 1.97667 2.13315C1.73678 2.37212 1.60134 2.69639 1.59998 3.03499C1.59936 3.4766 1.6858 3.914 1.85437 4.32217C2.02295 4.73035 2.27034 5.10129 2.5824 5.41378C2.89446 5.72627 3.26507 5.97418 3.67303 6.14332C4.08098 6.31247 4.51829 6.39954 4.95993 6.39955H4.96473C5.30335 6.39821 5.62765 6.26278 5.86665 6.0229C6.10565 5.78303 6.23988 5.45825 6.23996 5.11964C6.23988 5.04286 6.21954 4.96745 6.18099 4.90104C6.14245 4.83463 6.08707 4.77956 6.02044 4.74139ZM4.96429 6.07957H4.95997C4.56039 6.07957 4.16473 6.00081 3.79563 5.84777C3.42652 5.69474 3.0912 5.47045 2.80886 5.18773C2.52651 4.905 2.30268 4.5694 2.15016 4.2001C1.99764 3.8308 1.91942 3.43506 1.91998 3.03551C1.92108 2.78165 2.02271 2.53857 2.20263 2.35946C2.38255 2.18036 2.6261 2.07982 2.87998 2.07985C2.90037 2.07988 2.9204 2.08528 2.93804 2.09551C2.95568 2.10574 2.97031 2.12044 2.98046 2.13813L3.44805 2.95651C3.46214 2.98119 3.46941 3.00916 3.46911 3.03757C3.46882 3.06598 3.46097 3.09381 3.44637 3.11818L3.07078 3.74406C3.05749 3.76619 3.04976 3.7912 3.04824 3.81696C3.04673 3.84272 3.05146 3.86847 3.06206 3.89201C3.27089 4.35675 3.64295 4.72877 4.10773 4.93757C4.13127 4.94817 4.15702 4.95291 4.18278 4.95139C4.20855 4.94988 4.23356 4.94214 4.25569 4.92885L4.88157 4.55328C4.90595 4.53868 4.93378 4.53082 4.96219 4.53052C4.99061 4.53022 5.0186 4.53748 5.04329 4.55156L5.86168 5.01921C5.87937 5.02934 5.89408 5.04396 5.90431 5.0616C5.91454 5.07923 5.91994 5.09925 5.91996 5.11964C5.92 5.37349 5.81946 5.61702 5.64035 5.79693C5.46124 5.97683 5.21815 6.07846 4.96429 6.07957Z" fill="#292929"/>
</svg>
